<?xml version="1.0" encoding="UTF-8"?>
<!DOCTYPE svg PUBLIC "-//W3C//DTD SVG 1.1//EN" "http://www.w3.org/Graphics/SVG/1.1/DTD/svg11.dtd">
<!-- Creator: CorelDRAW X8 -->
<svg xmlns="http://www.w3.org/2000/svg" xml:space="preserve" width="10.4571in" height="8.71635in" version="1.1" style="shape-rendering:geometricPrecision; text-rendering:geometricPrecision; image-rendering:optimizeQuality; fill-rule:evenodd; clip-rule:evenodd"
viewBox="0 0 10457 8716"
 xmlns:xlink="http://www.w3.org/1999/xlink"
 data-name="Layer 1">
 <defs>
  <style type="text/css">
   <![CDATA[
    .fil8 {fill:#0389C9}
    .fil6 {fill:#444053}
    .fil3 {fill:#4C4981}
    .fil5 {fill:#AE6E79}
    .fil1 {fill:#FF6600}
    .fil7 {fill:white}
    .fil4 {fill:black;fill-opacity:0.101961}
    .fil0 {fill:#0389C9;fill-opacity:0.101961}
    .fil2 {fill:url(#id0)}
   ]]>
  </style>
  <linearGradient id="id0" gradientUnits="userSpaceOnUse" x1="7320.42" y1="8596.76" x2="7320.42" y2="3779.65">
   <stop offset="0" style="stop-opacity:0.25098; stop-color:gray"/>
   <stop offset="0.541176" style="stop-opacity:0.121569; stop-color:gray"/>
   <stop offset="1" style="stop-opacity:0.101961; stop-color:gray"/>
  </linearGradient>
 </defs>
 <g id="Layer_x0020_1">
  <metadata id="CorelCorpID_0Corel-Layer"/>
  <g id="_2188065312480">
   <path class="fil0" d="M8501 8611c0,-58 -479,-105 -1069,-105 -590,0 -1068,47 -1068,105 0,58 478,105 1068,105 590,0 1069,-47 1069,-105z"/>
   <path class="fil0" d="M4578 128c471,-175 1044,-25 1533,194 1536,690 2656,1998 3545,3331 322,482 628,986 749,1525 246,1096 -397,2232 -1490,2629 -372,136 -780,191 -1189,222 -728,55 -1481,33 -2202,-171 -515,-145 -1002,-380 -1469,-639 -1303,-724 -2494,-1665 -3351,-2813 -377,-504 -695,-1072 -704,-1654 -9,-581 370,-1165 993,-1264 258,-41 530,2 796,45 392,65 789,133 1176,104 400,-29 920,-185 993,-567 77,-410 150,-768 620,-942z"/>
   <path class="fil1" d="M2542 8008c0,0 503,-30 443,322 0,0 12,63 -44,91 0,0 -1,-26 -52,-17 -13,2 -26,3 -38,3 -6,0 -11,0 -17,-1 -24,-1 -48,-11 -66,-27l0 0c0,0 -142,-59 -197,-290 0,0 -40,-50 -39,-63l85 36c0,0 -29,62 -6,112 0,0 3,-109 19,-107 3,1 44,21 44,21 0,0 -50,106 -12,184 0,0 -14,-131 28,-176l59 35c0,0 -58,110 -18,199 0,0 -11,-137 31,-191l54 42c0,0 -55,108 -21,183 0,0 4,-161 33,-173 0,0 47,42 54,59 0,0 -37,79 -14,120 0,0 14,-106 26,-107 0,0 47,71 52,119 0,0 -2,-72 -41,-126 0,0 46,8 73,38 0,0 -8,-50 -84,-55 0,0 -39,-53 -50,-57 0,0 77,-6 123,14 0,0 -41,-47 -137,-25l-53 -44c0,0 100,-14 143,1 0,0 -49,-41 -157,-11l-58 -35c0,0 85,-18 136,-11 0,0 -54,-29 -154,2l-41 -19c0,0 62,-12 81,-14 18,-2 19,-7 19,-7 -12,-2 -24,-3 -36,-3 -28,0 -56,5 -82,16 -26,11 -88,-32 -86,-38z"/>
   <path class="fil0" d="M3244 8452c0,-34 -159,-60 -356,-60 -196,0 -356,26 -356,60 0,33 160,60 356,60 197,0 356,-27 356,-60z"/>
   <path class="fil1" d="M1868 7771c0,0 284,-17 250,182 1,3 1,6 1,8 0,18 -10,35 -26,43 -16,8 0,-15 -29,-10 -7,2 -14,2 -21,2 -3,0 -6,0 -10,0 -13,-1 -27,-6 -37,-16l0 0c0,0 -80,-33 -111,-163 0,0 -23,-28 -22,-36l48 21c0,0 -17,35 -4,63 0,0 2,-62 11,-60 2,0 25,12 25,12 0,0 -29,60 -7,104 0,0 -8,-74 15,-99l34 19c0,0 -33,63 -10,113 0,0 -6,-78 17,-108l31 24c0,0 -32,61 -12,103 0,0 2,-91 18,-97 0,0 27,23 31,33 0,0 -21,44 -8,68 0,0 8,-60 15,-61 0,0 26,40 29,68 -1,-26 -9,-50 -23,-72 15,3 30,10 41,21 11,11 -4,-28 -47,-31 0,0 -22,-30 -28,-32 0,0 43,-3 69,8 0,0 -23,-26 -77,-14l-30 -25c0,0 56,-8 80,1 0,0 -27,-24 -88,-6l-33 -20c21,-5 42,-7 63,-7 5,0 9,0 14,0 4,1 -31,-16 -87,2l-23 -11c0,0 35,-7 45,-8 11,-1 11,-4 11,-4 -6,-1 -13,-1 -20,-1 -16,0 -31,3 -46,9 -15,6 -49,-19 -49,-23z"/>
   <path class="fil0" d="M2264 8021c0,-19 -90,-34 -200,-34 -111,0 -201,15 -201,34 0,19 90,34 201,34 110,0 200,-15 200,-34z"/>
   <path class="fil1" d="M8841 7962c0,0 343,-20 302,219 1,3 1,7 1,10 0,22 -12,42 -31,52 -19,10 -1,-18 -35,-12 -9,1 -17,2 -26,2 -4,0 -7,0 -11,0 -17,-1 -33,-8 -46,-19l0 0c0,0 -96,-40 -133,-197 0,0 -28,-34 -27,-43l58 25c0,0 -20,41 -4,76 0,0 2,-75 13,-73 2,0 30,14 30,14 0,0 -34,73 -9,125 0,0 -9,-89 19,-120l41 24c0,0 -40,75 -13,136 0,0 -7,-94 21,-130l37 29c0,0 -37,74 -15,125 0,0 3,-109 23,-118 0,0 32,29 37,40 0,0 -26,54 -10,82 0,0 10,-73 18,-73 0,0 32,49 35,82 -1,-31 -11,-61 -27,-86 18,3 35,12 49,25 14,13 -5,-34 -57,-37 0,0 -27,-36 -34,-39 0,0 52,-4 84,10 0,0 -28,-32 -93,-18l-37 -29c0,0 69,-10 98,1 0,0 -34,-29 -107,-8l-40 -24c0,0 58,-12 93,-8 0,0 -37,-19 -104,2l-29 -13c0,0 43,-8 55,-9 13,-2 14,-5 14,-5 -8,-2 -17,-2 -25,-2 -19,0 -38,3 -55,11 -18,7 -61,-23 -60,-27z"/>
   <path class="fil0" d="M9319 8264c0,-22 -108,-41 -242,-41 -134,0 -242,19 -242,41 0,23 108,41 242,41 134,0 242,-18 242,-41z"/>
   <path class="fil2" d="M8500 5434c-6,-37 -10,-74 -11,-111 0,-45 -61,-85 -61,-85 0,0 -37,-87 -62,-99 -25,-13 -102,-127 -102,-127 -1,-22 -9,-44 -24,-61 -22,-30 -44,-62 -63,-95 -10,-13 -5,-22 -21,-96 0,-4 -1,-8 -3,-11 0,-2 -1,-3 -1,-5 23,-23 36,-55 36,-88 0,-14 -2,-28 -7,-42 -3,-8 -8,-16 -14,-22 -18,-15 -46,-9 -64,-23l19 -85c5,-21 7,-47 -11,-58 -7,-3 -14,-6 -22,-7 -31,-11 -49,-44 -57,-76 -6,-20 -8,-42 -8,-63 0,-10 0,-20 1,-30 4,-31 13,-60 16,-90 1,-9 1,-17 1,-26 0,-47 -13,-94 -39,-134 -12,-20 -30,-37 -51,-48 -19,-8 -41,-10 -59,-21 -39,-24 -37,-83 -68,-117 -31,-33 -86,-33 -131,-22 -45,12 -90,32 -136,27 -30,-3 -58,-17 -88,-20 -3,0 -6,-1 -8,-1 -6,0 -12,1 -17,2l0 -1c-22,4 -43,16 -48,37 -1,4 -1,9 -1,13 0,1 0,2 0,2 0,13 2,25 3,37 0,1 0,2 0,3 0,8 -3,16 -9,23 -6,6 -14,9 -21,16 -4,5 -7,12 -7,18 0,1 0,1 0,1 0,19 23,35 38,43l1 0c-4,4 -8,8 -12,13 -44,50 -69,114 -69,181 0,1 0,1 0,1 1,111 67,210 169,254l-2 6c-4,14 -10,27 -15,40 -8,-3 -17,-4 -25,-4 -15,0 -29,4 -41,11 -30,21 -88,19 -103,15 -16,-3 -177,-24 -190,-19 -13,5 -39,-18 -56,13 -17,31 -25,47 -42,55 -17,8 -46,32 -42,37 4,5 -43,36 -43,36 0,0 -40,41 -63,47 -24,5 -73,37 -73,37l-57 45c0,0 -42,6 -29,-23 13,-30 -24,-67 -24,-67 0,0 -72,-146 -72,-177 0,-30 -60,-159 -60,-159l-7 -1 -3 -10c-11,-30 -25,-68 -36,-90 -21,-42 -34,-47 -34,-47 0,0 -251,-188 -414,-131 -162,58 298,229 339,247 15,6 25,26 32,50 -36,18 -67,45 -89,80 -21,35 100,221 103,276 2,54 68,208 68,208 0,0 25,114 158,107 0,0 183,34 224,0 40,-34 76,-60 95,-64 15,-5 27,-14 36,-25 10,-12 -60,382 -90,416 -30,33 -293,463 -199,539 75,58 155,111 237,157 8,4 32,-37 66,-65 0,7 0,15 0,22 1,153 21,386 49,438 42,76 25,224 25,224 22,11 45,16 70,17 1,5 2,11 4,16 22,86 59,219 78,255 29,53 49,223 49,223 0,0 17,167 11,190 -3,9 8,78 25,167l0 0c-10,119 -30,350 -33,434l0 0c0,1 0,3 0,4l0 2c0,0 0,1 0,1 0,1 0,1 0,2 0,1 0,3 0,5l0 0c0,1 0,3 0,4 0,4 0,8 1,11 0,3 0,6 0,9 0,5 -1,10 -2,15 -8,23 -17,46 -28,67 -5,10 -9,21 -13,32 -10,5 -23,16 -30,43 -13,50 -32,188 -32,188 0,0 -8,84 -23,103 -16,19 -32,139 78,154 110,16 158,-58 158,-58l-4 -334 0 -1c2,-2 4,-5 6,-9l0 -1c1,-1 1,-3 2,-5l1 -2 2 -4c0,0 0,-1 0,-1 0,0 0,0 0,-1 7,-22 11,-46 11,-70 0,-9 -1,-19 -2,-29l0 -2 0 -2c0,-1 0,-2 0,-3l0 -5c0,-1 0,-2 0,-2 0,-2 0,-5 1,-7 0,-2 0,-1 0,-1l0 -4 0 -2c0,-2 0,-3 1,-4 0,0 0,-1 0,-1 0,0 0,0 0,0 1,-5 3,-11 4,-15l0 -2 1 -5 0 0c2,-5 4,-10 6,-16l0 -1c0,-1 1,-3 1,-4l0 -1c2,-5 4,-11 6,-15l1 -1 1 -4 1 -2 4 -9 0 0 30 94c0,0 17,71 8,87 -9,17 11,86 23,87l-12 87c-6,47 -10,96 -11,144 -1,5 -2,10 -2,14 -9,44 11,113 11,113 102,121 224,9 224,9 0,0 14,-63 0,-76 -14,-13 -8,-59 -8,-59 0,0 7,-113 8,-196 1,-83 -68,-157 -68,-157l-4 4c-12,-33 -27,-71 -24,-88 6,-29 -14,-339 -14,-339 4,-53 7,-106 7,-159 0,-30 -1,-61 -2,-91l0 0c1,-14 3,-28 4,-42 8,-66 15,-123 17,-153l0 0 0 -4c1,-8 1,-14 1,-16 0,-11 0,-23 1,-36 2,-35 8,-75 8,-75l27 -165c0,0 21,-80 51,-125l3 -6 0 0c1,-2 2,-4 4,-6l0 -1c1,-2 3,-5 4,-7l0 -1c4,-8 9,-18 14,-28 0,-1 0,-2 1,-2l3 -8c0,-1 1,-2 2,-3 0,-1 2,-6 3,-8 0,-1 1,-2 1,-4 2,-3 3,-6 4,-9l2 -5c1,-2 2,-5 3,-7l3 -7c1,-1 1,-3 2,-4l3 -7c0,-2 1,-3 1,-4 7,-18 14,-36 21,-53l0 0c2,-5 4,-10 6,-15 66,4 111,8 111,8 0,0 21,-149 14,-248 -4,-67 8,-151 16,-198 1,-5 2,-9 3,-13l2 1c32,25 55,-59 55,-59 0,0 -8,-78 -21,-174l-1 -9c19,4 38,7 57,8 19,2 10,-1 25,-2 39,23 81,41 124,56l69 -127c13,-26 28,-52 45,-75 21,-26 94,-108 93,-123 -1,-15 25,-103 51,-143 25,-40 36,-119 34,-125zm-510 563c-28,11 -53,75 -55,94 -1,20 -29,104 -59,114 -28,9 -80,57 -88,65 -9,1 -18,2 -28,4 -12,-81 -23,-148 -30,-161 -21,-38 23,-161 23,-161 0,0 4,-124 31,-153 27,-29 21,-103 21,-103 0,0 6,-31 9,-45 2,-14 38,0 38,0l0 0c0,0 70,38 81,96 10,57 86,157 86,157 0,0 -11,34 0,52 12,17 222,-437 194,-425l-223 466z"/>
   <path class="fil3" d="M6343 4440c38,-62 106,-101 178,-101 11,0 21,1 31,3l0 149 -91 0 -71 -18 -47 -33z"/>
   <path class="fil4" d="M6343 4440c38,-62 106,-101 178,-101 11,0 21,1 31,3l0 149 -91 0 -71 -18 -47 -33z"/>
   <path class="fil5" d="M6558 4381l-111 78c0,0 0,-16 -3,-37 -6,-40 -18,-100 -45,-112 -41,-18 -494,-189 -333,-246 161,-57 407,131 407,131 0,0 13,4 33,46 11,22 25,60 36,90 10,28 16,50 16,50z"/>
   <polygon class="fil3" points="7445,4501 7457,4495 7493,4535 7464,4597 7414,4577 7426,4528 "/>
   <path class="fil6" d="M7277 8119c0,0 -32,-4 -45,46 -12,49 -32,187 -32,187 0,0 -7,84 -23,103 -15,19 -30,139 78,154 108,16 156,-58 156,-58l-4 -334 -130 -98z"/>
   <path class="fil6" d="M7655 8134c0,0 68,73 66,155 -1,83 -7,196 -7,196 0,0 -7,46 7,59 14,13 0,77 0,77 0,0 -119,111 -220,-10 0,0 -20,-69 -11,-113 8,-44 30,-244 30,-244l135 -120z"/>
   <path class="fil5" d="M7823 6610c0,0 -68,193 -98,237 -29,45 -49,125 -49,125l-27 165c-5,36 -8,73 -9,110 1,37 -66,576 -66,576l-107 136c0,0 -47,96 -40,136 8,40 -5,103 -21,122 0,0 -2,125 -6,153 -4,28 14,107 0,121 -14,14 -201,8 -206,-15 -5,-23 23,-134 23,-134l16 -107c0,0 33,-59 26,-78 -8,-19 14,-63 15,-67 1,-4 36,-67 29,-91 -6,-24 40,-538 40,-538l131 -921 349 70z"/>
   <path class="fil4" d="M7823 6610c0,0 -10,29 -24,67 -23,60 -56,143 -74,170 -29,45 -50,125 -50,125l-26 165c-5,36 -8,74 -9,110 0,15 -10,108 -22,215 -20,164 -44,361 -44,361l-107 137c0,0 -6,10 -13,26 -13,32 -32,82 -27,109 8,39 -5,103 -21,122 0,0 -2,125 -6,153 -4,27 14,107 0,121 -14,14 -201,7 -206,-16 -5,-22 23,-133 23,-133l16 -107c0,0 33,-59 26,-78 -8,-19 14,-64 15,-68 1,-3 36,-66 29,-90 -5,-18 21,-320 33,-463 4,-45 7,-75 7,-75l113 -792 9 -64 9 -65 349 70z"/>
   <path class="fil5" d="M7709 8526c1,14 -180,35 -206,19 -26,-15 0,-205 0,-205l12 -86c-13,-2 -32,-70 -23,-87 9,-17 -8,-87 -8,-87l-30 -93 -18 -58c-30,-65 -73,-253 -100,-393 -16,-88 -27,-157 -25,-166 7,-23 -10,-190 -10,-190 0,0 -21,-169 -49,-223 -18,-35 -55,-168 -77,-254 -12,-44 -19,-76 -19,-76 0,0 192,-16 309,-21 53,-3 91,-3 87,1 -5,4 -6,28 -5,61 0,88 12,242 25,283 18,57 36,229 28,246 -7,16 -5,127 -5,127 13,45 21,92 23,138 1,30 2,62 2,92 0,52 -2,105 -7,157 -4,52 19,310 14,339 -5,29 41,121 41,139 0,18 13,139 13,139 0,0 27,184 28,198z"/>
   <path class="fil5" d="M7809 4805l-22 24 -14 15 -83 90 -216 24 -114 -30 -28 -8c0,0 0,-58 5,-126 7,-89 24,-196 66,-226 21,-16 37,-37 48,-61 9,-16 16,-34 21,-51 1,-3 2,-5 2,-7 10,-31 17,-63 21,-95 4,-32 27,-15 65,-33 100,-46 272,-110 212,33 -9,21 -16,43 -22,65 -1,3 -2,6 -3,10 -20,80 -7,128 8,155l0 0c3,4 6,9 9,13 4,6 9,11 14,15l25 157 2 13 4 23z"/>
   <path class="fil4" d="M7772 4362c-11,27 6,-22 0,0 -45,32 -152,124 -212,124 -41,0 -53,-7 -88,-23 11,-33 18,-67 23,-101 4,-34 360,-199 277,0z"/>
   <path class="fil5" d="M7864 4195c0,142 -107,261 -249,276 -9,1 -19,1 -29,1 -153,0 -277,-124 -277,-277 0,-154 124,-278 277,-278 154,0 278,124 278,278l0 0z"/>
   <path class="fil4" d="M7904 5426l-40 103c0,0 -32,1 -82,3 -170,5 -543,12 -560,-31 -4,-11 -6,-23 -6,-35 -2,-66 29,-168 29,-168 0,0 18,-204 18,-213 0,-8 -16,-151 -16,-151l31 -115 85 -60c0,0 39,59 62,64 22,5 53,33 53,33 0,0 75,46 99,20 25,-25 213,-137 213,-137l100 109 14 578z"/>
   <path class="fil7" d="M7904 5442l-40 103c0,0 -32,1 -82,3l-5 0c-22,0 -47,1 -73,2 -135,3 -320,4 -417,-11 -37,-5 -61,-12 -65,-23 -2,-6 -3,-12 -4,-19 -1,-4 -1,-10 -1,-15 -3,-66 28,-168 28,-168 0,0 18,-204 18,-213 0,-9 -15,-152 -15,-152l30 -114 59 -41 27 -19c9,13 18,26 29,39 8,11 19,19 32,25 23,5 53,33 53,33 0,0 75,46 100,20 18,-19 133,-89 186,-121 16,-10 26,-16 26,-16l14 14 86 95 14 578z"/>
   <path class="fil4" d="M6558 4381l-111 78c0,0 0,-16 -3,-37 54,-23 88,-74 97,-91 11,28 17,50 17,50z"/>
   <path class="fil1" d="M6948 4645l-24 -7c0,0 -40,42 -62,48 -23,5 -72,36 -72,36l-56 45c0,0 -42,7 -29,-23 12,-29 -23,-66 -23,-66 0,0 -71,-147 -71,-177 0,-31 -59,-159 -59,-159 0,0 -74,144 -209,98 0,0 98,220 100,275 3,55 68,207 68,207 0,0 24,114 155,108 0,0 181,33 221,0 39,-34 75,-61 93,-64 19,-4 36,-26 36,-26l0 -151 -68 -144z"/>
   <path class="fil4" d="M6721 4789c0,0 32,118 12,131l-12 -131z"/>
   <path class="fil4" d="M7782 5547c-170,6 -543,12 -560,-31 -4,-11 -6,-23 -6,-34l554 29 12 36z"/>
   <path class="fil4" d="M7823 6610c0,0 -10,29 -24,67 -71,-4 -164,-8 -252,-9 -32,0 -62,0 -91,1 -62,2 -115,7 -149,17 -37,11 -76,17 -115,17 -6,0 -11,0 -17,0 -11,-44 -19,-76 -19,-76 0,0 192,-16 309,-22l9 -65 349 70z"/>
   <path class="fil6" d="M7972 6144l-21 46c0,0 -3,14 -7,35 -8,47 -21,131 -16,198 6,98 -14,247 -14,247 0,0 -469,-39 -607,0 -137,40 -205,0 -205,0 0,0 17,-147 -24,-224 -28,-52 -47,-284 -48,-437 0,-71 4,-124 12,-135 28,-35 148,-378 148,-378l27 1 73 4 415 22 65 3 7 21 195 597z"/>
   <path class="fil3" d="M8179 5991l4 41c0,0 -206,-67 -195,-149 10,-82 0,-73 0,-73l165 14 26 167z"/>
   <path class="fil4" d="M8179 5991l4 41c0,0 -206,-67 -195,-149 10,-82 0,-73 0,-73l165 14 26 167z"/>
   <path class="fil4" d="M6858 4822c21,17 46,30 73,37 -8,-1 -15,-5 -21,-10 -15,-11 -29,-22 -43,-33 -11,-9 -26,-24 -40,-27 9,12 20,23 31,33l0 0z"/>
   <path class="fil4" d="M6862 4875c6,8 11,16 15,25 3,13 5,25 5,38 0,14 -2,28 -6,41l-33 -79c-5,-14 -11,-27 -18,-40 -3,-6 -22,-29 -20,-33 6,-14 50,41 57,48z"/>
   <path class="fil4" d="M7780 5315c22,-3 43,-13 60,-28 -34,4 -66,17 -99,24 -11,3 -23,4 -34,4 -20,0 -40,-4 -59,-12 38,19 91,19 132,12z"/>
   <path class="fil4" d="M7684 5082c-1,0 -2,0 -3,0 -5,0 -10,-2 -14,-5 -25,-14 -50,-29 -75,-45 -24,-16 -53,-31 -74,-51 51,46 98,84 166,101z"/>
   <path class="fil4" d="M7755 5352c2,0 5,0 7,0 11,0 22,-1 33,-3 13,-3 25,-11 32,-22 -1,0 -2,0 -4,0 -3,0 -7,1 -10,2 -28,12 -59,19 -90,19 -13,0 -25,-1 -37,-3 20,9 47,7 69,7z"/>
   <path class="fil4" d="M7514 5943c-27,8 -54,14 -82,16 -7,1 -15,1 -22,1 -14,0 -28,-1 -42,-2l-104 -7 -52 -3c-7,0 -32,0 -19,-12 6,-6 41,-3 50,-3 17,0 34,-1 52,-1 34,0 69,0 103,2 39,2 77,5 116,9z"/>
   <path class="fil4" d="M7393 5995c-18,-1 -41,10 -59,12 -15,2 -30,3 -46,3 -5,0 -10,0 -15,-1 -41,-1 -81,-9 -119,-24 80,4 159,7 239,10z"/>
   <path class="fil4" d="M7170 6049c7,2 15,4 22,7 44,12 91,1 136,-10 -11,17 -31,24 -51,29 -20,4 -39,7 -59,7 -14,0 -28,-1 -41,-4 -11,-2 -37,-5 -42,-16 -9,-16 25,-14 35,-13z"/>
   <path class="fil4" d="M7416 6132c13,2 26,6 39,10 50,12 101,-4 151,-16 50,-11 103,-17 155,-17 9,0 18,0 27,0 -11,0 -28,10 -39,13 -14,4 -29,8 -43,12 -28,7 -56,12 -85,16 -41,6 -83,9 -125,9 -17,0 -33,0 -50,-1 -26,-1 -72,1 -95,-12 16,-10 35,-15 54,-15 3,0 7,0 11,1z"/>
   <path class="fil4" d="M7435 4561c0,0 2,117 -17,170 -6,17 -15,48 -25,82 -11,39 -24,81 -33,115 -9,33 -16,56 -16,56 0,0 -43,350 -54,517 0,3 0,6 0,9 -1,9 -2,19 -4,29 -24,166 -168,422 -216,442 -14,7 -28,17 -40,28 0,-70 4,-124 12,-135 28,-34 148,-378 148,-378l27 1c0,-4 -1,-10 -1,-15 -2,-66 29,-168 29,-168 0,0 18,-204 18,-213 0,-9 -16,-151 -16,-151l31 -115 59 -41c7,-89 24,-196 66,-225 21,-16 37,-38 48,-62 9,2 -6,-6 -6,-6l-10 60z"/>
   <path class="fil1" d="M7457 4495c-8,-3 -16,-4 -24,-4 -14,0 -28,4 -40,11 -30,21 -87,19 -102,15 -16,-3 -175,-24 -188,-19 -13,5 -38,-17 -55,13 -16,31 -24,47 -40,55 -17,7 -46,32 -42,37 4,5 -42,35 -42,35l93 303c0,0 -60,382 -89,415 -29,33 -289,462 -196,539 73,57 152,110 233,156 10,5 47,-64 98,-86 51,-21 209,-308 219,-471 10,-163 55,-526 55,-526 0,0 54,-199 73,-252 20,-54 17,-171 17,-171l30 -50z"/>
   <path class="fil4" d="M7972 6144l-21 46c0,0 -3,14 -7,35 -4,0 -8,-2 -11,-4 -31,-26 -218,-218 -228,-389 -6,-126 -3,-234 -1,-283 1,-15 1,-24 1,-26l0 0c0,0 145,-176 129,-238 -17,-63 -55,-396 -55,-396l-6 -44 -9 -74 -23 -179 24 6c4,5 9,10 14,15l25 157 86 95 14 577 -40 103c0,0 -32,1 -82,3l-5 0 195 596z"/>
   <path class="fil1" d="M8053 5192c0,0 -36,-15 -39,0 -2,14 -9,44 -9,44 0,0 7,74 -20,103 -28,30 -32,153 -32,153 0,0 -43,122 -22,161 7,13 19,83 30,166 7,52 15,110 21,162 11,95 20,173 20,173 0,0 -23,85 -55,59 -32,-26 -219,-218 -228,-389 -6,-119 -3,-224 -1,-275 0,-22 1,-34 1,-34 0,0 146,-176 129,-238 -17,-63 -55,-396 -55,-396l-6 -52 -8 -55 -1 -12 -23 -177 0 0c4,1 147,33 165,52 19,19 136,46 136,46 36,9 63,38 72,74 1,3 2,7 3,11 15,74 10,83 21,96 10,12 -99,328 -99,328z"/>
   <path class="fil4" d="M7983 5981c-52,-11 -130,-35 -128,-88 2,-50 62,-67 107,-74 7,52 14,109 21,162z"/>
   <path class="fil5" d="M8144 5954c-2,5 -10,9 -22,12 -28,7 -56,11 -85,14 -28,2 -177,-14 -174,-95 2,-57 82,-72 127,-76 8,-1 18,-1 27,-1 1,0 2,0 2,0 1,0 133,130 125,146z"/>
   <path class="fil4" d="M8144 5954c-2,5 -10,9 -22,12 -46,-62 -110,-141 -142,-148l10 -9c8,-1 18,-1 27,-1 1,0 2,0 2,0 1,0 133,130 125,146z"/>
   <path class="fil1" d="M8100 4855l52 8c19,33 40,65 62,95 14,18 22,39 23,61 1,23 77,114 101,126 24,13 61,100 61,100 0,0 60,39 60,84 1,37 5,74 11,111 2,6 -8,85 -34,125 -25,39 -51,127 -50,142 2,16 -71,97 -91,122 -17,24 -32,50 -45,76l-67 127c0,0 -143,-210 -195,-222 0,0 58,-56 87,-66 30,-10 58,-94 59,-113 1,-20 27,-83 54,-94 26,-11 40,-23 29,-41 -12,-18 0,-52 0,-52 0,0 -75,-99 -85,-156 -11,-57 -79,-96 -79,-96l-40 -96 87 -241z"/>
   <path class="fil4" d="M8289 5331c29,-25 65,-39 103,-39 -24,4 -50,9 -67,26 -7,7 -13,15 -19,24 -6,8 -55,71 -62,61 -13,-15 35,-64 45,-72z"/>
   <path class="fil4" d="M8174 5270c16,-1 30,-11 36,-26 6,-14 10,-29 12,-45 3,-26 9,-52 15,-77 2,-4 3,-9 3,-14 0,-6 -2,-12 -5,-17 -3,-9 -7,-16 -11,-24 -10,11 -12,35 -16,49 -5,17 -9,35 -13,52 -3,9 -20,102 -21,102z"/>
   <path class="fil4" d="M8129 4756c-5,7 -11,13 -18,18 -21,17 -48,31 -51,57 0,1 0,3 0,5 0,7 -1,13 -3,20 -7,11 -23,10 -36,8 -11,-1 -22,-5 -31,-11 -13,-12 -15,-33 -25,-47 -12,-15 -30,-23 -49,-23 -1,0 -2,0 -3,0 -20,-1 -39,3 -58,4 -3,0 -6,0 -8,0 -10,0 -20,-1 -30,-2 -4,-1 -8,-2 -12,-3 -9,-2 -17,-5 -25,-8 -4,-2 -9,-4 -13,-6 -13,-7 -25,-15 -36,-25 -19,-18 -34,-42 -33,-68 1,-16 8,-31 10,-46 8,-45 -22,-88 -54,-120 -13,-13 -27,-25 -40,-38 -20,-19 -36,-41 -46,-67 -6,-19 -10,-40 -10,-61 0,-7 1,-15 2,-22 2,-20 3,-39 3,-59 0,-9 -1,-18 -1,-27 -10,-101 -96,-178 -183,-221l-3 -2c52,-60 129,-95 209,-95 153,0 277,124 277,278 0,88 -42,171 -113,224 -1,3 -2,6 -2,9 -20,80 -7,129 8,156l0 0c4,0 147,33 165,52 19,18 136,45 136,45 36,10 64,39 73,75l0 0z"/>
   <path class="fil6" d="M7357 3939c6,-7 15,-10 20,-16 18,-20 0,-52 7,-78 7,-28 42,-41 72,-38 29,3 57,17 86,20 46,5 90,-15 134,-26 45,-12 98,-12 129,22 31,34 29,92 67,116 17,12 40,13 59,21 20,11 38,28 49,48 26,40 39,86 39,134 0,8 0,17 -1,25 -3,31 -12,60 -15,90 -2,10 -2,20 -2,30 0,21 3,43 8,64 8,31 25,65 56,75 8,1 15,4 21,7 18,11 16,38 11,58l-18 86c18,14 45,8 62,22 7,6 12,14 15,23 4,13 7,27 7,41 0,37 -16,72 -45,96 -20,16 -48,30 -51,56 1,2 1,4 1,6 0,6 -2,13 -4,19 -6,12 -23,11 -36,9 -11,-1 -21,-5 -30,-12 -14,-11 -15,-32 -26,-47 -12,-14 -30,-23 -49,-23 -1,0 -2,0 -3,0 -19,0 -38,4 -58,5 -2,0 -5,0 -7,0 -43,0 -84,-16 -116,-45 -19,-17 -35,-41 -33,-67 1,-16 8,-31 10,-47 8,-44 -22,-87 -54,-119 -33,-32 -71,-62 -87,-105 -19,-53 0,-112 -6,-168 -9,-102 -96,-179 -182,-222 -19,-9 -52,-35 -30,-60z"/>
   <path class="fil4" d="M8038 4814c-13,-12 -14,-33 -25,-47 -12,-15 -30,-24 -49,-24 -1,0 -2,0 -3,0 -19,0 -39,4 -58,5 -3,0 -5,0 -8,0 -43,0 -84,-16 -116,-44 -19,-18 -34,-42 -33,-68 1,-16 8,-31 11,-46 7,-45 -23,-88 -55,-120 -32,-32 -70,-62 -86,-105 -20,-53 0,-112 -6,-168 -10,-102 -96,-179 -183,-221 -20,-10 -53,-35 -30,-61 5,-6 14,-10 20,-16 18,-20 0,-52 7,-77 1,-6 3,-10 6,-15 -22,4 -42,17 -47,37 -6,26 12,58 -6,78 -6,6 -15,10 -21,16 -22,26 11,51 31,61 87,42 173,119 183,221 5,56 -14,115 5,168 16,43 54,73 87,105 32,32 62,75 54,120 -4,15 -8,30 -10,46 -2,26 14,50 33,68 32,28 73,44 116,44 2,0 5,0 7,0 20,-1 39,-5 59,-5 1,0 1,0 2,0 19,0 38,9 50,23 10,15 11,36 25,48 9,6 20,10 31,11 13,2 29,3 36,-8 2,-4 3,-9 3,-13 0,-1 0,-2 0,-2 -11,-1 -21,-5 -30,-11l0 0z"/>
   <path class="fil8" d="M6522 4195l-720 0 0 -710 721 0 -1 710zm-10 -1071l-700 0c0,-1103 1049,-1039 1049,-1737 0,-384 -315,-692 -699,-692 -385,0 -699,332 -699,703l-700 0c0,0 0,-1 0,-2 0,-771 625,-1396 1396,-1396 1,0 2,0 3,0 772,0 1398,616 1398,1387 0,873 -1049,972 -1049,1737l1 0z"/>
   <path class="fil0" d="M2928 3983l-185 0 0 -183 185 0 0 183zm-2 -276l-181 0c0,-284 271,-268 271,-448 -1,-98 -81,-178 -180,-178 0,0 0,0 0,0 -99,2 -179,82 -180,181l-180 0c2,-197 163,-356 360,-356 196,0 357,157 361,353 -1,225 -271,251 -271,448l0 0z"/>
   <path class="fil0" d="M4336 5258l-186 0 0 -183 186 0 0 183zm-3 -276l-180 0c0,-284 270,-267 270,-448 0,-98 -81,-178 -179,-178 -1,0 -1,0 -1,0 -100,2 -180,82 -181,181l-180 0c2,-197 163,-356 360,-356 197,0 357,157 361,354 0,225 -270,250 -270,447z"/>
   <path class="fil0" d="M5191 3001l-134 0 0 -132 134 0 0 132zm-2 -200l-130 0c0,-206 196,-194 196,-325 -1,-71 -59,-129 -130,-129 -1,0 -1,0 -1,0 -72,2 -130,60 -131,132l-130 0c0,-1 0,-1 0,-1 0,-145 117,-262 261,-262 144,0 261,117 261,260 0,163 -196,182 -196,325z"/>
   <path class="fil0" d="M7492 3188l-77 0 0 -75 77 0 0 75zm-2 -113l-74 0c0,-117 111,-110 111,-184 0,0 0,0 0,0 0,-40 -33,-72 -73,-72 0,0 -1,0 -1,0 -40,0 -73,33 -74,74l-74 0c2,-80 68,-145 148,-145 80,0 145,64 148,144 0,91 -111,102 -111,183z"/>
   <path class="fil0" d="M8656 6599l-76 0 0 -75 76 0 0 75zm-1 -113l-74 0c0,-117 111,-110 111,-183 -1,-41 -33,-73 -74,-73 0,0 0,0 0,0 -41,0 -74,33 -74,74l-74 0c2,-80 67,-144 148,-144 80,0 145,63 147,143 1,92 -110,102 -110,183l0 0z"/>
  </g>
 </g>
</svg>
