<svg xmlns="http://www.w3.org/2000/svg" viewBox="0 0 644.61 362.38"><defs><style>.cls-1{fill:#36a7ff}.cls-2{fill:#263238}.cls-3{fill:#194d75}.cls-4{fill:#fafafa}.cls-6{fill:#455a64}.cls-7{fill:#eb996e}.cls-8{fill:#ffbe9d}.cls-9{fill:#aa6550}.cls-11{fill:#b78876}.cls-12{fill:#995037}.cls-13{fill:#e8505b}.cls-14{fill:#ebebeb}.cls-16{fill:#e07646}.cls-17{fill:#b77153}</style></defs><g id="Plant"><path class="cls-1" d="M46.2 192.5c.21 2.48-2.36 3.73-4.14 3.59a10.21 10.21 0 01-4.82-2.18c-3.38-2.3-6.88-4.74-8.79-8.35a6.69 6.69 0 01-.91-3.5 3.51 3.51 0 011.85-3c1.31-.61 2.85-.11 4.16.49a28.84 28.84 0 0110.05 7.67 9.91 9.91 0 012.6 5.24m.25 11.76A12.42 12.42 0 0040 208.4a6.39 6.39 0 00-1.83 3.72 2.72 2.72 0 002.38 2.93 3.6 3.6 0 002.19-1.05c1.54-1.31 3-3 5.07-3.11 1.15-.06 2.36.44 3.43 0a2.63 2.63 0 001.39-2.82 4.41 4.41 0 00-1.85-2.74 5.06 5.06 0 00-4.33-1.11zm4.63-11.97a7.43 7.43 0 01-5.24-4.51 13.11 13.11 0 01-.63-7.08 21.77 21.77 0 012.83-7.9 7.75 7.75 0 012.15-2.5 3.43 3.43 0 013.16-.48c1.51.63 2.07 2.45 2.38 4.06a54 54 0 011 8.6 12.84 12.84 0 01-1.16 6.78c-1.14 2-2.93 3.38-4.78 3" transform="translate(-27.53 -73.81)"/><path class="cls-2" d="M65.89 216.07a4.75 4.75 0 01-.69-.63l-1.8-1.79c-.77-.74-1.7-1.61-2.81-2.49a29.72 29.72 0 00-3.82-2.5 16.64 16.64 0 00-4.24-1.66 8.53 8.53 0 00-3.67 0 7.9 7.9 0 00-2.3 1 4.78 4.78 0 01-.8.49 4.8 4.8 0 01.71-.61 7.18 7.18 0 012.32-1.09 8.27 8.27 0 013.8-.08 15.64 15.64 0 014.41 1.62 26.11 26.11 0 013.86 2.56 32 32 0 012.78 2.57c.74.77 1.32 1.42 1.72 1.87a4.45 4.45 0 01.53.74z" transform="translate(-27.53 -73.81)"/><path class="cls-2" d="M64.51 214.68a1.76 1.76 0 01-.29-.31l-.78-1c-.68-.82-1.66-2-2.92-3.43-2.51-2.87-6.12-6.71-10.29-10.75s-8.15-7.49-11.13-9.87c-.73-.6-1.41-1.13-2-1.59s-1.12-.86-1.55-1.17-.73-.54-1-.74a1.61 1.61 0 01-.33-.27s.13.06.37.21l1 .68c.44.29 1 .67 1.58 1.12s1.31 1 2.06 1.55A138 138 0 0150.49 199c4.19 4.05 7.77 7.92 10.23 10.84 1.24 1.45 2.19 2.67 2.84 3.52l.72 1a1.88 1.88 0 01.23.32z" transform="translate(-27.53 -73.81)"/><path class="cls-2" d="M58 206.88a9.08 9.08 0 01-.81-1c-.49-.67-1.16-1.66-1.92-2.93a44.23 44.23 0 01-2.36-4.61 46.22 46.22 0 01-2.2-6A32.09 32.09 0 0149.32 181a14.81 14.81 0 01.25-2c0-.29.09-.56.15-.8s.12-.46.18-.67a9.63 9.63 0 01.39-1.22 40.16 40.16 0 00-.71 4.69 33.76 33.76 0 001.5 11.29 48.83 48.83 0 002.15 5.92 50.23 50.23 0 002.28 4.63c.72 1.28 1.35 2.28 1.8 3a7.34 7.34 0 01.69 1.04z" transform="translate(-27.53 -73.81)"/><path class="cls-1" d="M428 292.11a8 8 0 011.7 6 14.08 14.08 0 01-2.25 6c-2.21 3.52-6.12 6.26-9.82 8.14-1.82-4.24-.25-9.35.71-11.89 1.51-4 6.69-10.37 9.66-8.23m-9.69 27.98a6.82 6.82 0 014.79-4.89 9.08 9.08 0 016.93 1 3.81 3.81 0 012.07 2.45 2.93 2.93 0 01-1.24 2.69 5.82 5.82 0 01-2.9 1c-3.53.4-7 .14-9.65-2.25" transform="translate(-27.53 -73.81)"/><path class="cls-2" d="M408.83 329.58a4.29 4.29 0 01.48-.71l1.36-1.88a24 24 0 015.3-5.57 14.67 14.67 0 017.15-2.76 9.82 9.82 0 012.34.07c.27 0 .48.1.62.13s.22.05.21.06a16.25 16.25 0 00-3.15-.05 15.16 15.16 0 00-7 2.79 25.87 25.87 0 00-5.3 5.46c-.6.77-1.09 1.4-1.44 1.82a4.84 4.84 0 01-.57.64z" transform="translate(-27.53 -73.81)"/><path class="cls-2" d="M424.47 297.29a1.7 1.7 0 01-.12.35l-.4 1c-.36.86-.89 2.09-1.55 3.6-1.34 3-3.24 7.18-5.44 11.72s-4.29 8.6-5.84 11.52c-.78 1.46-1.41 2.63-1.87 3.44-.21.38-.38.69-.52.93a1.28 1.28 0 01-.2.31 1.64 1.64 0 01.15-.34l.47-.95 1.78-3.49c1.5-2.94 3.56-7 5.76-11.56s4.13-8.67 5.51-11.67l1.64-3.55.46-1a1.41 1.41 0 01.17-.31z" transform="translate(-27.53 -73.81)"/><path class="cls-1" d="M411.81 319.77a16 16 0 00-2.79-14.3c-.81-1-2-2-3.25-1.62s-1.72 1.86-1.81 3.14a13.61 13.61 0 007.63 13.01" transform="translate(-27.53 -73.81)"/><path class="cls-2" d="M407.83 309.24a4.83 4.83 0 01.53.61 7.25 7.25 0 01.55.76 11.63 11.63 0 01.67 1.06 11.26 11.26 0 01.7 1.35 16.3 16.3 0 01.66 1.61 17.45 17.45 0 01.84 3.9 16.94 16.94 0 01-.12 4 15.32 15.32 0 01-.37 1.7 11.8 11.8 0 01-.46 1.45 10.74 10.74 0 01-.49 1.15 7.16 7.16 0 01-.43.84 3.86 3.86 0 01-.43.68c-.06 0 .54-1 1.15-2.74a13.88 13.88 0 00.42-1.44 15.57 15.57 0 00.34-1.68 17.06 17.06 0 00-.72-7.77c-.2-.57-.39-1.11-.62-1.6s-.44-.94-.65-1.35c-.89-1.61-1.62-2.49-1.57-2.53z" transform="translate(-27.53 -73.81)"/></g><g id="Speech_Bubbles" data-name="Speech Bubbles"><path class="cls-2" d="M124.57 300.86a1.5 1.5 0 101.5-1.5 1.5 1.5 0 00-1.5 1.5zm-5.98 0a1.5 1.5 0 101.5-1.5 1.5 1.5 0 00-1.5 1.5zm-5.96-.75a1.49 1.49 0 102-.55 1.49 1.49 0 00-2 .55z" transform="translate(-27.53 -73.81)"/><path class="cls-2" d="M120 283.4a1.4 1.4 0 01-.3 0l-.88.06-.65.05-.78.13-.9.15-1 .27a16.63 16.63 0 00-4.87 2.19 17.3 17.3 0 00-7.82 13 18.36 18.36 0 000 2.35c0 .39 0 .8.08 1.2s.12.8.19 1.2a17.2 17.2 0 001.64 4.77 18.29 18.29 0 003.13 4.28 17.79 17.79 0 004.49 3.21 16.14 16.14 0 005.46 1.67 10.16 10.16 0 001.46.13 12 12 0 001.47 0 17.15 17.15 0 008.82-2.84l.09-.06h.09l6.12 2.46-.26.23c-.61-2.24-1.21-4.43-1.78-6.54v-.09l.06-.07a17.41 17.41 0 003.22-7.31 15.49 15.49 0 00.25-3.76 11.81 11.81 0 00-.17-1.8c0-.3-.08-.59-.13-.88s-.14-.57-.2-.86a17.4 17.4 0 00-13.92-12.9c-.46-.07-.86-.16-1.21-.19l-.89-.06h-.55a.52.52 0 01-.19 0h1.64c.35 0 .76.1 1.22.16.23 0 .48.06.73.11l.8.19.87.22.91.33a16.79 16.79 0 014.07 2.15 17.48 17.48 0 016.82 9.95c.07.28.16.57.22.86s.09.6.14.9a13.82 13.82 0 01.17 1.84 16.08 16.08 0 01-.24 3.83 17.55 17.55 0 01-3.26 7.47v-.16c.58 2.11 1.18 4.3 1.8 6.54l.1.38-.36-.15-6.12-2.45h.18a17.83 17.83 0 01-6 2.53 18.22 18.22 0 01-3 .38h-1.51a10.57 10.57 0 01-1.49-.13 16.61 16.61 0 01-5.59-1.71 18.56 18.56 0 01-4.58-3.29 18.75 18.75 0 01-3.18-4.38 17.58 17.58 0 01-1.67-4.87l-.18-1.24c-.06-.4 0-.82-.08-1.22a17.24 17.24 0 010-2.39 17.42 17.42 0 018-13.13 16.63 16.63 0 015-2.16l1-.26.92-.13.78-.11h1.54zM569.07 91.27a1.5 1.5 0 101.49-1.49 1.5 1.5 0 00-1.49 1.49zm-5.98 0a1.5 1.5 0 101.49-1.49 1.5 1.5 0 00-1.49 1.49zm-5.97-.74a1.49 1.49 0 102-.55 1.5 1.5 0 00-2 .55z" transform="translate(-27.53 -73.81)"/><path class="cls-2" d="M564.49 73.82a1.4 1.4 0 01-.3 0l-.88.06h-.65l-.78.13-.9.14-1 .27a16.69 16.69 0 00-4.87 2.2 17.51 17.51 0 00-5 5 17.72 17.72 0 00-2.81 8 20.4 20.4 0 000 2.35c0 .4 0 .8.09 1.2l.18 1.21a17.56 17.56 0 001.65 4.77 18.48 18.48 0 003.12 4.27 18.19 18.19 0 004.49 3.22 16.42 16.42 0 005.47 1.67 11.49 11.49 0 001.45.12 14.56 14.56 0 001.48 0 17.45 17.45 0 008.82-2.84l.09-.06h.09l6.12 2.46-.26.23q-.91-3.37-1.79-6.54v-.17a17.11 17.11 0 003.22-7.31 15.41 15.41 0 00.25-3.75 11.94 11.94 0 00-.16-1.81c0-.29-.09-.59-.13-.88s-.14-.57-.21-.85A17.41 17.41 0 00567.36 74c-.46-.06-.86-.15-1.21-.18l-.9-.06h-.73 1.63c.36 0 .77.09 1.23.15.23 0 .48.06.73.11l.8.2.86.22.92.33a16.5 16.5 0 014.03 2.23 17.51 17.51 0 016.83 10c.07.29.16.57.21.87s.1.59.14.89a12.47 12.47 0 01.18 1.84 16.59 16.59 0 01-.24 3.83 17.61 17.61 0 01-3.27 7.48v-.16l1.8 6.54.11.37-.37-.14L574 106h.19a17.51 17.51 0 01-6 2.53 17.21 17.21 0 01-3 .38 12.51 12.51 0 01-1.5 0 10.45 10.45 0 01-1.49-.13 16.63 16.63 0 01-5.6-1.78 18.29 18.29 0 01-4.59-3.29 18.91 18.91 0 01-3.18-4.38 17.44 17.44 0 01-1.66-4.87c-.06-.41-.13-.82-.19-1.23s-.05-.82-.08-1.22a19.11 19.11 0 01.05-2.4 17.93 17.93 0 012.91-8.14 17.59 17.59 0 015.12-5 16.41 16.41 0 014.95-2.16l1-.25.91-.13.79-.11h1.54zM546.27 323a2 2 0 102-2 2 2 0 00-2 2zm-7.85 0a2 2 0 102-2 2 2 0 00-2 2zm-7.82-1a2 2 0 102.68-.72 2 2 0 00-2.68.72z" transform="translate(-27.53 -73.81)"/><path class="cls-2" d="M540.26 300.06a1.69 1.69 0 01-.39.05l-1.16.08c-.26 0-.54 0-.85.07l-1 .17-1.19.19-1.32.35a22 22 0 00-6.39 2.88 22.71 22.71 0 00-10.25 17 24.27 24.27 0 00-.05 3.08c0 .52 0 1.05.11 1.57l.24 1.59a22.65 22.65 0 002.16 6.25 24.45 24.45 0 004.1 5.61 23.91 23.91 0 005.89 4.22 21.37 21.37 0 007.17 2.19 15.06 15.06 0 001.91.16 17.72 17.72 0 001.93 0 22.15 22.15 0 003.87-.49 22.67 22.67 0 007.7-3.23l.12-.08.12.05 8 3.23-.34.3c-.8-2.94-1.58-5.81-2.34-8.58v-.12l.07-.09a22.76 22.76 0 004.23-9.59 20.62 20.62 0 00.32-4.93 15.47 15.47 0 00-.21-2.37c-.06-.38-.12-.77-.17-1.15s-.19-.75-.27-1.12A22.83 22.83 0 00544 300.47c-.6-.08-1.13-.2-1.6-.24l-1.17-.08h-.96 2.15c.46 0 1 .13 1.6.21.31 0 .63.08 1 .14l1 .26 1.14.29 1.2.43a21.73 21.73 0 015.33 2.81 22.91 22.91 0 019 13.05c.09.38.21.75.28 1.14l.18 1.17a17.56 17.56 0 01.23 2.41 21.47 21.47 0 01-.31 5 23 23 0 01-4.29 9.8v-.21c.77 2.77 1.55 5.64 2.36 8.58l.14.49-.48-.19-8-3.22h.24a23.14 23.14 0 01-11.84 3.81 18.69 18.69 0 01-2 0 14.12 14.12 0 01-2-.17 21.88 21.88 0 01-7.33-2.25 24 24 0 01-6-4.32 24.66 24.66 0 01-4.17-5.74 23 23 0 01-2.19-6.39l-.24-1.62c-.08-.53-.07-1.07-.1-1.6a22.57 22.57 0 013.87-13.82 23.11 23.11 0 016.71-6.54 21.74 21.74 0 016.5-2.83l1.34-.34 1.2-.17 1-.14h2.03z" transform="translate(-27.53 -73.81)"/></g><g id="Locators"><path class="cls-3" d="M235.31 349.5a2.74 2.74 0 004.83-.18l6.67-13.88c2.42-5.45 2.34-8.5 2.34-8.5 0-8.41-8.7-13.8-17.72-9.76a10.1 10.1 0 00-4.39 3.65c-3 4.62-2.06 10.12.14 14.63zm5.54-15.32c-6.55 3.77-13.14-3.29-9.52-10.21a5.42 5.42 0 012.08-2.19c6.56-3.77 13.15 3.29 9.53 10.21a5.38 5.38 0 01-2.09 2.19zm285.8-191.83a2.73 2.73 0 004.83-.18l6.67-13.87c2.42-5.46 2.34-8.51 2.34-8.51 0-8.4-8.7-13.79-17.72-9.75a10 10 0 00-4.39 3.64c-3 4.62-2.06 10.12.14 14.63zm5.54-15.35c-6.55 3.77-13.14-3.29-9.52-10.21a5.42 5.42 0 012.08-2.19c6.56-3.77 13.15 3.3 9.53 10.21a5.38 5.38 0 01-2.09 2.19zM652 379.6a2.74 2.74 0 004.83-.18l6.68-13.87c2.42-5.46 2.34-8.51 2.34-8.51 0-8.41-8.7-13.8-17.73-9.76a10.21 10.21 0 00-4.39 3.65c-3 4.62-2 10.12.15 14.63zm5.55-15.32c-6.56 3.77-13.15-3.29-9.53-10.21a5.51 5.51 0 012.09-2.19c6.56-3.77 13.15 3.29 9.53 10.21a5.45 5.45 0 01-2.05 2.19zM133.74 181.51a2.73 2.73 0 004.83-.19l6.67-13.87c2.42-5.46 2.34-8.51 2.34-8.51 0-8.4-8.7-13.79-17.72-9.75a10.07 10.07 0 00-4.39 3.64c-3 4.62-2.06 10.12.14 14.64zm5.54-15.32c-6.55 3.76-13.14-3.3-9.52-10.21a5.51 5.51 0 012.08-2.2c6.56-3.76 13.15 3.3 9.53 10.22a5.38 5.38 0 01-2.09 2.19zM235 304.91c.14 0 .1.71-.09 1.52s-.46 1.44-.6 1.4-.1-.72.09-1.52.42-1.43.6-1.4zm1.76-11.91a8.58 8.58 0 01-.1 3 8.78 8.78 0 01-.61 2.95 17.67 17.67 0 01.71-6zm.32-12a8.85 8.85 0 01.27 3 8.94 8.94 0 01-.24 3 8.71 8.71 0 01-.28-3 9 9 0 01.25-3zm-1.14-11.93a8.78 8.78 0 01.63 2.95 9 9 0 01.12 3 17.71 17.71 0 01-.75-6zm-2.55-11.74a9.17 9.17 0 011 2.85 8.77 8.77 0 01.48 3 17.28 17.28 0 01-1.45-5.83zM229.44 246a9.12 9.12 0 011.32 2.72 8.65 8.65 0 01.82 2.9 9.29 9.29 0 01-1.31-2.72 9 9 0 01-.83-2.9zm-5.29-10.8a18 18 0 012.81 5.31 9.07 9.07 0 01-1.64-2.53 8.71 8.71 0 01-1.17-2.78zm-6.61-10.02a7.65 7.65 0 012 2.29 9 9 0 011.51 2.62 8.8 8.8 0 01-1.93-2.32 10.23 10.23 0 01-1.58-2.59zm-7.71-9.18a17.35 17.35 0 014 4.51 8.86 8.86 0 01-2.18-2.09 8.62 8.62 0 01-1.82-2.42zm-8.52-8.5a17.58 17.58 0 014.35 4.14 8.73 8.73 0 01-2.36-1.88 8.63 8.63 0 01-1.99-2.26zm-9.2-7.73a17.49 17.49 0 014.68 3.77 8.73 8.73 0 01-2.51-1.68c-1.28-1.04-2.28-1.97-2.17-2.09zm-9.81-6.93a17.44 17.44 0 015 3.36 17.62 17.62 0 01-5-3.36zm-10.41-6.02a8.94 8.94 0 012.77 1.21 9 9 0 012.51 1.67 17.56 17.56 0 01-5.28-2.88zM160.91 182a8.59 8.59 0 012.88.89 8.82 8.82 0 012.68 1.38 17.17 17.17 0 01-5.56-2.27zm-11.53-3.42a8.77 8.77 0 013 .48 9.2 9.2 0 012.85 1 8.72 8.72 0 01-3-.48 9 9 0 01-2.85-1z" transform="translate(-27.53 -73.81)"/><path class="cls-3" d="M140.47 177.37c0-.14.69-.2 1.51-.13s1.49.24 1.48.39-.7.2-1.52.13-1.48-.25-1.47-.39z" transform="translate(-27.53 -73.81)"/><path class="cls-3" d="M142.44 175.11c.1.09-.25.68-.79 1.3s-1.07 1.05-1.18 1 .24-.68.79-1.3 1.07-1.11 1.18-1zm8.44-8.34a8.88 8.88 0 01-2 2.22 8.76 8.76 0 01-2.35 1.83 8.42 8.42 0 012-2.22 8.68 8.68 0 012.35-1.83zm9.34-7.31a8.72 8.72 0 01-2.23 2 9 9 0 01-2.54 1.55 8.57 8.57 0 012.23-2 8.88 8.88 0 012.54-1.55zm10.07-6.27a8.87 8.87 0 01-2.43 1.73 8.71 8.71 0 01-2.69 1.28 8.53 8.53 0 012.43-1.73 8.82 8.82 0 012.69-1.28zm10.62-5.26a17.2 17.2 0 01-5.37 2.51 8.43 8.43 0 012.57-1.49 8.85 8.85 0 012.8-1.02zm11.09-4.3a8.71 8.71 0 01-2.7 1.27 8.85 8.85 0 01-2.88.77 8.53 8.53 0 012.7-1.26 8.72 8.72 0 012.88-.78zm11.33-3.39a8.59 8.59 0 01-2.79 1 8.77 8.77 0 01-2.92.54 8.36 8.36 0 012.79-1.05 8.84 8.84 0 012.92-.49zm11.59-2.54a8.59 8.59 0 01-2.85.84 8.81 8.81 0 01-3 .33A8.39 8.39 0 01212 138a8.82 8.82 0 012.92-.3zm11.74-1.7a8.86 8.86 0 01-2.91.64 8.56 8.56 0 01-3 .13 17.17 17.17 0 015.88-.77zm11.82-1a8.92 8.92 0 01-2.94.45 8.55 8.55 0 01-3-.06 9 9 0 012.95-.45 8.16 8.16 0 012.99.06zm11.87-.28a17.09 17.09 0 01-5.94 0 17.09 17.09 0 015.94 0zm11.85.45a8.56 8.56 0 01-3 .11 8.81 8.81 0 01-3-.42 17.34 17.34 0 015.92.31zm11.8 1.16a8.64 8.64 0 01-3-.08 8.36 8.36 0 01-2.92-.59 8.62 8.62 0 013 .08 8.36 8.36 0 012.92.59zm11.73 1.85a8.73 8.73 0 01-3-.25 8.27 8.27 0 01-2.87-.77 8.85 8.85 0 013 .26 8.68 8.68 0 012.87.76zm11.59 2.58a9.4 9.4 0 01-2.95-.44 8.83 8.83 0 01-2.83-.94 8.59 8.59 0 012.95.43 8.08 8.08 0 012.83.95zm11.35 3.45a8.43 8.43 0 01-2.9-.67 8.79 8.79 0 01-2.74-1.18 8.68 8.68 0 012.9.68 8.92 8.92 0 012.74 1.17zm11.01 4.42a8.94 8.94 0 01-2.84-.93 8.42 8.42 0 01-2.62-1.4 8.82 8.82 0 012.83.92 8.54 8.54 0 012.63 1.41zm10.6 5.31a8.82 8.82 0 01-2.74-1.15 8.91 8.91 0 01-2.51-1.62 17.24 17.24 0 015.25 2.77zm10.14 6.15a8.87 8.87 0 01-2.64-1.37 9 9 0 01-2.37-1.81 16.84 16.84 0 015 3.18zm9.63 6.91a8.54 8.54 0 01-2.53-1.57 8.69 8.69 0 01-2.22-2 8.67 8.67 0 012.53 1.57 8.9 8.9 0 012.22 2zm9.06 7.69a9 9 0 01-2.4-1.77 8.82 8.82 0 01-2.06-2.15 8.53 8.53 0 012.4 1.76c1.23 1.09 2.16 2.05 2.06 2.16zm8.44 8.31a16.73 16.73 0 01-4.14-4.25 8.8 8.8 0 012.26 1.95 8.93 8.93 0 011.88 2.3zm7.78 9c-.12.09-1.06-.85-2.1-2.11a9 9 0 01-1.71-2.44c.11-.1 1.05.85 2.11 2.11a8.75 8.75 0 011.7 2.44zm7.06 9.52a8.65 8.65 0 01-1.93-2.27 8.48 8.48 0 01-1.51-2.57 17.21 17.21 0 013.44 4.84zm6.3 10.06a8.63 8.63 0 01-1.75-2.41 8.9 8.9 0 01-1.3-2.68 8.7 8.7 0 011.75 2.41 8.9 8.9 0 011.3 2.68zm5.48 10.52a8.64 8.64 0 01-1.55-2.54 9 9 0 01-1.09-2.77 8.31 8.31 0 011.55 2.54 8.73 8.73 0 011.09 2.77zm4.59 10.9a17.13 17.13 0 01-2.18-5.51 8.5 8.5 0 011.33 2.66 8.3 8.3 0 01.85 2.85zm3.67 11.31a8.8 8.8 0 01-1.1-2.77 8.41 8.41 0 01-.61-2.91 16.59 16.59 0 011.71 5.68zm2.13 8.69c-.14 0-.4-.6-.58-1.41s-.2-1.48-.06-1.52.39.6.57 1.41.21 1.52.07 1.52zm5.8-10.63c.14 0 .09.71-.11 1.51s-.48 1.43-.62 1.39-.09-.71.11-1.51.48-1.43.62-1.39zm3.29-11.98a18.59 18.59 0 01-1.7 6 9.43 9.43 0 01.6-3.05 9.81 9.81 0 011.1-2.95zm3.83-11.81a9.67 9.67 0 01-.75 3 9.31 9.31 0 01-1.24 2.85 9.43 9.43 0 01.75-3 9.3 9.3 0 011.24-2.85zM422 207a9.56 9.56 0 01-.94 3 9.37 9.37 0 01-1.42 2.78A18.84 18.84 0 01422 207zm5.39-11.15a9.42 9.42 0 01-1.17 2.88 9.58 9.58 0 01-1.64 2.65 9.73 9.73 0 011.17-2.89 9.5 9.5 0 011.64-2.64zm6.41-10.62a18.78 18.78 0 01-3.34 5.23 9.6 9.6 0 011.45-2.76 9.9 9.9 0 011.89-2.47zm7.53-9.86a9.31 9.31 0 01-1.75 2.57 9.46 9.46 0 01-2.15 2.25 9.2 9.2 0 011.75-2.57 9.42 9.42 0 012.15-2.25zm8.67-8.89a9.48 9.48 0 01-2 2.34 9.33 9.33 0 01-2.42 2 9.6 9.6 0 012.05-2.34 9.42 9.42 0 012.37-2zm9.66-7.77a18.4 18.4 0 01-5 3.74 9.54 9.54 0 012.33-2.08 9.81 9.81 0 012.67-1.66zm10.57-6.47a9.31 9.31 0 01-2.57 1.75 9.49 9.49 0 01-2.82 1.31 9.07 9.07 0 012.57-1.76 9.23 9.23 0 012.82-1.3zm11.26-5.24a8.94 8.94 0 01-2.74 1.47 9.44 9.44 0 01-2.95 1 9.29 9.29 0 012.74-1.47 9.61 9.61 0 012.95-1zm11.74-4a9.64 9.64 0 01-2.88 1.18 9.8 9.8 0 01-3 .68 9.08 9.08 0 012.88-1.18 9.2 9.2 0 013-.68zm12.13-2.58a9.55 9.55 0 01-3 .8 9.72 9.72 0 01-3.1.28 18.37 18.37 0 016.11-1.08zm12.39-.36a12.72 12.72 0 01-3.11.06 11.34 11.34 0 01-3.09-.25 8 8 0 013.11-.27 7.77 7.77 0 013.09.46zm8.9 2.29c-.06.13-.73 0-1.49-.29s-1.35-.65-1.31-.79.71 0 1.49.3 1.37.65 1.31.78zM408.38 259.17c.06.14-.52.55-1.29.91s-1.44.54-1.5.39.51-.55 1.29-.91 1.44-.56 1.5-.39zm11.54-4.78a9 9 0 01-2.81 1.41 8.56 8.56 0 01-3 .87 9.3 9.3 0 012.82-1.4 9.09 9.09 0 012.99-.88zm11.82-3.91a17.21 17.21 0 01-5.94 1.85 17.81 17.81 0 015.94-1.85zm12.04-3.04a9 9 0 01-3 1 8.73 8.73 0 01-3.07.43 8.8 8.8 0 013-1 8.52 8.52 0 013.07-.43zm12.22-2.19a8.65 8.65 0 01-3 .77 9 9 0 01-3.1.22 16.84 16.84 0 016.12-1zm12.29-1.32a9.12 9.12 0 01-3.06.56 8.54 8.54 0 01-3.1 0 8.44 8.44 0 013.06-.56 8.54 8.54 0 013.1 0zm12.37-.47a8.42 8.42 0 01-3.08.35 9 9 0 01-3.1-.22 8.61 8.61 0 013.09-.35 8.92 8.92 0 013.09.22zm12.34.41a17.57 17.57 0 01-6.19-.31 17 17 0 016.19.31zm12.36 1.26a9 9 0 01-3.11-.09 8.8 8.8 0 01-3-.65 8.39 8.39 0 013.1.09 8.56 8.56 0 013.01.65zm12.21 2.13a8.93 8.93 0 01-3.09-.31 8.6 8.6 0 01-3-.87 8.93 8.93 0 013.09.31 8.42 8.42 0 013 .87zm12.06 2.98a8.44 8.44 0 01-3.07-.52 9 9 0 01-2.94-1.08 8.89 8.89 0 013.07.53 9 9 0 012.94 1.07zm11.83 3.86a8.74 8.74 0 01-3-.75 9 9 0 01-2.87-1.29 8.81 8.81 0 013 .75 8.72 8.72 0 012.87 1.29zm11.54 4.71a8.76 8.76 0 01-3-1 9.39 9.39 0 01-2.77-1.49 8.5 8.5 0 013 1 9.07 9.07 0 012.77 1.49zm11.25 5.57a8.91 8.91 0 01-2.9-1.19 9.25 9.25 0 01-2.67-1.7 8.91 8.91 0 012.9 1.19 9.14 9.14 0 012.67 1.7zm10.84 6.39a8.84 8.84 0 01-2.81-1.4 9.48 9.48 0 01-2.56-1.89 8.94 8.94 0 012.82 1.4 9.36 9.36 0 012.55 1.89zm10.41 7.17a9.21 9.21 0 01-2.72-1.61 9.48 9.48 0 01-2.43-2.07 9.17 9.17 0 012.72 1.6 9.62 9.62 0 012.43 2.08zm9.93 7.89a9.27 9.27 0 01-2.61-1.79 9.58 9.58 0 01-2.29-2.25 9.5 9.5 0 012.61 1.8c1.36 1.11 2.39 2.12 2.29 2.24zm9.44 8.58a9.24 9.24 0 01-2.5-2 9.72 9.72 0 01-2.15-2.4 9.33 9.33 0 012.5 2 9.72 9.72 0 012.15 2.4zm8.89 9.23a18.87 18.87 0 01-4.38-4.7 9.3 9.3 0 012.38 2.15 9.7 9.7 0 012 2.55zm8.31 9.82a9.75 9.75 0 01-2.24-2.3 10.26 10.26 0 01-1.84-2.68c.11-.11 1.11.92 2.24 2.3a9.69 9.69 0 011.84 2.68zm7.7 10.39a10.07 10.07 0 01-2.09-2.46 10.3 10.3 0 01-1.68-2.8 9.58 9.58 0 012.1 2.45 9.93 9.93 0 011.67 2.81zm7.05 10.9a10.07 10.07 0 01-1.94-2.6 10.32 10.32 0 01-1.5-2.91 9.69 9.69 0 011.94 2.59 10 10 0 011.5 2.92zm6.36 11.37a10.15 10.15 0 01-1.77-2.73 10.63 10.63 0 01-1.32-3 9.84 9.84 0 011.78 2.73 10.22 10.22 0 011.31 3zm5.64 11.8a10.05 10.05 0 01-1.6-2.85 10.38 10.38 0 01-1.12-3.1 10.15 10.15 0 011.6 2.85 10.48 10.48 0 011.12 3.1zm4.88 12.18a10.13 10.13 0 01-1.42-3 10.38 10.38 0 01-.92-3.17 10.4 10.4 0 011.41 3 10.74 10.74 0 01.93 3.17zm3.11 9.31c-.14 0-.47-.6-.74-1.45s-.37-1.59-.24-1.64.47.6.74 1.46.43 1.59.24 1.63zm-396.37-53.35c.13 0 0 .72-.22 1.5s-.57 1.39-.7 1.35 0-.71.21-1.51.57-1.4.71-1.34zm4.42-10.94a16.89 16.89 0 01-2.37 5.4 8.64 8.64 0 01.95-2.8 8.43 8.43 0 011.42-2.6zm5.63-10.36a8.65 8.65 0 01-1.26 2.68 8.35 8.35 0 01-1.7 2.42 8.31 8.31 0 011.25-2.68 8.52 8.52 0 011.71-2.42zm6.74-9.69a8.82 8.82 0 01-1.54 2.53 8.7 8.7 0 01-2 2.22 8.56 8.56 0 011.54-2.53 8.7 8.7 0 012-2.22zm7.77-8.89a17.21 17.21 0 01-4 4.34 16.77 16.77 0 014-4.34zm8.66-8a8.4 8.4 0 01-2.05 2.13 8.91 8.91 0 01-2.39 1.75c-.1-.11.82-1.06 2-2.14a8.64 8.64 0 012.44-1.74zm9.51-6.99a8.9 8.9 0 01-2.28 1.89 8.73 8.73 0 01-2.57 1.47 8.27 8.27 0 012.27-1.9 8.52 8.52 0 012.58-1.46zm10.23-5.88a8.74 8.74 0 01-2.48 1.63 8.34 8.34 0 01-2.72 1.16 8.39 8.39 0 012.47-1.62 8.6 8.6 0 012.73-1.17zm10.84-4.64a8.67 8.67 0 01-2.65 1.32 8.54 8.54 0 01-2.84.84 8.63 8.63 0 012.65-1.32 8.39 8.39 0 012.84-.84zm11.3-3.37a8.68 8.68 0 01-2.78 1 8.56 8.56 0 01-2.92.51 8.83 8.83 0 012.78-1 8.62 8.62 0 012.92-.51zm11.61-2.09a8.85 8.85 0 01-2.88.7 8.66 8.66 0 01-2.95.18 8.67 8.67 0 012.88-.7 8.37 8.37 0 012.95-.18zm11.78-.81a8.92 8.92 0 01-2.94.38 8.6 8.6 0 01-3-.14 8.73 8.73 0 012.94-.38 8.29 8.29 0 013 .14zm11.79.47a8.7 8.7 0 01-3 .06 8.39 8.39 0 01-2.93-.46 16.86 16.86 0 015.89.4zm11.67 1.76a16.64 16.64 0 01-5.81-1 8.79 8.79 0 012.95.26 8.57 8.57 0 012.86.74zm11.39 3.05a16.49 16.49 0 01-5.65-1.69 8.83 8.83 0 012.9.6 8.17 8.17 0 012.75 1.09zm8.32 3.15c-.06.13-.73 0-1.49-.33s-1.34-.68-1.29-.82.72 0 1.49.33 1.34.69 1.29.82z" transform="translate(-27.53 -73.81)"/><path class="cls-3" d="M401.37 275.25a2.73 2.73 0 004.82-.19l6.68-13.87c2.42-5.46 2.34-8.51 2.34-8.51 0-8.4-8.7-13.79-17.73-9.75a10.19 10.19 0 00-4.39 3.64c-3 4.62-2 10.12.15 14.64zm5.54-15.32c-6.56 3.76-13.15-3.3-9.53-10.21a5.61 5.61 0 012.09-2.2c6.56-3.76 13.15 3.3 9.53 10.22a5.38 5.38 0 01-2.09 2.19z" transform="translate(-27.53 -73.81)"/></g><g id="Character_5" data-name="Character 5"><path class="cls-4" d="M578 142.69l3.59 10a50.91 50.91 0 106.66-6.58z" transform="translate(-27.53 -73.81)"/><path class="cls-2" d="M578 142.69l10.3 3.31h-.08a50.24 50.24 0 018.61-5.75 52.49 52.49 0 015.86-2.65c1.06-.42 2.21-.69 3.35-1.06a27.13 27.13 0 013.57-1l3.82-.75 4-.39 1-.1h5.39l2.21.23a51.06 51.06 0 0118.31 5.49A51.73 51.73 0 01661 153.73l.9 1.09.8 1.18 1.61 2.38.41.59.34.64.7 1.28 1.39 2.57 1.14 2.73.58 1.38a9.33 9.33 0 01.51 1.4c.29.95.59 1.92.88 2.88l.44 1.45c.12.49.2 1 .3 1.49.2 1 .39 2 .59 3a8.67 8.67 0 01.21 1.53l.15 1.54c.07 1 .23 2.06.24 3.1s0 2.09 0 3.14v1.58l-.16 1.57c-.11 1.05-.22 2.11-.34 3.17s-.42 2.09-.62 3.14l-.33 1.58c-.1.53-.3 1-.45 1.55-.31 1-.63 2.07-1 3.11s-.82 2-1.22 3a53.87 53.87 0 01-2.92 5.9c-.55 1-1.21 1.86-1.81 2.8l-.92 1.39c-.3.47-.69.87-1 1.32-.7.86-1.41 1.73-2.11 2.61s-1.57 1.61-2.35 2.42l-1.19 1.21c-.41.38-.86.72-1.29 1.09l-2.59 2.16c-.91.65-1.85 1.26-2.77 1.89l-1.38.94c-.47.3-1 .54-1.45.81L643.3 232c-1 .5-2 .87-3 1.31a46 46 0 01-6.18 2.11 24 24 0 01-3.15.73c-1.05.2-2.1.43-3.16.59l-3.18.3-1.58.14h-4.73c-1 0-2.07-.19-3.1-.28l-1.55-.17-.77-.08-.75-.16-3-.61a24.53 24.53 0 01-2.94-.8l-2.89-.89-2.8-1.19a23.36 23.36 0 01-2.69-1.23 44 44 0 01-5.06-2.91l-2.4-1.59c-.75-.58-1.48-1.19-2.22-1.78a50.94 50.94 0 01-13.36-16.74 57.12 57.12 0 01-3.58-9.26c-.37-1.56-.81-3.08-1-4.62-.13-.77-.3-1.52-.38-2.28l-.24-2.26a51 51 0 011.24-16.48 50.29 50.29 0 014.91-12.67 55.6 55.6 0 015.83-8.5v.09c-2.28-6.54-3.3-9.47-3.51-10.05.21.58 1.29 3.49 3.68 10a56.27 56.27 0 00-5.75 8.5 50.36 50.36 0 00-4.82 12.62 51 51 0 00-1.18 16.38c.08.74.17 1.48.25 2.24s.25 1.5.38 2.26c.22 1.53.66 3 1 4.58a57.82 57.82 0 003.58 9.18 50.49 50.49 0 0013.28 16.57c.73.58 1.45 1.18 2.2 1.76l2.37 1.57a45 45 0 005 2.88 23 23 0 002.67 1.21l2.74 1.14 2.86.88a22.28 22.28 0 002.91.78l3 .61.75.16.76.08 1.53.16c1 .09 2 .26 3.08.28h4.68l1.57-.15 3.14-.29c1-.17 2.08-.4 3.13-.59a25.64 25.64 0 003.12-.72 46.4 46.4 0 006.11-2.1c1-.43 2-.8 3-1.29l2.89-1.56c.48-.27 1-.51 1.44-.81l1.37-.92c.91-.63 1.84-1.23 2.74-1.88l2.56-2.13c.42-.37.87-.7 1.27-1.09l1.18-1.19c.77-.8 1.58-1.57 2.33-2.4l2.09-2.58c.34-.44.72-.84 1-1.31l.91-1.38c.59-.92 1.24-1.81 1.79-2.76a53.66 53.66 0 002.89-5.84c.4-1 .87-2 1.21-3s.64-2 1-3.08c.15-.51.34-1 .44-1.53l.32-1.57c.21-1 .44-2.07.63-3.11l.33-3.13.17-1.56v-4.67c0-1.03-.17-2.05-.24-3.07l-.14-1.53a10.76 10.76 0 00-.21-1.51c-.2-1-.39-2-.58-3-.1-.49-.18-1-.3-1.48l-.44-1.44c-.28-.95-.57-1.9-.86-2.85a9.62 9.62 0 00-.51-1.39l-.56-1.36c-.38-.91-.76-1.81-1.13-2.71s-.93-1.7-1.38-2.55l-.69-1.27-.34-.63-.4-.59-1.59-2.36-.79-1.17-.9-1.08a51.06 51.06 0 00-34.51-19l-2.2-.24c-.72-.06-1.45 0-2.16 0h-3.18l-1 .1-4 .37-3.79.73a28 28 0 00-3.55.94c-1.14.37-2.28.64-3.34 1.05a50.41 50.41 0 00-5.84 2.6 51.69 51.69 0 00-8.62 5.67z" transform="translate(-27.53 -73.81)"/><path class="cls-1" d="M626.42 161.9l-20.53 1.94-8.35 2.36a22.66 22.66 0 00-9.5 5.45l-26.88 25.8-4.9-40.08-13.44 1.16 2.25 51.6a15.34 15.34 0 0014.63 10.69 15.84 15.84 0 0010.82-4.45l19.14-18-1.9 23.74-1.77 4c12.58 12.28 31.94 16.38 47.08 12.17 0 0 .61-2.16 3.58-21.06 2.39-15.29 3.61-48.59 3.61-48.59z" transform="translate(-27.53 -73.81)"/><path class="cls-1" d="M658.28 219s-6.11-33.56-8.34-40.78c-2.51-8.13-12.9-12-12.9-12l-3.28 30.12L643 232s10.81-6.43 15.28-13z" transform="translate(-27.53 -73.81)"/><path class="cls-2" d="M587.87 222.47c-.12 0 .34-8.55 1-19.08s1.35-19 1.47-19-.34 8.55-1 19.08-1.34 19.01-1.47 19zm33.7-21.58a2.51 2.51 0 01-.14.4l-.43 1.11a15.33 15.33 0 01-.83 1.74c-.35.66-.72 1.43-1.23 2.22l-.78 1.26c-.27.44-.6.86-.92 1.32-.62.92-1.38 1.83-2.17 2.8a45.68 45.68 0 01-5.84 5.64 46.32 46.32 0 01-6.81 4.41c-1.13.54-2.18 1.09-3.22 1.48-.52.21-1 .43-1.49.6l-1.41.47c-.89.32-1.72.5-2.45.7a16.32 16.32 0 01-1.87.41l-1.2.21a1.85 1.85 0 01-.42 0 1.42 1.42 0 01.41-.13l1.17-.29a17.68 17.68 0 001.85-.48c.71-.22 1.54-.42 2.41-.76l1.39-.49c.48-.18 1-.41 1.46-.62 1-.4 2.07-1 3.18-1.5a43.45 43.45 0 0012.53-10c.79-.95 1.56-1.84 2.18-2.74.32-.45.66-.87.94-1.3l.79-1.23c.53-.78.91-1.53 1.29-2.18s.66-1.21.89-1.69l.54-1.08c.09-.17.16-.29.18-.28z" transform="translate(-27.53 -73.81)"/><path d="M592.82 225.24a3.16 3.16 0 01-1.89-3.78 5.43 5.43 0 013.06-3.34 22.77 22.77 0 014.47-1.32 37.47 37.47 0 0017.47-9.8c.45-.44 1.08-.93 1.63-.63.74.4.24 1.5-.27 2.17a46.13 46.13 0 01-24.95 16.73" transform="translate(-27.53 -73.81)"/><path class="cls-2" d="M640.25 215.53a5 5 0 01-.31-.87c-.17-.57-.41-1.4-.68-2.42-.56-2.06-1.27-4.91-2-8.08s-1.26-6.06-1.65-8.16c-.19-1-.34-1.9-.42-2.49a3.49 3.49 0 01-.09-.92 3.91 3.91 0 01.26.89c.15.68.34 1.5.55 2.46.49 2.18 1.11 5 1.8 8.11l1.85 8.1c.21 1 .4 1.78.55 2.46a3.61 3.61 0 01.14.92zm-95.05-53.14a4.94 4.94 0 01-.39-2 4.67 4.67 0 01.05-2.06 5.13 5.13 0 01.39 2 5.07 5.07 0 01-.05 2.06zm3.93.12a10.77 10.77 0 01-.22-4.33 10.77 10.77 0 01.22 4.33zm3.87-.25a6.41 6.41 0 01-.36-2.4 6.69 6.69 0 01.09-2.43 13.68 13.68 0 01.27 4.83zm7.59 42.15a14.42 14.42 0 01.14-3.55 13.55 13.55 0 01.59-3.5 14.76 14.76 0 01-.15 3.55 14.37 14.37 0 01-.58 3.5zm86.79-31.27c0 .08-1.08 0-2.75.37a13.19 13.19 0 00-5.9 2.91 13 13 0 00-3.67 5.44c-.58 1.61-.66 2.69-.74 2.68a2 2 0 010-.76 10.7 10.7 0 01.43-2 12.32 12.32 0 019.81-8.56 10.54 10.54 0 012.06-.15 2.22 2.22 0 01.76.07z" transform="translate(-27.53 -73.81)"/><path class="cls-4" d="M653.73 190.6a16.53 16.53 0 01-2.56 1.08c-1.61.61-3.85 1.4-6.35 2.18s-4.79 1.41-6.46 1.82a15.44 15.44 0 01-2.73.57 18.74 18.74 0 012.65-.87l6.41-1.94 6.37-2.05a18.71 18.71 0 012.67-.79zm6.55 29.6a17.32 17.32 0 01-2.67.72c-1.65.39-4 .9-6.48 1.44s-4.85 1-6.52 1.31a16.64 16.64 0 01-2.73.41 16.93 16.93 0 012.66-.72c1.66-.39 4-.9 6.49-1.43s4.85-1 6.52-1.31a16.44 16.44 0 012.73-.42zm-60.74 2.22a8.25 8.25 0 01-1.76-.75l-4.17-2-4.17-2a8.71 8.71 0 01-1.7-.9 8.69 8.69 0 011.82.61c1.11.43 2.61 1.08 4.24 1.86s3.09 1.53 4.12 2.11a8 8 0 011.62 1.07zm34.23 5.81a5.8 5.8 0 01-1-.38l-2.68-1.17c-2.26-1-5.38-2.33-8.87-3.72s-6.68-2.58-9-3.42l-2.74-1a5.43 5.43 0 01-1-.41 4.9 4.9 0 011 .25c.66.19 1.61.49 2.79.87 2.34.77 5.55 1.91 9 3.3s6.61 2.79 8.84 3.86c1.11.53 2 1 2.62 1.29a5 5 0 011.04.53zm2.66-24.17a1.67 1.67 0 01-.47 0l-1.36-.2-5-.81c-4.21-.69-10-1.62-16.47-2.57s-12.28-1.73-16.5-2.28l-5-.66-1.36-.2a1.69 1.69 0 01-.47-.1 2.47 2.47 0 01.48 0l1.37.11c1.19.11 2.9.29 5 .53 4.24.47 10.09 1.21 16.54 2.16s12.26 1.92 16.45 2.69c2.1.38 3.8.71 5 1l1.34.28a1.94 1.94 0 01.45.05zm-1.92-25.52c0 .12-9.22-1.15-20.55-2.85s-20.51-3.16-20.49-3.28 9.22 1.15 20.55 2.84 20.51 3.17 20.49 3.29zm-48.2 22.32a21.61 21.61 0 01-1.31-2.76l-3-6.73-3-6.71a23 23 0 01-1.21-2.81 2.81 2.81 0 01.44.7c.26.46.62 1.14 1 2 .85 1.68 2 4 3.17 6.66s2.19 5 2.88 6.79c.34.88.61 1.59.79 2.09a3.85 3.85 0 01.24.77zM568 218.79c-.12 0-1.3-5.11-2.62-11.47s-2.31-11.54-2.19-11.56 1.29 5.11 2.62 11.47 2.3 11.53 2.19 11.56zm-7.58-27.91a76.28 76.28 0 01-8 1.94 75.28 75.28 0 01-8.06 1.5 73.55 73.55 0 018-1.93 80.17 80.17 0 018.06-1.51zm-2.67-23.25a9.64 9.64 0 01-2.1.46c-1.3.22-3.11.48-5.12.71s-3.83.38-5.15.46a10.38 10.38 0 01-2.15 0 11.21 11.21 0 012.12-.34l5.13-.58 5.13-.58a11.19 11.19 0 012.14-.13z" transform="translate(-27.53 -73.81)"/><path class="cls-6" d="M564.73 124.13c.24.48 6.63 33.31 6.63 33.31l-15.06.7-5.83-28.23z" transform="translate(-27.53 -73.81)"/><path class="cls-2" d="M543.83 83.63l1.72-.73-6.52-32.36-2.04-.14 6.84 33.23z"/><path class="cls-2" d="M558.68 131.31a.78.78 0 01-1.55.19.77.77 0 01.68-.87.79.79 0 01.87.68z" transform="translate(-27.53 -73.81)"/><path class="cls-7" d="M555.57 154.35l-.23-4.3 6.44-2.65-2.51-6A5.2 5.2 0 00552 139l-2.58 1.41a7.38 7.38 0 00-3.66 4.76 92.86 92.86 0 00-1.49 10.49" transform="translate(-27.53 -73.81)"/><path class="cls-2" d="M630.11 116.19c2.45 1.49 3 4.76 3.23 7.63s.58 6.11 2.88 7.83c1.9 1.42 4.95 1.67 5.71 3.91a2.7 2.7 0 01-4 3.15 4.66 4.66 0 01-.5 5.43c-1.4 1.37-4.15 1.14-5-.64a2.37 2.37 0 11-4.45 1.61M600 140.72a2.85 2.85 0 11-5.55-1.29c.31-1.16 1.34-2.13 1.25-3.32-.11-1.45-1.73-2.22-3.12-2.62s-3-1-3.41-2.35.68-2.63 1.55-3.72 1.65-2.68.81-3.8c-.43-.57-1.17-.82-1.7-1.3a3.16 3.16 0 01.07-4.28 5.72 5.72 0 014.34-1.57 41.82 41.82 0 014.71.6 18.93 18.93 0 0014.55-4.46" transform="translate(-27.53 -73.81)"/><path class="cls-7" d="M617.42 170.76a10.53 10.53 0 0011.2-10.1l1.27-33.32a15.1 15.1 0 00-14.52-16.07h-.78a15.2 15.2 0 00-14.86 14.3c-.43 7.36-.82 15.5-.68 19.44.27 8.16 8.46 9.26 8.46 9.26l.06 6.06a10.52 10.52 0 009.85 10.41z" transform="translate(-27.53 -73.81)"/><path class="cls-9" d="M607.5 154.17a18.92 18.92 0 0010.57-3.26s-2.38 5.93-10.54 5.37z" transform="translate(-27.53 -73.81)"/><path class="cls-2" d="M602.7 130.75a1.18 1.18 0 001.15 1.16 1.12 1.12 0 001.18-1.08 1.16 1.16 0 00-1.15-1.15 1.12 1.12 0 00-1.18 1.07zm-1.13-1.2c.15.15 1-.52 2.27-.55s2.19.59 2.32.43-.09-.34-.49-.62a3.21 3.21 0 00-1.86-.53 3.08 3.08 0 00-1.81.62c-.38.31-.5.59-.43.65zm13.6 1.2a1.18 1.18 0 001.15 1.16 1.12 1.12 0 001.18-1.08 1.16 1.16 0 00-1.15-1.15 1.12 1.12 0 00-1.18 1.07zm-1.27-1.23c.15.15 1-.52 2.27-.55s2.19.58 2.32.43-.08-.34-.49-.63a3.19 3.19 0 00-3.67.1c-.33.3-.5.58-.43.65zm-4.35 9.4a8.31 8.31 0 00-2-.33c-.32 0-.63-.08-.69-.3a1.62 1.62 0 01.2-.95l.89-2.46a42.17 42.17 0 002-6.42 42.25 42.25 0 00-2.5 6.25c-.3.86-.58 1.68-.85 2.47a1.78 1.78 0 00-.14 1.26.8.8 0 00.53.46 3 3 0 00.55.06 8.31 8.31 0 002.01-.04zm3.71.79c-.2 0-.17 1.35-1.32 2.34s-2.59.87-2.6 1.06.33.26.94.27a3.44 3.44 0 002.18-.82 3 3 0 001-2c.06-.56-.1-.86-.2-.85zm.21-15.1c.13.34 1.38.15 2.86.3s2.67.52 2.86.21c.08-.15-.13-.47-.62-.79a5 5 0 00-4.35-.38c-.54.23-.8.5-.75.66zm-11.47 1.3c.23.28 1.09 0 2.13-.07s1.92.15 2.11-.15c.09-.15-.05-.43-.44-.69a3.08 3.08 0 00-3.42.18c-.38.3-.53.6-.38.73zm18.84-7.33a6.42 6.42 0 012.47 4.1v.17c.37 2.32.36 4.69.75 7a10.55 10.55 0 003 6.23c.72.65 2 1.07 2.54.29a2 2 0 00.27-1.07c.31-5.63 1.74-10.65 1.6-16.53a5 5 0 00-2.14-4c-1.25-.85-2.77-1.74-4.13-1.06s-3.07 3.28-4.1 4.38" transform="translate(-27.53 -73.81)"/><path class="cls-7" d="M627.22 131.09c.14-.06 5.57-1.78 5.52 3.8s-5.65 4.38-5.66 4.22.14-8.02.14-8.02z" transform="translate(-27.53 -73.81)"/><path class="cls-9" d="M628.81 137s.09.07.26.14a1 1 0 00.72 0 2.41 2.41 0 001.14-2.15 3.18 3.18 0 00-.26-1.4 1.12 1.12 0 00-.72-.75.49.49 0 00-.58.26c-.08.16 0 .27-.07.28s-.12-.1-.07-.33a.62.62 0 01.22-.35.75.75 0 01.54-.13 1.37 1.37 0 011 .87 3.43 3.43 0 01.32 1.56 2.54 2.54 0 01-1.45 2.4 1 1 0 01-.88-.16c-.17-.1-.19-.24-.17-.24z" transform="translate(-27.53 -73.81)"/><path class="cls-2" d="M625.5 114.61c1.33-2.26-2.51-5.39-5.28-6.19s-6.37.61-9.09 1.58c-1.72.61-3.42 1.45-5.25 1.41a12.22 12.22 0 01-3.55-.82 8.9 8.9 0 00-3.59-.63 3.35 3.35 0 00-2.89 1.92 2.11 2.11 0 001.47 2.82 2.74 2.74 0 10-.62 5.1c-.81-.59-2 .43-1.88 1.42a2.88 2.88 0 001.95 2.07 10.43 10.43 0 007.45-.28c2.39-.86 4.59-2.17 7-3.09s6.33-2.57 8.75-1.78c1.78.58 3.05 2.68 4 2.19a3.4 3.4 0 001.71-2.55 10 10 0 00-.18-3.17" transform="translate(-27.53 -73.81)"/><path class="cls-6" d="M600.21 113.81a1.48 1.48 0 00-1.38.21 2.71 2.71 0 00-1.08 1.3 2.76 2.76 0 000 2.24c.7 1.61 2.83 2.6 5 2.4a13.68 13.68 0 006.44-2.66 34.33 34.33 0 015.84-3.58 9 9 0 012.84-.69 6.87 6.87 0 012.51.36 5.27 5.27 0 012.88 2.21 9.77 9.77 0 01.53 1.27v-.36a3.68 3.68 0 00-.33-1 5.26 5.26 0 00-2.93-2.47 7.15 7.15 0 00-2.65-.45 9.56 9.56 0 00-3 .69 31.82 31.82 0 00-6 3.59 13.51 13.51 0 01-6.19 2.61c-2 .21-4-.68-4.64-2.08a2.46 2.46 0 01-.05-2 2.73 2.73 0 01.92-1.24 2.34 2.34 0 011.29-.35z" transform="translate(-27.53 -73.81)"/><path class="cls-6" d="M615.4 110.66c0 .08.74-.17 1.92-.23a8.21 8.21 0 014.41 1 8.13 8.13 0 013.13 3.26c.56 1 .71 1.78.8 1.76a4 4 0 00-.46-1.93 7.58 7.58 0 00-7.91-4.47 3.84 3.84 0 00-1.89.61zm15.15 14.12a2.67 2.67 0 00.44-1.52 5.71 5.71 0 00-4.09-5.94 2.63 2.63 0 00-1.58-.12c0 .08.59.13 1.46.47a6.22 6.22 0 012.79 2.19 6.11 6.11 0 011 3.39c.07.93-.1 1.51-.02 1.53z" transform="translate(-27.53 -73.81)"/></g><g id="Character_4" data-name="Character 4"><path class="cls-4" d="M627.84 359.47l-9.33 1.62a45.09 45.09 0 104.77 6.84z" transform="translate(-27.53 -73.81)"/><path class="cls-2" d="M627.84 359.47l-4.48 8.53v-.09a44.89 44.89 0 013.74 8.43 46 46 0 011.44 5.54c.21 1 .28 2 .43 3.1a24.83 24.83 0 01.3 3.28c0 1.12.06 2.28.08 3.46s-.18 2.38-.27 3.61l-.07.93-.16.92-.33 1.88c-.13.63-.21 1.28-.37 1.91l-.54 1.91a45.84 45.84 0 01-22 27.68l-1.09.62-1.16.53-2.36 1.03-.58.27-.61.2-1.23.42-2.47.83c-1.71.37-3.42.83-5.17 1.12l-2.66.33-1.34.17h-1.36l-2.73.06a7.89 7.89 0 01-1.37-.05l-1.37-.1c-.92-.09-1.85-.11-2.76-.26l-2.75-.49c-.46-.09-.93-.16-1.38-.26l-1.36-.38-2.73-.77c-.89-.33-1.77-.69-2.66-1l-1.34-.53c-.45-.17-.86-.42-1.29-.62l-2.58-1.31c-.85-.47-1.65-1-2.48-1.53a47.78 47.78 0 01-4.73-3.47c-.76-.62-1.45-1.33-2.18-2a20.8 20.8 0 01-2.08-2.12l-2-2.26c-.62-.78-1.18-1.62-1.77-2.43l-.88-1.22c-.28-.42-.51-.87-.77-1.3l-1.5-2.6c-.43-.9-.82-1.81-1.24-2.71l-.61-1.36c-.19-.45-.32-.93-.49-1.4l-.94-2.8c-.29-.94-.45-1.9-.68-2.85a40.34 40.34 0 01-.92-5.74 21.39 21.39 0 01-.16-2.88c0-.95-.06-1.91 0-2.86s.15-1.89.23-2.83l.11-1.41c.06-.47.16-.93.24-1.39.17-.93.33-1.85.5-2.76s.49-1.79.72-2.69l.38-1.32.19-.67.25-.64c.33-.85.67-1.7 1-2.54a21.15 21.15 0 011.14-2.46c.41-.8.82-1.6 1.22-2.4s1-1.5 1.43-2.25a21.51 21.51 0 011.49-2.18 40.13 40.13 0 013.32-4l1.76-1.87c.62-.57 1.27-1.11 1.9-1.67a45.44 45.44 0 0116.71-9.19 51.77 51.77 0 018.67-1.73 47.94 47.94 0 018.29-.06 45.89 45.89 0 0124.62 9.84 49.13 49.13 0 016.56 6.42h-.08l9.34-1.54-9.31 1.71a50.78 50.78 0 00-6.59-6.33 45.61 45.61 0 00-24.51-9.64 47.18 47.18 0 00-8.22.08 50.62 50.62 0 00-8.58 1.74 44.83 44.83 0 00-16.61 9.07c-.62.55-1.26 1.09-1.88 1.66l-1.73 1.85a39.39 39.39 0 00-3.28 4 19.08 19.08 0 00-1.47 2.16l-1.4 2.2-1.24 2.36a19.11 19.11 0 00-1.12 2.43l-1 2.52-.25.63-.19.66-.37 1.31c-.23.89-.53 1.76-.71 2.66s-.33 1.81-.49 2.73c-.08.45-.18.91-.23 1.37l-.11 1.39c-.08.93-.15 1.87-.23 2.81s0 1.88 0 2.83a20.8 20.8 0 00.16 2.84 40.94 40.94 0 00.91 5.68c.23.93.39 1.89.68 2.82l.93 2.77c.16.46.29.93.48 1.38l.61 1.34c.41.89.8 1.8 1.23 2.68l1.48 2.57c.25.43.48.87.76 1.28l.87 1.22c.58.8 1.13 1.62 1.74 2.4l2 2.22a19.46 19.46 0 002.06 2.1c.72.66 1.4 1.37 2.15 2a47.81 47.81 0 004.68 3.42c.82.51 1.61 1.06 2.45 1.52l2.55 1.29c.43.21.84.45 1.28.62l1.32.52c.88.34 1.75.7 2.63 1l2.7.77 1.34.38c.45.1.91.17 1.37.25l2.72.49c.9.15 1.82.17 2.73.26l1.36.11a8.7 8.7 0 001.35 0l2.7-.06h1.34l1.33-.17 2.63-.32c1.74-.28 3.43-.74 5.12-1.11l2.44-.82 1.22-.4.6-.21.58-.26 2.31-1 1.14-.51 1.09-.62a45.54 45.54 0 0021.86-27.38l.54-1.89c.17-.62.25-1.26.37-1.89s.23-1.25.34-1.86l.16-.92.08-.92c.09-1.22.19-2.41.28-3.58s0-2.32-.07-3.44a24.7 24.7 0 00-.28-3.26c-.15-1.05-.21-2.09-.41-3.08a44.44 44.44 0 00-1.4-5.52 45.54 45.54 0 00-3.61-8.41v-.05z" transform="translate(-27.53 -73.81)"/><path class="cls-8" d="M552.66 396l-5.06 13.63-3.84-30.79a10.83 10.83 0 011.13-5.7 11.35 11.35 0 011.37-2.21 12 12 0 012.37-2.22c.86-.5.71-1.77-.18-1.87s-3.3 1.2-5.2 3.8-2.1-2.41-2.21-4.23-.69-7.42-1.28-7.82c-.85-.58-1.65.25-1.5 2.06s.2 7.3-.76 7.33-1.36-9.24-1.36-9.24.24-2-.88-2c-2 0-.84 9.81-.7 10.74.09.65-.95.72-1 0s-.19-9.26-2.23-9.28c-1.57 0 .88 8.08-.08 9.89s-1.22-6.34-2.72-6.29c-.56 0-1 .11-.14 4.76.44 2.49 2.09 6.08 2.6 11l.13 1.26c.09 6.07.81 28.94 6.32 42.86a11.28 11.28 0 0019.84 2 105.36 105.36 0 0010.78-21z" transform="translate(-27.53 -73.81)"/><path class="cls-7" d="M534 375c0 .05.31 0 .79.21a2.81 2.81 0 011.54 1.27l.19.34.11-.37a4.57 4.57 0 01.74-1.48 5.36 5.36 0 012.56-1.89c.79-.28 1.33-.26 1.32-.33a2.53 2.53 0 00-1.39.09 5.11 5.11 0 00-2.77 1.92 4.71 4.71 0 00-.77 1.6h.3a2.86 2.86 0 00-1.77-1.3c-.59-.13-.91-.06-.85-.06z" transform="translate(-27.53 -73.81)"/><path class="cls-2" d="M570.93 354.24a8.64 8.64 0 00-10.73 6.67c-.24 1.7 0 3.62-1.08 5s-3.25 1.58-5 2.21a8.25 8.25 0 00-4.74 10.09c.37 1 1 2.14.52 3.14-.35.82-1.25 1.22-1.94 1.79a5.34 5.34 0 00-1.37 5.64 9.18 9.18 0 003.83 4.67 15 15 0 0016.93-.52c2.33-1.77 4.28-4.32 7.14-5 3.4-.76 6.67 1.45 10 2.34a14.64 14.64 0 0012.32-2.59 17.12 17.12 0 006.39-11c.81-5.24-.66-10.59-.28-15.88.23-3.24 1.15-6.47.73-9.69s-2.84-6.56-6.09-6.49" transform="translate(-27.53 -73.81)"/><path class="cls-1" d="M545.21 380.28l2.37 27.3 13.12-28.46 7.75 24.88a105.36 105.36 0 01-10.78 21c-5 7.53-17.27 7.95-20.6-.45-5.52-13.92-7.07-37.93-7.16-44z" transform="translate(-27.53 -73.81)"/><path class="cls-1" d="M560.18 429c-3-1.92-3.69-24.07-1.73-36.09l.75-4.56c-1.34-8.65 5-16.83 13.71-17.26a10.36 10.36 0 012.64.15l19.1.92s21.3 5.08 24.92 18.57c.81 3 4.63 20.29 4.63 20.29-6.92 12.21-15 17-15 17l-6.1-16.92s1.85 9.75 2 13.47a12.91 12.91 0 01-1.52 6.68S581.73 443 560.18 429z" transform="translate(-27.53 -73.81)"/><path class="cls-2" d="M604.72 415.42a9.16 9.16 0 01-.93-2.07c-.51-1.3-1.15-3.13-1.8-5.16s-1.19-3.89-1.56-5.24a9.79 9.79 0 01-.48-2.22 11.92 11.92 0 01.81 2.12l1.69 5.19 1.66 5.2a11.34 11.34 0 01.61 2.18zM546 416.69a3.24 3.24 0 01-.5-1.4 9 9 0 010-3.59 9.27 9.27 0 011.37-3.33c.53-.76 1-1.14 1-1.1a16.16 16.16 0 00-1.9 4.52 15.81 15.81 0 00.03 4.9z" transform="translate(-27.53 -73.81)"/><path class="cls-4" d="M601 409.11c0 .13-9.72.16-21.71.07s-21.7-.28-21.7-.42 9.72-.16 21.71-.07 21.7.31 21.7.42zm1.61 1.54c0 .13-10 .41-22.35.63s-22.36.29-22.36.15 10-.41 22.35-.63 22.36-.29 22.36-.15z" transform="translate(-27.53 -73.81)"/><path class="cls-2" d="M558.79 426.26a8 8 0 01-.36-1.38c-.19-.9-.44-2.22-.63-3.85a57.25 57.25 0 01-.12-12.86 45.69 45.69 0 011.29-7c.3-1.05.58-2.05.93-3s.68-1.74 1-2.5a20.09 20.09 0 011-2 12.6 12.6 0 01.87-1.44 7.88 7.88 0 01.84-1.16c.1.07-1.09 1.73-2.38 4.73a43.29 43.29 0 00-3.06 12.35 63.67 63.67 0 000 12.76c.14 1.63.33 2.94.46 3.85a6.73 6.73 0 01.16 1.5zm20.28-44.97c.06.14-.27.4-.6.76s-.58.69-.72.64-.08-.56.34-1 .91-.53.98-.4zm-2.07-3.37c0 .15-.41.27-.83.54s-.72.56-.85.49 0-.6.58-.94 1.1-.23 1.1-.09zm-.51-3.12c-.12.09-.43-.12-.85-.21s-.79 0-.86-.18.36-.47 1-.33.83.65.71.72zm5.29 10.32c-.14 0-.24-.46-.07-1s.51-.85.63-.77 0 .47-.13.93-.28.85-.43.84zm4.74.57c-.13 0-.36-.35-.49-.86s-.14-1 0-1 .36.35.5.86.13.96-.01 1zm4.23-1.41c-.14.05-.38-.35-.74-.76s-.71-.71-.65-.85.61 0 1 .51.53 1.07.39 1.1zm3.53-2.99c-.14 0-.34-.5-.86-.88s-1.06-.44-1.08-.59.71-.35 1.4.18.69 1.31.54 1.29zm1.61-3.74c-.14.05-.41-.42-1-.74s-1.07-.38-1.09-.52.66-.37 1.37.08.83 1.16.72 1.18z" transform="translate(-27.53 -73.81)"/><path d="M558.4 424.15a59.09 59.09 0 011.69-26.4 24.76 24.76 0 00-7 13.56c-.82 5.11.83 10.79 3.18 15.4z" transform="translate(-27.53 -73.81)"/><path class="cls-2" d="M568.83 343.75c-4.7-11.59 2.13-18.57 6.54-21.05 2.63-1.49 5.73-1.77 8.72-1.82a31.12 31.12 0 018.77.91 15.5 15.5 0 017.54 4.45c3.51 3.94 4.23 9.74 3.8 15.08a42.81 42.81 0 01-5.52 17.93 4.41 4.41 0 01-1.56 1.8 1.59 1.59 0 01-2.11-.41" transform="translate(-27.53 -73.81)"/><path class="cls-8" d="M584.7 383.8c5.07.41 9.58-4 10.28-12l3.51-40.56-.24 2.8a3.21 3.21 0 00-2.8-3.33l-15.73-1.85a9.75 9.75 0 00-10.73 9c-.48 6.18-.84 13.73-.2 18.35 1.28 9.29 8.22 10.53 8.22 10.53l-.68 6.72a9.28 9.28 0 008.37 10.27z" transform="translate(-27.53 -73.81)"/><path class="cls-2" d="M578.14 351.44a7.82 7.82 0 00-2-.4c-.32 0-.62-.1-.67-.33a1.56 1.56 0 01.23-1l1-2.48a42.87 42.87 0 002.24-6.49 43.18 43.18 0 00-2.74 6.29c-.33.87-.65 1.7-.95 2.5a2 2 0 00-.19 1.28.82.82 0 00.52.48 1.86 1.86 0 00.54.08 8 8 0 002.02.07z" transform="translate(-27.53 -73.81)"/><path class="cls-7" d="M577 366.57a22.83 22.83 0 0012.22-3.2s-3.37 6.38-12.44 5.43zm1.61-12.05a2.25 2.25 0 012-.83 2 2 0 011.41.79 1.36 1.36 0 01.07 1.53 1.5 1.5 0 01-1.65.4 4.47 4.47 0 01-1.58-1 1.4 1.4 0 01-.35-.38.42.42 0 010-.47" transform="translate(-27.53 -73.81)"/><path class="cls-2" d="M581.81 352.35c-.21 0-.23 1.38-1.41 2.35s-2.63.81-2.64 1 .32.27.93.29a3.32 3.32 0 002.2-.76 3 3 0 001.09-2c.07-.54-.08-.88-.17-.88zm.51-12.61c.12.35 1.37.2 2.84.39s2.65.62 2.85.31c.09-.15-.12-.48-.59-.82a4.69 4.69 0 00-2.1-.78 4.74 4.74 0 00-2.23.25c-.55.22-.82.49-.77.65zm-11.26-1.8c.21.29 1.08 0 2.12 0s1.91.22 2.12-.09c.09-.14 0-.44-.42-.71a3 3 0 00-3.42.07c-.37.29-.46.59-.4.73z" transform="translate(-27.53 -73.81)"/><path class="cls-2" d="M599.69 360a7.57 7.57 0 005.64-3.81c3.32-6.11 4.14-15.79 4-19.59a6.67 6.67 0 00-4-6.07c-2-.92-2.19-.68-3.73-2.31-7-7.39-16.35-11-25.24-6.09a5.09 5.09 0 00-2.16 6.27c1.82 4.67 5.75 7.54 9.93 9.53 1.32.62 4.05 1 5.9 1.87a7.13 7.13 0 013.59 5.31c.34 3.28-3.1 6.42-1.95 9.5.66 1.74 2.6 2.67 3.33 4.38.62 1.44-.62 5.25.42 7.11 0 0 3.38-5.5 4.24-6.1zm-28.64-16.35a1.12 1.12 0 001 1.23 1.08 1.08 0 001.23-1 1.15 1.15 0 00-1-1.23 1.09 1.09 0 00-1.23 1z" transform="translate(-27.53 -73.81)"/><path class="cls-2" d="M570.88 342.53c.13.16 1-.43 2.24-.35s2 .76 2.19.61-.06-.34-.42-.65a3.07 3.07 0 00-1.74-.68 2.92 2.92 0 00-1.79.47c-.36.27-.54.53-.48.6zm11.86 1.88a1.12 1.12 0 001 1.22 1.09 1.09 0 001.23-1 1.15 1.15 0 00-1-1.23 1.09 1.09 0 00-1.23 1.01z" transform="translate(-27.53 -73.81)"/><path class="cls-2" d="M582.77 343.29c.13.16 1-.43 2.23-.35s2 .76 2.19.62-.05-.35-.42-.66a3 3 0 00-1.74-.67 2.87 2.87 0 00-1.79.46c-.39.31-.54.53-.47.6z" transform="translate(-27.53 -73.81)"/><path class="cls-6" d="M594.14 352.64c0-.05.68-.11 1.86-.45a10.89 10.89 0 004.44-2.53 7.49 7.49 0 001.9-2.93 7 7 0 00.13-4 5.48 5.48 0 00-2.49-3.47 11.08 11.08 0 00-4.65-1.06 20.17 20.17 0 01-9.05-3 21.39 21.39 0 01-5.74-5.3 18.69 18.69 0 01-2.53-4.61 10.62 10.62 0 01-.44-1.36 1.64 1.64 0 01-.11-.49s.25.64.74 1.77a19.93 19.93 0 002.64 4.47 21.62 21.62 0 005.69 5.11 20 20 0 008.85 2.92 11.44 11.44 0 014.86 1.14 6 6 0 012.7 3.8 7.41 7.41 0 01-.19 4.22 7.78 7.78 0 01-2 3.05 10.54 10.54 0 01-4.65 2.46 11.56 11.56 0 01-1.41.25 1.89 1.89 0 01-.55.01zm12.04-14.46a7.78 7.78 0 00.18-1.37 4.93 4.93 0 00-1.45-3.3 8 8 0 00-5-2c-2.09-.22-4.42.1-6.91-.09a15.75 15.75 0 01-6.63-2.17 16 16 0 01-4.31-3.73 14 14 0 01-2-3.27 7.33 7.33 0 01-.37-1c-.08-.23-.11-.35-.09-.35a21.77 21.77 0 002.75 4.35 16.38 16.38 0 004.27 3.55 15.63 15.63 0 006.43 2.07c2.41.19 4.76-.12 6.92.13a8.14 8.14 0 015.21 2.25 5 5 0 011.39 3.56 3.1 3.1 0 01-.21 1 1.71 1.71 0 01-.18.37z" transform="translate(-27.53 -73.81)"/><path class="cls-6" d="M602.7 329.39s.12 0 .32.09a3.66 3.66 0 01.84.46 6.61 6.61 0 012.16 2.72 15.65 15.65 0 011.24 5 27.78 27.78 0 01-.06 6.3 61.37 61.37 0 01-2.7 11.04l-1.08 3.27a6.45 6.45 0 01-.45 1.19 5.52 5.52 0 01.26-1.24c.2-.79.51-1.93.91-3.33a71.54 71.54 0 002.54-11 28.74 28.74 0 00.1-6.19 15.9 15.9 0 00-1.1-4.9 6.83 6.83 0 00-1.95-2.71c-.62-.49-1.05-.65-1.03-.7z" transform="translate(-27.53 -73.81)"/><path class="cls-6" d="M609.24 340.57c-.15.06-.48-.58-1-1.21s-1.09-1-1-1.14.83 0 1.43.81.68 1.49.57 1.54zm.14-3.4c-.16 0-.34-.71-.9-1.34s-1.29-.88-1.24-1 .9-.1 1.63.68.63 1.67.51 1.66z" transform="translate(-27.53 -73.81)"/></g><g id="Character_3" data-name="Character 3"><path class="cls-4" d="M398.54 299.27l-8.71 5.46a49.14 49.14 0 107.59 4.93z" transform="translate(-27.53 -73.81)"/><path class="cls-2" d="M398.54 299.27c-.06.62-.36 3.65-1 10.4v-.08a49 49 0 017.21 6.94 47.93 47.93 0 013.71 5c.61.91 1.11 1.93 1.7 2.93a26.42 26.42 0 011.64 3.18l1.5 3.44c.39 1.22.8 2.47 1.21 3.74l.3 1c.08.33.15.66.22 1 .14.67.29 1.34.43 2s.32 1.36.42 2.07.16 1.41.24 2.13a49.77 49.77 0 01-10.79 36.83l-.85 1.08-.94 1-1.91 2-.48.5-.53.46-1.06.92-2.15 1.85-2.41 1.63a27.63 27.63 0 01-2.39 1.6l-2.54 1.42-1.28.72c-.44.21-.9.39-1.35.59l-2.71 1.18a11.16 11.16 0 01-1.4.52l-1.43.45c-.95.29-1.89.64-2.87.87l-3 .63c-.5.1-1 .22-1.49.31l-1.53.17-3.05.34c-1 0-2.07 0-3.1.06h-1.56c-.52 0-1-.07-1.56-.11l-3.13-.25c-1-.12-2.07-.36-3.11-.53a52.15 52.15 0 01-6.18-1.54c-1-.32-2-.75-3-1.13l-1.51-.58c-.5-.19-1-.47-1.46-.7l-2.9-1.45c-.94-.54-1.84-1.15-2.77-1.72l-1.38-.88c-.45-.3-.87-.66-1.3-1l-2.58-2c-.8-.73-1.57-1.49-2.35-2.23l-1.14-1.03c-.39-.38-.71-.8-1.07-1.2l-2.09-2.43c-.67-.83-1.24-1.73-1.86-2.59a45.78 45.78 0 01-3.27-5.39 23.56 23.56 0 01-1.34-2.83c-.4-.95-.83-1.9-1.21-2.86s-.63-2-.94-2.94l-.46-1.46c-.13-.49-.22-1-.33-1.49l-.63-3c-.19-1-.24-2-.37-3l-.16-1.49-.08-.75v-3.74a22.1 22.1 0 01.14-2.94c.08-1 .17-1.94.25-2.91l.51-2.84a21.43 21.43 0 01.61-2.8 43.73 43.73 0 011.7-5.38l1-2.59c.4-.83.82-1.64 1.23-2.46a49.08 49.08 0 0113-16.08 55.85 55.85 0 018-5.29c1.4-.67 2.74-1.4 4.15-1.93.7-.27 1.37-.59 2.07-.82l2.08-.7a49.75 49.75 0 0128.8-.22 54.66 54.66 0 019.22 3.76h-.09c5.7-3.49 8.24-5.06 8.76-5.38l-8.67 5.54h-.05a53 53 0 00-9.21-3.67 49.54 49.54 0 00-28.6.33l-2.07.7c-.69.23-1.36.55-2 .82-1.4.53-2.73 1.26-4.11 1.93a55.86 55.86 0 00-7.93 5.26 49 49 0 00-12.89 16c-.4.81-.82 1.61-1.21 2.44l-1 2.57a44.09 44.09 0 00-1.68 5.33 21 21 0 00-.59 2.77q-.26 1.39-.51 2.82t-.33 2.91a23.37 23.37 0 00-.14 2.9c0 1 0 2 .05 2.94v.74l.08.74.16 1.47c.13 1 .18 2 .37 3l.63 2.94c.1.49.19 1 .32 1.48l.46 1.45.93 2.91c.37.95.8 1.88 1.2 2.82a22.4 22.4 0 001.33 2.8 43.66 43.66 0 003.24 5.34c.61.84 1.17 1.74 1.84 2.56s1.37 1.6 2.07 2.4c.35.4.67.82 1.05 1.19l1.16 1.1c.78.73 1.54 1.48 2.33 2.2l2.55 2c.43.32.84.67 1.28 1l1.37.87c.92.57 1.81 1.17 2.75 1.7l2.87 1.44a15.83 15.83 0 001.44.69l1.49.58c1 .37 2 .8 3 1.12a53.1 53.1 0 006.12 1.52c1 .17 2.05.41 3.08.52l3.09.26c.52 0 1 .11 1.55.1h1.54c1 0 2.05 0 3.06-.05l3-.33 1.51-.17c.49-.09 1-.2 1.47-.3l2.94-.62c1-.23 1.9-.59 2.85-.87l1.41-.45a7.36 7.36 0 001.38-.51c.91-.38 1.8-.77 2.7-1.16.44-.2.89-.37 1.33-.59l1.27-.7 2.51-1.4c.85-.45 1.59-1.07 2.38-1.59l2.32-1.62 2.12-1.83 1.06-.91.52-.45.48-.5 1.89-2 .94-1 .84-1.07a49.36 49.36 0 0010.77-36.48c-.07-.72-.15-1.43-.23-2.13s-.27-1.37-.4-2.05l-.42-2c-.07-.33-.14-.66-.22-1l-.3-.95c-.4-1.27-.79-2.51-1.18-3.72l-1.47-3.43a26.1 26.1 0 00-1.63-3.16c-.57-1-1.06-2-1.67-2.93a50.23 50.23 0 00-3.66-5 49.64 49.64 0 00-7.13-7v-.05c.76-6.84 1.12-9.87 1.19-10.49z" transform="translate(-27.53 -73.81)"/><path class="cls-11" d="M393.84 360.29l1.21 9.52 14.52-12.37 7.94 1.92s-8.19 17.19-14.66 24-10 7.78-12.39 7.88c-3.36.15-4.89-3.94-4.89-3.94l-1.47-23.66z" transform="translate(-27.53 -73.81)"/><path class="cls-12" d="M395 369.56a6.51 6.51 0 00-1 2.37 6.34 6.34 0 00-.34 2.56 298 298 0 011.36-4.93z" transform="translate(-27.53 -73.81)"/><path class="cls-6" d="M411 333.3h10.9a2.78 2.78 0 012.54 3.49l-11 21.41a2.48 2.48 0 01-2.21 1.35h-13.32a1.91 1.91 0 01-1.46-2.82l10.61-21a4.36 4.36 0 013.94-2.43z" transform="translate(-27.53 -73.81)"/><path class="cls-2" d="M411.71 334.59h10.93a1.83 1.83 0 011.63 2.66l-10.73 20.95a2.48 2.48 0 01-2.21 1.35h-13.18a1.08 1.08 0 01-1-1.56l10.61-21a4.36 4.36 0 013.95-2.4z" transform="translate(-27.53 -73.81)"/><path class="cls-11" d="M412.64 343.36l6.65 2.66 1.42 5.36-3.2 8-11.76 1.71 3.45-3.52-.45-3.07s-3.27-1-3.36-1.53.41-2.18.91-2.26a25.13 25.13 0 013.95 1.2s-4.07-3.22-4-3.74.55-1.84 1.36-2 7.38 2.95 7.38 2.95l1.07 2.43.93-3.89s-5.8-1.66-4.35-4.3z" transform="translate(-27.53 -73.81)"/><path class="cls-12" d="M411.8 355.93s.16-.23.22-.67a3.33 3.33 0 00-.2-1.67 3.54 3.54 0 00-.94-1.41c-.32-.29-.58-.39-.6-.36a5.12 5.12 0 011.52 4.11zm3.2-1.16a13.79 13.79 0 01-.26-1.75 8.19 8.19 0 00-.34-1.93 2.89 2.89 0 00-.61-1 3.09 3.09 0 00-1.09-.68c-1.59-.58-3-1-4.07-1.38a9.43 9.43 0 00-1.72-.48 9.16 9.16 0 001.64.71c1 .39 2.46.9 4 1.47a2.84 2.84 0 011 .6 2.66 2.66 0 01.56.9 9.75 9.75 0 01.39 1.85 3.51 3.51 0 00.5 1.69zm1.49-1.21a2.66 2.66 0 00-.05-1.31c-.11-.71-.28-1.27-.38-1.25a2.73 2.73 0 000 1.31c.16.69.33 1.27.43 1.25z" transform="translate(-27.53 -73.81)"/><circle class="cls-4" cx="387.74" cy="264.82" r="1.39"/><path class="cls-2" d="M375.84 282.29c3.68 10 7.76 20.61 16.33 27a4.62 4.62 0 01-3.3-.47 38 38 0 014.73 9.5c1 3.41.87 7.28-1.05 10.27l-.68-1.14a17.84 17.84 0 01-7.7 19.72c-2.82 1.7-6.58 2.52-9.34.73-2.09-1.36-3.08-3.86-3.95-6.2L354 296.14c-1.56-4.24-3.16-8.73-2.38-13.18a13 13 0 0123.46-5.17" transform="translate(-27.53 -73.81)"/><path class="cls-6" d="M385.66 338.29a2.29 2.29 0 00.27-.28 9.39 9.39 0 00.71-.89 12 12 0 001.71-3.79 16.7 16.7 0 00.34-6.16 27.35 27.35 0 00-2.14-7.25c-1.06-2.47-2.27-4.72-3.3-6.8a56 56 0 01-2.48-5.62 28.23 28.23 0 01-1.12-4c-.18-1-.23-1.5-.26-1.5a1.22 1.22 0 000 .4c0 .25.06.63.14 1.12a24.24 24.24 0 001 4 50.13 50.13 0 002.43 5.67c1 2.09 2.21 4.35 3.27 6.8a27.48 27.48 0 012.14 7.16 16.83 16.83 0 01-.27 6.08 12.34 12.34 0 01-1.6 3.78c-.5.87-.87 1.26-.84 1.28z" transform="translate(-27.53 -73.81)"/><path class="cls-11" d="M364.61 276.64a14.22 14.22 0 0113.57 14.19c0 5.89-.08 12.29-.46 16.08-.87 8.83-7.51 10.34-7.51 10.34s.22 5.49.51 10.7c.28 5-3.79 9.32-9.09 9.75-5.25.42-9.75-3.18-10.1-8.09l-1.78-38.1a14.22 14.22 0 0114.86-14.87z" transform="translate(-27.53 -73.81)"/><path class="cls-2" d="M375 294.27a1.11 1.11 0 01-1 1.2 1.08 1.08 0 01-1.22-.94 1.13 1.13 0 011-1.2 1.07 1.07 0 011.22.94zm1.14-1.27c-.13.16-1-.42-2.22-.35s-2.06.74-2.2.6.06-.34.43-.64a3.14 3.14 0 011.74-.66 3 3 0 011.79.46c.38.22.52.47.46.59zm-13.67 2.35a1.13 1.13 0 01-1 1.2 1.08 1.08 0 01-1.22-.95 1.13 1.13 0 011-1.19 1.07 1.07 0 011.22.94zm1.1-1.21c-.13.15-1-.42-2.23-.35s-2 .73-2.19.59.05-.33.43-.64a3.06 3.06 0 011.74-.65 3 3 0 011.78.46c.39.26.53.52.47.59zm4.91 8.69a8 8 0 011.94-.47c.31-.05.6-.13.64-.34a1.64 1.64 0 00-.26-.9l-1.06-2.29a41.64 41.64 0 01-2.41-6 38.75 38.75 0 012.89 5.81c.36.8.69 1.57 1 2.31a1.83 1.83 0 01.23 1.2.81.81 0 01-.48.48 2.35 2.35 0 01-.52.1 7.68 7.68 0 01-1.97.1z" transform="translate(-27.53 -73.81)"/><path class="cls-12" d="M370.25 317.27a24 24 0 01-12-2.63s3.27 6.29 12.06 5.15z" transform="translate(-27.53 -73.81)"/><path class="cls-2" d="M359.59 290.78c.14.21 1-.15 2.11-.39s2.05-.3 2.09-.56-1-.62-2.28-.32-2.07 1.08-1.92 1.27zm11.95-2.17c.06.25 1 .21 2.24.23s2.18.07 2.24-.18-.91-.71-2.23-.72-2.31.43-2.25.67z" transform="translate(-27.53 -73.81)"/><path class="cls-2" d="M337.29 330.3s3.11-6.17 1.17-11.72-1.19-9.69 1.6-11.87c2-1.53 2.2-4.06 2-6.06a38.78 38.78 0 01.22-10c.78-4.79 2.17-9.89 5.05-13.65 3.74-4.89 10.51-9.36 16.14-6.86 2.61 1.16 3.94 1.09 6.67 3.54 0 0 2.5.16 3.83.37 4.56.71 7.52 5.59 8.05 9.16 1.24 8.26-3.32 10.62-3.78 16.24 0 0-.83-11.72-1.86-14.72a10 10 0 00-4.49-5.15c-3.38.31-4.65 2.31-5.75 5.52s-1.68 5.75-4.37 7.82c-2.52 1.95-4.35 5.24-9 3.59a9.8 9.8 0 00-.93 5.57c.5 2.85 3.67 3.63 2.86 8.47s-3.75 8.78-3.66 10.59" transform="translate(-27.53 -73.81)"/><path class="cls-12" d="M367 305.72a1.83 1.83 0 00-1.67-.55 1.67 1.67 0 00-1.09.69 1.05 1.05 0 000 1.2 1.22 1.22 0 001.34.24 3.93 3.93 0 001.22-.86 1.31 1.31 0 00.26-.32.33.33 0 000-.37" transform="translate(-27.53 -73.81)"/><path class="cls-2" d="M364.38 304.19c.16 0 .24 1.06 1.23 1.76s2.14.5 2.16.65-.25.23-.73.28a2.74 2.74 0 01-1.8-.48 2.36 2.36 0 01-1-1.48c-.04-.46.06-.73.14-.73zm-17.66-26.35a58.24 58.24 0 01-5.61 7.69c-2.22 2.44-4.43 5.24-4.59 8.54-.11 2.4.88 4.93-.07 7.13-.81 1.88-2.8 2.92-4.28 4.34a10.13 10.13 0 00-2.68 9.93c.64 2.22 2.06 4.39 1.56 6.64-.44 2-2.26 3.37-2.81 5.3s.17 3.8 1 5.53c1.26 2.65 3.13 5.37 6 6a7.08 7.08 0 005.61-1.4 14.06 14.06 0 003.75-4.59 28.07 28.07 0 003.4-10.88c.43-4.56-.26-9.14-.71-13.7a129.66 129.66 0 010-25.15c.2-2 1-4-.52-5.38" transform="translate(-27.53 -73.81)"/><path class="cls-11" d="M354.75 297.78c0-.58-1.54-1.64-2.12-1.63-1.34 0-3.51.65-3.54 4.36 0 5.3 5 3.75 5 3.6a39.34 39.34 0 00.66-6.33z" transform="translate(-27.53 -73.81)"/><path class="cls-12" d="M352.81 302.08s-.09.07-.25.14a.94.94 0 01-.69 0 2.29 2.29 0 01-1-2.06 3.08 3.08 0 01.27-1.32c.17-.39.42-.66.71-.7a.46.46 0 01.54.25c.07.15 0 .26.06.27s.12-.09.07-.31a.59.59 0 00-.2-.33.67.67 0 00-.51-.14 1.27 1.27 0 00-1 .81 3.07 3.07 0 00-.34 1.47 2.4 2.4 0 001.33 2.3.93.93 0 00.84-.13c.16-.12.19-.24.17-.25z" transform="translate(-27.53 -73.81)"/><path class="cls-6" d="M379.93 295.74a7.77 7.77 0 00-.29-.89 10.19 10.19 0 01-.33-2.49 26.28 26.28 0 01.35-3.74A24.1 24.1 0 00380 284a9 9 0 00-.45-2.39 6.81 6.81 0 00-1.11-2 7.57 7.57 0 00-3.07-2.24 6.85 6.85 0 00-2.51-.48 5.23 5.23 0 00-.7.05.68.68 0 00-.24.05h.94a7.24 7.24 0 012.43.56 7.32 7.32 0 012.93 2.22 6.24 6.24 0 011.05 1.9 8.6 8.6 0 01.43 2.3 24.72 24.72 0 01-.34 4.58 24.48 24.48 0 00-.28 3.78 9.27 9.27 0 00.43 2.53c.11.28.21.49.28.64a.88.88 0 00.14.24z" transform="translate(-27.53 -73.81)"/><path class="cls-13" d="M349.72 303.74s-.15.14-.34.46a2.87 2.87 0 00-.39 1.49 2.56 2.56 0 001.15 2 2.89 2.89 0 002.77.33 2.79 2.79 0 001.61-2.27 2.32 2.32 0 00-.23-1.24 2.51 2.51 0 00-.68-.84 2.42 2.42 0 00-1.45-.55 1.22 1.22 0 00-.56.09h.55a2.38 2.38 0 011.32.59 2.18 2.18 0 01.77 1.89 2.52 2.52 0 01-1.46 2 2.64 2.64 0 01-2.48-.28 2.36 2.36 0 01-1.1-1.75 3 3 0 01.29-1.43 3.68 3.68 0 00.23-.49z" transform="translate(-27.53 -73.81)"/><path class="cls-6" d="M336.62 300.74a1.3 1.3 0 01.09-.45 6.05 6.05 0 01.53-1.23 10.88 10.88 0 013.34-3.54 7.84 7.84 0 013.15-1.28 18.18 18.18 0 013.88-.2 26.88 26.88 0 004.2-.05 9.68 9.68 0 004.13-1.53 37.41 37.41 0 003.49-2.86 17.26 17.26 0 003-3c1.67-2.15 3.26-4 4.48-5.62a30 30 0 002.67-4c.53-1 .73-1.6.78-1.59a1.37 1.37 0 01-.11.45 10.54 10.54 0 01-.49 1.23 26.43 26.43 0 01-2.55 4.15c-1.19 1.67-2.77 3.55-4.4 5.69a17 17 0 01-3 3.05 35.29 35.29 0 01-3.54 2.92 10.19 10.19 0 01-4.35 1.6 27.87 27.87 0 01-4.28 0 18.72 18.72 0 00-3.79.14 7.67 7.67 0 00-3 1.17 11.27 11.27 0 00-3.37 3.34 13.27 13.27 0 00-.86 1.61z" transform="translate(-27.53 -73.81)"/><path class="cls-1" d="M365.12 337.24c1.91-5.85 6.57-11.8 11.7-9.66 5.7 2.4 7.29 5.43 10.42 10.12s5 10.07 6.93 15.39c.74 2.08 4.6 11.61 3.47 13.5-1 1.63-10.68 13.85-12.52 14.34-4.75 1.27-5-16.34-9.85-15.44-1.94.36-4.07.66-5.78-.31-2.18-1.24-2.84-4-3.3-6.46l-4.77-25.89" transform="translate(-27.53 -73.81)"/><path class="cls-1" d="M370.36 325.24l7.5 3.24c3.8 3 4.87 8.1 4.74 12.92l2.88 40 .24 13.83s-22.1 12-46.79-3.54l4.11-10.9-7.48-26c-.54-3.8-.86-11.66.13-15.4C338.23 329.82 345 327 352 325c0 0 7 5.86 13.79 4.62-.01.03 4.14-.35 4.57-4.38z" transform="translate(-27.53 -73.81)"/><path d="M380.69 368.77l-13 18.83c-1.7 2.45-3.46 5-6 6.58a11.51 11.51 0 01-12.29-.13c-3.6-2.41-6.8-8.86-6-13.13.09-.51 1.81.43 1.81.43a2.17 2.17 0 012.21-.43 12.44 12.44 0 012.13 1.06c4.08 2.17 9.26 1 13.08-1.58s6.64-6.38 9.57-9.94a9.75 9.75 0 013.87-3.27c1.6-.58 3.73-.1 4.41 1.46" transform="translate(-27.53 -73.81)"/><path class="cls-11" d="M358.3 364.82l1.14 4.4 22.79-16.61 7-9.92a6.29 6.29 0 013.94-2.55 6.29 6.29 0 014.85 1.05l6.49 4.6s-.17 3.5-1.75 2.8-4.73-2.45-4.73-2.45l-.88 8.39-3.86 2.8-3.85 3-25.73 25.55a11.49 11.49 0 01-18.36-3L341.52 372z" transform="translate(-27.53 -73.81)"/><path class="cls-12" d="M360 368.59a2 2 0 00-1 .59 5 5 0 00-1.33 2.36 9.46 9.46 0 00-.25 2.69 3.63 3.63 0 00.13 1.1 3.7 3.7 0 00.11-1.1 12.71 12.71 0 01.34-2.6 5.59 5.59 0 011.17-2.28c.5-.5.83-.71.83-.76zm38.05-22.01s-.08-.3-.35-.68a3 3 0 00-1.44-1.17 1.9 1.9 0 00-1.84.35c-.37.36-.36.71-.33.71s.14-.27.48-.52a1.83 1.83 0 011.58-.22 3.52 3.52 0 011.36 1c.31.33.49.56.54.53zm-4.05 2.24l.52-.3a2.79 2.79 0 011.31-.35 2.68 2.68 0 011.31.36c.31.18.48.34.52.3s-.08-.25-.38-.5a2.34 2.34 0 00-1.45-.5 2.25 2.25 0 00-1.44.49c-.34.25-.46.47-.39.5z" transform="translate(-27.53 -73.81)"/><path class="cls-1" d="M349.44 325.56c-5.13 2.14-10.47 4.44-14 8.71s-4.86 10.26-4.59 15.89.22 10.89 1.85 16.29c.64 2.11 2 7.27 3.12 9.59 1.32 2.64 7.53 5.46 10.51 5.38 4.92-.12 7.26-9.37 11.69-11.5 1.78-.85 4.54-4.58 5.35-6.37 1-2.28-2-6.61-3.1-8.86L348.77 331" transform="translate(-27.53 -73.81)"/><path class="cls-2" d="M358.92 369.32a1.59 1.59 0 01.14-.43 4.31 4.31 0 00.32-1.22 2.29 2.29 0 00-.71-1.73 2.83 2.83 0 00-2.38-.58h-.19v-.2a14.87 14.87 0 00-1.84-5.21 14.68 14.68 0 00-4.49-4.84 20.17 20.17 0 00-6.68-2.73 37.71 37.71 0 00-5.91-.87c-1.69-.12-3.07-.11-4-.09a9.59 9.59 0 01-1.49 0 7.26 7.26 0 011.48-.2 32.88 32.88 0 014.07-.08 34.38 34.38 0 016 .77 20 20 0 016.87 2.77 14.95 14.95 0 016.43 10.43l-.22-.17a3.14 3.14 0 012.65.75 2.44 2.44 0 01.7 2 3.7 3.7 0 01-.43 1.24q-.29.41-.32.39z" transform="translate(-27.53 -73.81)"/><path class="cls-2" d="M348 373.29a18.91 18.91 0 013.82-4.46 18.64 18.64 0 014.72-3.48c.09.12-2 1.67-4.37 3.86s-4.09 4.18-4.17 4.08z" transform="translate(-27.53 -73.81)"/><path d="M356.26 365a24 24 0 00-5.8 3.06 8.76 8.76 0 00-3.46 5.44l1.9-1.73a66.9 66.9 0 017.87-6.5" transform="translate(-27.53 -73.81)"/><path class="cls-2" d="M382.73 351.82a5.31 5.31 0 01.34-1.94 26.43 26.43 0 011.83-4.35c1.7-3.29 3.62-5.63 3.76-5.51a12.63 12.63 0 01-1 1.68c-.62 1-1.45 2.45-2.3 4.07a45.09 45.09 0 00-1.95 4.23 12.16 12.16 0 01-.68 1.82zm2.99 40.23a4.57 4.57 0 01-.15-1.07c-.07-.69-.13-1.7-.2-2.94-.13-2.48-.23-5.92-.25-9.71s0-7.23.12-9.71c0-1.24.09-2.25.13-2.94a4.62 4.62 0 01.12-1.08 4.29 4.29 0 01.08 1.08v12.65c0 3.7.06 7.09.09 9.7v2.94a4.15 4.15 0 01.06 1.08z" transform="translate(-27.53 -73.81)"/><path class="cls-14" d="M376.58 349.06a18.42 18.42 0 01-.59-2.62 19.62 19.62 0 01-.4-2.65 20.3 20.3 0 01.58 2.62 20.75 20.75 0 01.41 2.65z" transform="translate(-27.53 -73.81)"/><path class="cls-14" d="M378.19 345.52a10.42 10.42 0 01-2 .82 9.58 9.58 0 01-2.07.55 48.19 48.19 0 014.05-1.37z" transform="translate(-27.53 -73.81)"/><path class="cls-14" d="M375.2 348.42a15.13 15.13 0 01.76-2.06 13.86 13.86 0 01.92-2 25.34 25.34 0 01-1.68 4z" transform="translate(-27.53 -73.81)"/><path class="cls-14" d="M378.17 347.93a16 16 0 01-2-1.32 15.42 15.42 0 01-1.85-1.47 15.17 15.17 0 012 1.32 15.42 15.42 0 011.85 1.47zm4.34 31.9a19.41 19.41 0 01-.58-2.61 18.81 18.81 0 01-.41-2.65 19.34 19.34 0 01.58 2.62 18.79 18.79 0 01.41 2.64z" transform="translate(-27.53 -73.81)"/><path class="cls-14" d="M384.12 376.29a9.46 9.46 0 01-2 .82 10.18 10.18 0 01-2.07.56 16 16 0 012-.73 19.46 19.46 0 012.07-.65z" transform="translate(-27.53 -73.81)"/><path class="cls-14" d="M381.14 379.2a12.94 12.94 0 01.75-2.06 13.08 13.08 0 01.93-2 15.13 15.13 0 01-.76 2.06 13.69 13.69 0 01-.92 2z" transform="translate(-27.53 -73.81)"/><path class="cls-14" d="M384.11 378.71a15.17 15.17 0 01-2-1.32 15.42 15.42 0 01-1.85-1.47 16 16 0 012 1.32 15.42 15.42 0 011.85 1.47zm6.89-11.04a20.31 20.31 0 01-.59-2.61 19.85 19.85 0 01-.4-2.65 19.41 19.41 0 01.58 2.61 19 19 0 01.41 2.65z" transform="translate(-27.53 -73.81)"/><path class="cls-14" d="M392.64 364.13a16.24 16.24 0 01-4 1.37 17.05 17.05 0 012-.72 16.33 16.33 0 012-.65z" transform="translate(-27.53 -73.81)"/><path class="cls-14" d="M389.66 367a12.94 12.94 0 01.75-2.06 13.69 13.69 0 01.92-2 12.94 12.94 0 01-.75 2.06 13.69 13.69 0 01-.92 2z" transform="translate(-27.53 -73.81)"/><path class="cls-14" d="M392.62 366.54a15.5 15.5 0 01-1.95-1.32 14.91 14.91 0 01-1.86-1.47 32.86 32.86 0 013.81 2.79zm-13.34-29.02a18.48 18.48 0 01-.59-2.61 19.62 19.62 0 01-.4-2.65 19.41 19.41 0 01.58 2.61 21 21 0 01.41 2.65z" transform="translate(-27.53 -73.81)"/><path class="cls-14" d="M380.89 334a9.71 9.71 0 01-2 .82 10.83 10.83 0 01-2.07.56 17.62 17.62 0 012-.73 16.75 16.75 0 012.07-.65z" transform="translate(-27.53 -73.81)"/><path class="cls-14" d="M377.9 336.89a15.13 15.13 0 01.76-2.06 13.69 13.69 0 01.92-2 12.94 12.94 0 01-.75 2.06 13.08 13.08 0 01-.93 2z" transform="translate(-27.53 -73.81)"/><path class="cls-14" d="M380.87 336.4a16 16 0 01-2-1.32 15.42 15.42 0 01-1.85-1.47 15.17 15.17 0 012 1.32 15.42 15.42 0 011.85 1.47zm-12.99 22.7a19.41 19.41 0 01-.58-2.61 21 21 0 01-.41-2.65 20.31 20.31 0 01.59 2.61 19.85 19.85 0 01.4 2.65z" transform="translate(-27.53 -73.81)"/><path class="cls-14" d="M369.5 355.56a9.71 9.71 0 01-2 .82 11 11 0 01-2.07.56 17.62 17.62 0 012-.73 16.75 16.75 0 012.07-.65z" transform="translate(-27.53 -73.81)"/><path class="cls-14" d="M366.51 358.47a13.67 13.67 0 01.76-2.06 12.54 12.54 0 01.92-2 12.94 12.94 0 01-.75 2.06 13.08 13.08 0 01-.93 2z" transform="translate(-27.53 -73.81)"/><path class="cls-14" d="M369.48 358a32.86 32.86 0 01-3.81-2.79 15.17 15.17 0 012 1.32 14.33 14.33 0 011.81 1.47zm.25 29.61a19.34 19.34 0 01-.58-2.62 20.74 20.74 0 01-.41-2.64 18.48 18.48 0 01.59 2.61 19.62 19.62 0 01.4 2.65z" transform="translate(-27.53 -73.81)"/><path class="cls-14" d="M371.35 384.07a10.42 10.42 0 01-2 .82 9.58 9.58 0 01-2.07.55 18.89 18.89 0 012-.72 16.75 16.75 0 012.07-.65z" transform="translate(-27.53 -73.81)"/><path class="cls-14" d="M368.36 387a13.24 13.24 0 01.76-2.06 12.54 12.54 0 01.92-2 12.94 12.94 0 01-.75 2.06 13.69 13.69 0 01-.93 2z" transform="translate(-27.53 -73.81)"/><path class="cls-14" d="M371.33 386.48a15.17 15.17 0 01-2-1.32 15.42 15.42 0 01-1.85-1.47 15.17 15.17 0 012 1.32 15.42 15.42 0 011.85 1.47zm8.21 8.17A20.23 20.23 0 01379 392a19.6 19.6 0 01-.4-2.64 19.41 19.41 0 01.58 2.61 18.81 18.81 0 01.36 2.68z" transform="translate(-27.53 -73.81)"/><path class="cls-14" d="M381.15 391.11a10.08 10.08 0 01-2 .82 9.74 9.74 0 01-2.06.55 16 16 0 012-.73 17.26 17.26 0 012.06-.64z" transform="translate(-27.53 -73.81)"/><path class="cls-14" d="M378.17 394a13 13 0 01.75-2.05 13.69 13.69 0 01.92-2 12.94 12.94 0 01-.75 2.06 13.86 13.86 0 01-.92 1.99z" transform="translate(-27.53 -73.81)"/><path class="cls-14" d="M381.13 393.52a15.5 15.5 0 01-1.95-1.32 14.49 14.49 0 01-1.85-1.47 15.5 15.5 0 011.95 1.32 14.49 14.49 0 011.85 1.47zm-20.38 4.82a20.31 20.31 0 01-.59-2.61 19.85 19.85 0 01-.4-2.65 19.41 19.41 0 01.58 2.61 19 19 0 01.41 2.65z" transform="translate(-27.53 -73.81)"/><path class="cls-14" d="M362.36 394.8a16.24 16.24 0 01-4 1.37 19.52 19.52 0 012-.72 16.33 16.33 0 012-.65z" transform="translate(-27.53 -73.81)"/><path class="cls-14" d="M359.38 397.71a12.94 12.94 0 01.75-2.06 13.69 13.69 0 01.92-2 12.94 12.94 0 01-.75 2.06 13.69 13.69 0 01-.92 2z" transform="translate(-27.53 -73.81)"/><path class="cls-14" d="M362.34 397.21a15.5 15.5 0 01-1.95-1.32 15 15 0 01-1.85-1.46 15.5 15.5 0 011.95 1.32 16 16 0 011.85 1.46zm-17.66-4.65a21.44 21.44 0 01-.58-2.61 23.48 23.48 0 01-.41-2.65 18.48 18.48 0 01.59 2.61 19.85 19.85 0 01.4 2.65z" transform="translate(-27.53 -73.81)"/><path class="cls-14" d="M346.3 389a9.71 9.71 0 01-2 .82 10.83 10.83 0 01-2.07.56 17.62 17.62 0 012-.73 16.75 16.75 0 012.07-.65z" transform="translate(-27.53 -73.81)"/><path class="cls-14" d="M343.31 391.93a13.67 13.67 0 01.76-2.06 12.54 12.54 0 01.92-2 12.94 12.94 0 01-.75 2.06 13.08 13.08 0 01-.93 2z" transform="translate(-27.53 -73.81)"/><path class="cls-14" d="M346.28 391.43a15.17 15.17 0 01-2-1.32 16 16 0 01-1.85-1.46 15.17 15.17 0 012 1.32 16 16 0 011.85 1.46zm20.48-51.82a19.41 19.41 0 01-.58-2.61 19 19 0 01-.41-2.65 20.31 20.31 0 01.59 2.61 19.62 19.62 0 01.4 2.65z" transform="translate(-27.53 -73.81)"/><path class="cls-14" d="M368.38 336.07a16.13 16.13 0 01-4.05 1.37 17.93 17.93 0 012-.72 16.75 16.75 0 012.05-.65z" transform="translate(-27.53 -73.81)"/><path class="cls-14" d="M365.39 339a12.11 12.11 0 01.76-2.06 12.54 12.54 0 01.92-2 13.67 13.67 0 01-.76 2.06 13.09 13.09 0 01-.92 2z" transform="translate(-27.53 -73.81)"/><path class="cls-14" d="M368.36 338.48a15.17 15.17 0 01-2-1.32 15.42 15.42 0 01-1.85-1.47 15.17 15.17 0 012 1.32 15.42 15.42 0 011.85 1.47zm-29.92 9.23a20.23 20.23 0 01-.59-2.62 19.84 19.84 0 01-.4-2.64 19.41 19.41 0 01.58 2.61 18.81 18.81 0 01.41 2.65z" transform="translate(-27.53 -73.81)"/><path class="cls-14" d="M340.05 344.17a10.42 10.42 0 01-2 .82 9.74 9.74 0 01-2.06.55 16 16 0 012-.73 17.26 17.26 0 012.06-.64z" transform="translate(-27.53 -73.81)"/><path class="cls-14" d="M337.07 347.07a12.65 12.65 0 01.75-2.05 13.69 13.69 0 01.92-2 12.94 12.94 0 01-.75 2.06 13.86 13.86 0 01-.92 1.99z" transform="translate(-27.53 -73.81)"/><path class="cls-14" d="M340 346.58a15.5 15.5 0 01-1.95-1.32 14.49 14.49 0 01-1.85-1.47 30.9 30.9 0 013.8 2.79zm15.85 8.06a21.44 21.44 0 01-.58-2.61 23.48 23.48 0 01-.41-2.65 18.48 18.48 0 01.59 2.61 19.62 19.62 0 01.4 2.65z" transform="translate(-27.53 -73.81)"/><path class="cls-14" d="M357.47 351.1a9.71 9.71 0 01-2 .82 9.58 9.58 0 01-2.07.55 18.89 18.89 0 012-.72 16.75 16.75 0 012.07-.65z" transform="translate(-27.53 -73.81)"/><path class="cls-14" d="M354.48 354a13.67 13.67 0 01.76-2.06 12.54 12.54 0 01.92-2 12.94 12.94 0 01-.75 2.06 13.08 13.08 0 01-.93 2z" transform="translate(-27.53 -73.81)"/><path class="cls-14" d="M357.45 353.51a15.17 15.17 0 01-2-1.32 14.33 14.33 0 01-1.85-1.47 32.86 32.86 0 013.81 2.79zM339 362.75a20.31 20.31 0 01-.59-2.61 19.62 19.62 0 01-.4-2.65 19.34 19.34 0 01.58 2.62 18.79 18.79 0 01.41 2.64z" transform="translate(-27.53 -73.81)"/><path class="cls-14" d="M340.64 359.21a9.4 9.4 0 01-2 .82 10.18 10.18 0 01-2.06.56 16 16 0 012-.73 18.65 18.65 0 012.06-.65z" transform="translate(-27.53 -73.81)"/><path class="cls-14" d="M337.66 362.12a12.94 12.94 0 01.75-2.06 13.69 13.69 0 01.92-2 12.94 12.94 0 01-.75 2.06 13.69 13.69 0 01-.92 2z" transform="translate(-27.53 -73.81)"/><path class="cls-14" d="M340.62 361.63a15.5 15.5 0 01-1.95-1.32 14.49 14.49 0 01-1.85-1.47 15.5 15.5 0 011.95 1.32 14.49 14.49 0 011.85 1.47zm8.9 4.57a19.41 19.41 0 01-.58-2.61 19 19 0 01-.41-2.65 20.31 20.31 0 01.59 2.61 19.85 19.85 0 01.4 2.65z" transform="translate(-27.53 -73.81)"/><path class="cls-14" d="M351.14 362.66a16.13 16.13 0 01-4.05 1.37 17.93 17.93 0 012-.72 16.75 16.75 0 012.05-.65z" transform="translate(-27.53 -73.81)"/><path class="cls-14" d="M348.15 365.57a27.57 27.57 0 011.68-4.05 27.57 27.57 0 01-1.68 4.05z" transform="translate(-27.53 -73.81)"/><path class="cls-14" d="M351.12 365.07a15.17 15.17 0 01-2-1.32 16 16 0 01-1.85-1.46 14 14 0 012 1.32 16 16 0 011.85 1.46zm-8.3 11.02a18.48 18.48 0 01-.59-2.61 19.62 19.62 0 01-.4-2.65 21.35 21.35 0 01.58 2.62 23.51 23.51 0 01.41 2.64z" transform="translate(-27.53 -73.81)"/><path class="cls-14" d="M344.43 372.56a10.83 10.83 0 01-2 .81 9.3 9.3 0 01-2.07.56 17.62 17.62 0 012-.73 15.62 15.62 0 012.07-.64z" transform="translate(-27.53 -73.81)"/><path class="cls-14" d="M341.44 375.46a13.67 13.67 0 01.76-2.06 13.09 13.09 0 01.92-2 12.94 12.94 0 01-.75 2.06 13.08 13.08 0 01-.93 2z" transform="translate(-27.53 -73.81)"/><path class="cls-14" d="M344.41 375a15.17 15.17 0 01-2-1.32 15.42 15.42 0 01-1.85-1.47 15.17 15.17 0 012 1.32 15.42 15.42 0 011.85 1.47z" transform="translate(-27.53 -73.81)"/><path class="cls-2" d="M355.41 308.72a9.16 9.16 0 00.16 9.17c1.1 1.79 2.84 3.19 3.69 5.12 1 2.36.56 5.06.26 7.62s-.36 5.4 1.27 7.39c.69.83 1.61 1.44 2.3 2.26a2.76 2.76 0 01.61 3 3.22 3.22 0 01-1.78 1.29 14 14 0 01-15.21-3.94l-.41 2.73a20 20 0 01-4.46-24.7" transform="translate(-27.53 -73.81)"/></g><g id="Character_2" data-name="Character 2"><path class="cls-4" d="M218.22 345.43h-10.64a51 51 0 103.95 8.5z" transform="translate(-27.53 -73.81)"/><path class="cls-2" d="M218.22 345.43L211.6 354v-.09a51.24 51.24 0 012.5 10.05 50.72 50.72 0 01.52 6.41c0 1.14-.09 2.31-.12 3.51a29.27 29.27 0 01-.3 3.69c-.19 1.25-.38 2.53-.58 3.85s-.66 2.6-1 3.94c-.08.33-.17.67-.26 1s-.23.66-.35 1c-.24.67-.49 1.34-.73 2s-.47 1.37-.78 2-.64 1.33-1 2a51.41 51.41 0 01-29.69 26.37l-1.33.48-1.38.36-2.78.72-.7.18-.71.11-1.44.22-2.89.44-3 .16-1.48.08a9.39 9.39 0 01-1.5 0l-3-.15-1.51-.07c-.5-.05-1-.15-1.51-.22l-3-.46a9.87 9.87 0 01-1.51-.31l-1.5-.39c-1-.27-2-.48-3-.81l-2.95-1.08c-.49-.18-1-.35-1.48-.55l-1.42-.69-2.87-1.38c-.93-.53-1.83-1.1-2.75-1.65l-1.38-.84c-.46-.27-.87-.63-1.31-.94l-2.6-1.95c-.85-.67-1.62-1.44-2.44-2.17a54 54 0 01-4.58-4.74c-.71-.84-1.34-1.76-2-2.64l-1-1.34a16 16 0 01-.9-1.41l-1.74-2.87c-.54-1-1-2-1.49-3l-.74-1.53c-.22-.51-.39-1.05-.59-1.58-.39-1.06-.78-2.11-1.16-3.16s-.57-2.17-.85-3.25l-.42-1.61c-.12-.54-.18-1.1-.27-1.65-.17-1.09-.33-2.18-.5-3.27s-.13-2.2-.21-3.29a47.38 47.38 0 01.09-6.53 24.46 24.46 0 01.38-3.21c.17-1.06.31-2.13.51-3.18s.53-2.06.79-3.09l.4-1.54c.15-.5.35-1 .53-1.49l1.08-3c.38-1 .89-1.89 1.32-2.83l.67-1.4.34-.7.4-.66 1.6-2.62a23.19 23.19 0 011.74-2.5l1.81-2.42 2-2.21a23 23 0 012.07-2.12 46.25 46.25 0 014.44-3.78l2.31-1.73c.8-.51 1.62-1 2.43-1.48a50.78 50.78 0 0120.26-6.94 57.17 57.17 0 019.92-.25c1.6.18 3.18.27 4.7.59.77.14 1.53.23 2.28.41l2.2.53A51.46 51.46 0 01201.63 337a56 56 0 016 8.36l-.08-.05 10.64.09-10.64.09h-.05a55.67 55.67 0 00-6.06-8.28 51.12 51.12 0 00-25.28-15.42l-2.19-.53c-.74-.17-1.5-.26-2.26-.4-1.51-.31-3.08-.4-4.67-.57a57.28 57.28 0 00-9.84.27 50.35 50.35 0 00-20.07 6.92c-.8.49-1.61 1-2.41 1.47l-2.28 1.71a45.58 45.58 0 00-4.4 3.76 21.31 21.31 0 00-2 2.1l-2 2.19-1.79 2.4a21.46 21.46 0 00-1.72 2.48c-.53.86-1 1.73-1.58 2.6l-.4.65-.33.69-.67 1.39c-.43.93-.93 1.83-1.3 2.8s-.71 2-1.07 2.93c-.17.49-.37 1-.53 1.47l-.39 1.52-.78 3.07c-.2 1-.33 2.09-.5 3.14a22.44 22.44 0 00-.37 3.18 46.37 46.37 0 00-.09 6.46c.07 1.08.07 2.18.2 3.26s.34 2.16.5 3.24c.09.55.15 1.09.27 1.63l.41 1.6c.28 1.07.54 2.15.84 3.21s.77 2.09 1.15 3.13c.2.52.37 1.06.59 1.57l.73 1.51c.49 1 .95 2 1.47 3s1.15 1.9 1.73 2.84c.3.47.55 1 .88 1.4l1 1.32c.68.87 1.29 1.79 2 2.62a52.9 52.9 0 004.53 4.69c.81.72 1.58 1.48 2.41 2.15l2.58 1.93c.43.31.84.66 1.3.94l1.36.83c.91.54 1.81 1.11 2.72 1.63l2.84 1.37 1.41.68c.48.2 1 .37 1.47.55l2.91 1.07c1 .33 2 .53 3 .8l1.48.39a9.51 9.51 0 001.5.31l3 .46c.49.07 1 .16 1.49.21l1.5.08 3 .15a9.14 9.14 0 001.48 0l1.47-.07 2.93-.16 2.87-.43 1.42-.22.71-.11.69-.18 2.76-.7 1.36-.35 1.32-.48a51.12 51.12 0 0029.5-26.1l1-2c.31-.66.52-1.35.78-2s.49-1.34.73-2l.36-1 .26-1c.34-1.33.68-2.63 1-3.91s.4-2.58.59-3.82a28.88 28.88 0 00.32-3.66c0-1.2.17-2.36.13-3.49a50.34 50.34 0 00-.48-6.38 51.33 51.33 0 00-2.42-10c4.28-5.61 6.27-8.08 6.65-8.57z" transform="translate(-27.53 -73.81)"/><path class="cls-7" d="M117.59 371.23l-5.91 15.92-4.48-36a12.59 12.59 0 011.32-6.66 13.1 13.1 0 011.6-2.58 14 14 0 012.76-2.6c1-.57.83-2.07-.2-2.18s-3.86 1.41-6.08 4.44-2.45-2.81-2.58-4.93-.81-8.68-1.49-9.14c-1-.68-1.94.29-1.76 2.41s.24 8.52-.88 8.56-1.59-10.8-1.59-10.8.27-2.34-1-2.34c-2.34 0-1 11.47-.82 12.55.11.76-1.11.85-1.19 0s-.29-10.77-2.64-10.78c-1.83 0 1 9.43-.08 11.55s-1.44-7.41-3.19-7.35c-.65 0-1.14.13-.16 5.56.52 2.91 2.44 7.11 3 12.8l.16 1.47c.11 7.09.94 33.81 7.39 50.07a13.17 13.17 0 0023.23 2.35A123.23 123.23 0 00135.56 379z" transform="translate(-27.53 -73.81)"/><path class="cls-16" d="M95.73 346.7c0 .05.37 0 .93.24a3.28 3.28 0 011.8 1.49l.23.4.12-.44a5.52 5.52 0 01.87-1.73 6.26 6.26 0 013-2.21c.92-.33 1.55-.31 1.54-.38a2.83 2.83 0 00-1.63.11 5.91 5.91 0 00-3.23 2.23 5.54 5.54 0 00-.9 1.87h.34a3.32 3.32 0 00-2.06-1.52c-.64-.19-1.01-.1-1.01-.06z" transform="translate(-27.53 -73.81)"/><path class="cls-1" d="M151.75 330h20.61S191 336.63 197 341.27s15.35 37.35 15.35 37.35l-18.61-.55-1.39 28.09c-19.06 13.57-41.93 12.78-59.61.31L131.46 385h.13l-21.15-6.72s11.91-31.29 15.54-37.34c3.17-5.28 21.58-10 25.77-10.87" transform="translate(-27.53 -73.81)"/><path class="cls-2" d="M173.62 331.74a1.3 1.3 0 010 .37 10.17 10.17 0 01-.17 1 12.25 12.25 0 01-1.46 3.54 12.53 12.53 0 01-4 4 12.28 12.28 0 01-13.31-.38 12.38 12.38 0 01-3.76-4.25 11.94 11.94 0 01-1.26-3.62 7.5 7.5 0 01-.11-1 1.42 1.42 0 010-.36s.07.5.26 1.37a12.49 12.49 0 005.07 7.63 12.16 12.16 0 0012.94.37 12.48 12.48 0 004-3.89 13.09 13.09 0 001.54-3.44c.17-.84.22-1.34.26-1.34zm-41.99 31.82c.1 0 .19 4.79.19 10.7s-.08 10.71-.18 10.71-.18-4.79-.18-10.71.07-10.7.17-10.7zm61.99-5.24c.1 0 .18 4.8.19 10.71s-.08 10.7-.18 10.7-.18-4.79-.18-10.7.07-10.71.17-10.71zm-61.99 5.24a12.48 12.48 0 01-.84-1.75c-.49-1.1-1.1-2.64-1.72-4.36s-1.2-3.27-1.63-4.39a13.91 13.91 0 01-.64-1.83 10.63 10.63 0 01.85 1.75c.48 1.1 1.09 2.64 1.71 4.36s1.2 3.27 1.63 4.39a11 11 0 01.64 1.83z" transform="translate(-27.53 -73.81)"/><path class="cls-2" d="M131.71 365.11a36.23 36.23 0 01-3.51-3 35.18 35.18 0 01-3.3-3.2 31.91 31.91 0 013.51 3 32.46 32.46 0 013.3 3.2zm63.11-14.69a30.09 30.09 0 01-.48 4.23 29.52 29.52 0 01-.78 4.18 29.25 29.25 0 01.47-4.23 27.63 27.63 0 01.79-4.18z" transform="translate(-27.53 -73.81)"/><path d="M131.32 384.77a37.88 37.88 0 01-4.46-13.65 24.34 24.34 0 012.45-14l2.4 7.55z" transform="translate(-27.53 -73.81)"/><path class="cls-4" d="M190.46 337.47s-.19.19-.57.52l-1.68 1.45-6.21 5.29-20.69 17.41-.1.09-.1-.09-.34-.29-20.87-17.68-6.3-5.39-1.7-1.48-.58-.53s.22.16.62.48l1.74 1.44c1.55 1.28 3.71 3.09 6.36 5.31l20.9 17.62.34.28h-.2l20.75-17.33 6.3-5.22 1.72-1.41c.39-.32.61-.47.61-.47z" transform="translate(-27.53 -73.81)"/><path class="cls-4" d="M194.82 339.9s-.22.21-.66.59l-1.92 1.65-7.12 6L161.53 368l-.1.09-.1-.09-.33-.28-23.73-20.12-7.17-6.13-1.94-1.68c-.44-.38-.66-.6-.66-.6l.7.55 2 1.64 7.23 6.05 23.79 20.06.34.28h-.21L185 348l7.18-5.95 2-1.61c.39-.36.64-.54.64-.54zm0 42.45s-.21.2-.62.56l-1.81 1.55-6.69 5.68-22.2 18.67-.1.09-.1-.09-.32-.26-22.33-18.95-6.74-5.77-1.83-1.58-.62-.57s.24.17.66.52l1.86 1.54 6.81 5.69 22.4 18.88.31.26h-.2L185.56 390l6.75-5.6 1.85-1.51c.42-.37.66-.54.66-.54z" transform="translate(-27.53 -73.81)"/><path class="cls-4" d="M195.37 387.69s-.21.2-.62.56l-1.81 1.55-6.69 5.68-22.2 18.67-.1.09-.1-.09-.32-.26-22.33-18.95-6.74-5.77-1.83-1.58-.63-.59s.24.17.66.52l1.86 1.54 6.81 5.69 22.4 18.88.31.26h-.2l22.26-18.6 6.75-5.6 1.85-1.51c.43-.32.67-.49.67-.49z" transform="translate(-27.53 -73.81)"/><rect class="cls-6" x="123.09" y="279.63" width="20.48" height="33.17" rx="3.38"/><path class="cls-7" d="M211.83 384.57c.18 1.09 3.14 18.22 2.6 21.64s-1.44 7.93-5.41 9.56-9.73-.54-13-6.13-17.3-25.24-17.3-25.24l-10.46-1.27v-17.48l20 12.74 8.13 7.37-.13-1.64z" transform="translate(-27.53 -73.81)"/><path class="cls-16" d="M187.41 377.94c.07-.07 4.42 3.69 9.71 8.4s9.55 8.59 9.48 8.67-4.42-3.69-9.72-8.4-9.54-8.61-9.47-8.67z" transform="translate(-27.53 -73.81)"/><path class="cls-7" d="M154.59 371.88l13.69-6.23 2.09 5.51-2.09 12-3.09-3.21a2.82 2.82 0 01-.71-2.57l.33-1.46s-7 1.7-8.17 2c-1.43.36-1.66-1.52-.55-2.2 1.56-1 10-4.37 10-4.37l-10.61 2.94a1.26 1.26 0 01-1.55-.86 1.27 1.27 0 01.66-1.55z" transform="translate(-27.53 -73.81)"/><path class="cls-7" d="M143.57 290.7l3 2.65 1.67 5.2-4.67-2.25v-5.6z"/><path class="cls-4" d="M162.34 359.5a1.31 1.31 0 11-1.31-1.31 1.31 1.31 0 011.31 1.31z" transform="translate(-27.53 -73.81)"/><path class="cls-2" d="M161 360.83a1.33 1.33 0 111.33-1.33 1.34 1.34 0 01-1.33 1.33zm0-2.61a1.28 1.28 0 101.28 1.28 1.28 1.28 0 00-1.28-1.28z" transform="translate(-27.53 -73.81)"/><path class="cls-7" d="M163.59 346.2a10.29 10.29 0 009.69-10.37c0-3.29-.06-6.12-.06-6.12s8.35-1.3 8.46-9.65-1.35-27.54-1.35-27.54a29 29 0 00-29.18 3.67l-1.24.95 2.83 39.52a10.29 10.29 0 0010.85 9.54z" transform="translate(-27.53 -73.81)"/><path class="cls-16" d="M173.23 329.59a19.44 19.44 0 01-10.89-3.09s2.57 6 10.91 5.26z" transform="translate(-27.53 -73.81)"/><path class="cls-7" d="M150.94 305.79c-.14-.06-5.74-1.7-5.55 4s5.88 4.35 5.88 4.18-.33-8.18-.33-8.18z" transform="translate(-27.53 -73.81)"/><path class="cls-16" d="M149.46 311.89s-.1.07-.27.15a1 1 0 01-.74 0 2.45 2.45 0 01-1.21-2.17 3.36 3.36 0 01.23-1.44 1.12 1.12 0 01.73-.78.49.49 0 01.59.25c.08.16.05.27.08.28s.12-.1.07-.33a.6.6 0 00-.24-.35.73.73 0 00-.55-.13 1.37 1.37 0 00-1 .92 3.34 3.34 0 00-.3 1.6 2.6 2.6 0 001.53 2.42 1.08 1.08 0 00.91-.18c.16-.13.19-.24.17-.24z" transform="translate(-27.53 -73.81)"/><path class="cls-2" d="M177.59 305a1.2 1.2 0 01-1.15 1.21 1.14 1.14 0 01-1.23-1.08 1.19 1.19 0 011.15-1.2 1.13 1.13 0 011.23 1.07z" transform="translate(-27.53 -73.81)"/><path class="cls-2" d="M178.75 304.27c-.15.16-1.05-.51-2.34-.51s-2.22.65-2.36.49.08-.35.49-.65a3.21 3.21 0 011.89-.58 3.11 3.11 0 011.86.6c.4.3.53.58.46.65zm-13.75 1.1a1.2 1.2 0 01-1.15 1.21 1.14 1.14 0 01-1.23-1.08 1.19 1.19 0 011.15-1.2 1.13 1.13 0 011.23 1.07z" transform="translate(-27.53 -73.81)"/><path class="cls-2" d="M166.13 304.51c-.15.16-1-.51-2.34-.51s-2.22.65-2.36.49.08-.35.49-.65a3.19 3.19 0 011.89-.58 3.11 3.11 0 011.86.6c.4.3.53.58.46.65zm4.66 9.49a8.47 8.47 0 012.08-.37c.33 0 .64-.1.7-.33a1.72 1.72 0 00-.22-1l-1-2.49a42.94 42.94 0 01-2.18-6.54 43 43 0 012.7 6.34q.48 1.32.93 2.52a1.89 1.89 0 01.17 1.28.8.8 0 01-.54.48 2 2 0 01-.56.08 7.82 7.82 0 01-2.08.03zm-3.79.92c.21 0 .21 1.38 1.4 2.37s2.68.84 2.69 1-.33.27-1 .29a3.5 3.5 0 01-2.24-.78 3 3 0 01-1.09-2c0-.54.15-.89.24-.88zm-.54-15.44c-.13.35-1.41.18-2.91.36s-2.73.6-2.93.28c-.09-.15.12-.48.61-.81a4.89 4.89 0 012.17-.76 4.77 4.77 0 012.28.27c.56.18.83.49.78.66zm11.82 1.07c-.23.3-1.11 0-2.18 0s-2 .2-2.17-.11c-.09-.15 0-.44.45-.72a3 3 0 011.76-.47 3 3 0 011.74.58c.37.28.5.58.4.72z" transform="translate(-27.53 -73.81)"/><path class="cls-2" d="M184.4 287.24a3.06 3.06 0 00-1.14-2.75 2.18 2.18 0 00-2.83.21 2.56 2.56 0 00-2.2-3.1c-1.36-.08-2.52.95-3.84 1.31a6.28 6.28 0 01-3.9-.45c-1.24-.5-2.39-1.19-3.64-1.65a10.69 10.69 0 00-13.67 6.28 4.74 4.74 0 00-5 1.9 7.78 7.78 0 00-1.19 5.48 17.34 17.34 0 00.95 3.75v.32c.08 4.6.6 10 2.56 10 3.42.06 2.6-6.38 2.6-6.38 4.2-1.62 2.63-7.9 3.68-8.86s3.24-3.16 12 1.32a17 17 0 0010.42 1.13h.27a.15.15 0 01.07 0 7.84 7.84 0 002.25-1 4.42 4.42 0 001.86-2.06 2.46 2.46 0 00-.48-2.62 5.39 5.39 0 001.23-2.83z" transform="translate(-27.53 -73.81)"/><path class="cls-4" d="M148 297.62s.38.36 1.09.8a5.3 5.3 0 006.07-.27c.66-.49 1-.93 1-.89a3.12 3.12 0 01-.89 1.07 5.17 5.17 0 01-6.32.28 2.83 2.83 0 01-.95-.99zm7.66-2.71a3.38 3.38 0 01-1.11.84 7 7 0 01-3.26.85 7.25 7.25 0 01-3.28-.72 3.43 3.43 0 01-1.14-.8c0-.05.46.26 1.23.59a7.82 7.82 0 003.19.62 8 8 0 003.16-.73c.76-.36 1.18-.69 1.21-.65z" transform="translate(-27.53 -73.81)"/></g><g id="Character_1" data-name="Character 1"><path class="cls-4" d="M124.45 182.4l-7.67 4.81a43.13 43.13 0 106.68 4.33z" transform="translate(-27.53 -73.81)"/><path class="cls-2" d="M124.45 182.4l-.9 9.15v-.08a43.55 43.55 0 016.34 6.11 44.34 44.34 0 013.27 4.39c.55.81 1 1.71 1.5 2.59a25.26 25.26 0 011.45 2.79l1.32 3c.35 1.07.7 2.17 1.06 3.29l.27.85.19.87.39 1.79c.11.6.28 1.2.36 1.82l.21 1.88a43.8 43.8 0 01-9.5 32.43l-.74 1-.83.88-1.68 1.77a20.6 20.6 0 01-1.83 1.66l-1.89 1.63c-1.37 1-2.72 2-4.17 2.86l-2.27 1.24-1.13.63c-.39.19-.79.35-1.18.52l-2.4 1a25.91 25.91 0 01-2.48.86c-.85.25-1.68.56-2.54.77l-2.61.55-1.32.27-1.34.15-2.69.3h-4.1c-.46 0-.92-.06-1.37-.09l-2.76-.23c-.92-.1-1.82-.31-2.74-.46a45.53 45.53 0 01-5.44-1.36c-.9-.28-1.77-.66-2.65-1a20.15 20.15 0 01-2.61-1.13l-2.56-1.28c-.83-.48-1.62-1-2.44-1.52l-1.22-.77c-.39-.27-.76-.58-1.14-.87L68 259c-.71-.64-1.38-1.3-2.08-1.95l-1-1c-.33-.34-.62-.71-.93-1.06l-1.85-2.14c-.59-.73-1.08-1.53-1.63-2.28a38.63 38.63 0 01-2.88-4.76 19.39 19.39 0 01-1.18-2.48c-.36-.85-.74-1.68-1.07-2.52s-.55-1.73-.82-2.59l-.42-1.22c-.12-.43-.19-.88-.29-1.32-.19-.87-.37-1.75-.55-2.62s-.22-1.76-.33-2.63a36.94 36.94 0 01-.26-5.24 20.33 20.33 0 01.13-2.59l.21-2.56c.16-.84.31-1.68.46-2.51A18.56 18.56 0 0154 215a39 39 0 011.5-4.74l.88-2.28c.35-.73.73-1.45 1.08-2.17A43.26 43.26 0 0169 191.7a49.34 49.34 0 017-4.7 45.86 45.86 0 017.31-3 43.51 43.51 0 0113.93-2 42.82 42.82 0 0111.42 1.78 46.17 46.17 0 018.12 3.31h-.09l7.72-4.73-7.62 4.88h-.05a47.07 47.07 0 00-8.11-3.23 43.44 43.44 0 00-25.17.3 46 46 0 00-7.24 3 49.26 49.26 0 00-7 4.64 42.94 42.94 0 00-11.34 14c-.35.72-.72 1.42-1.07 2.15l-.81 2.37a38.16 38.16 0 00-1.47 4.69 19.83 19.83 0 00-.53 2.43c-.14.83-.29 1.65-.44 2.48l-.21 2.54a18 18 0 00-.12 2.55 36 36 0 00.26 5.18c.11.87.15 1.75.32 2.61l.55 2.59c.1.43.18.87.29 1.3l.4 1.27.82 2.56c.33.84.71 1.66 1.06 2.49a20.43 20.43 0 001.16 2.46 39.7 39.7 0 002.86 4.69c.54.75 1 1.54 1.61 2.25l1.82 2.12c.31.35.6.72.93 1l1 1c.68.64 1.35 1.31 2 1.94l2.24 1.73c.38.29.74.6 1.13.87l1.21.76c.8.49 1.59 1 2.41 1.49l2.52 1.27a21 21 0 002.58 1.12c.88.32 1.73.7 2.62 1a46.81 46.81 0 005.37 1.34c.91.15 1.81.35 2.71.46l2.73.22c.45 0 .9.1 1.35.1h1.36c.9 0 1.8 0 2.7-.05l2.66-.29 1.32-.15c.44-.08.87-.18 1.3-.27l2.59-.54c.85-.2 1.67-.51 2.5-.76a25.43 25.43 0 002.46-.84l2.37-1c.39-.17.79-.32 1.17-.51l1.11-.62 2.22-1.24c1.43-.88 2.77-1.89 4.13-2.82l1.87-1.61a21.51 21.51 0 001.8-1.63l1.67-1.75.83-.87.76-1.03a43.5 43.5 0 009.49-32.1l-.21-1.86c-.07-.62-.24-1.22-.35-1.81s-.25-1.19-.37-1.77l-.19-.87-.26-.84c-.36-1.12-.7-2.21-1-3.28s-.88-2-1.3-3a24.13 24.13 0 00-1.42-2.78c-.51-.88-.94-1.78-1.48-2.58a43.7 43.7 0 00-9.49-10.51v-.05c.65-5.91.96-8.55 1.03-9.15z" transform="translate(-27.53 -73.81)"/><path class="cls-17" d="M122.05 221l5.65 12 1.07-28.2a9.86 9.86 0 00-1.46-5.08 10 10 0 00-3.73-3.72c-.82-.38-.78-1.55 0-1.71s3.09.83 5 3 1.72-2.34 1.67-4 .06-6.78.55-7.19c.74-.59 1.53.1 1.53 1.75s.38 6.63 1.25 6.59.52-8.48.52-8.48-.37-1.8.64-1.89c1.81-.15 1.52 8.83 1.47 9.68 0 .6.92.58.92 0s-.54-8.42 1.31-8.59c1.42-.13-.17 7.39.83 9s.62-5.84 2-5.91c.5 0 .88 0 .49 4.29-.21 2.3-1.42 5.68-1.5 10.13v1.16c.38 5.5 1.51 26.29-2.4 39.33a10.26 10.26 0 01-17.86 3.28 95.48 95.48 0 01-11.4-18.19z" transform="translate(-27.53 -73.81)"/><path class="cls-12" d="M137.37 200.53s-.28.06-.7.25a2.61 2.61 0 00-1.3 1.28l-.15.32-.12-.34a4.49 4.49 0 00-.79-1.28 4.94 4.94 0 00-2.47-1.51c-.73-.19-1.22-.14-1.22-.2a2.48 2.48 0 011.27 0 4.68 4.68 0 012.66 1.52 4.17 4.17 0 01.82 1.39h-.27a2.62 2.62 0 011.5-1.32c.48-.18.77-.14.77-.11z" transform="translate(-27.53 -73.81)"/><path class="cls-13" transform="rotate(-4.91 -793.297 473.87)" d="M80.96 185.63h.78v8.45h-.78z"/><path class="cls-1" d="M74.05 262.72L77.83 238s3.73 6.87 3.84 10.25S78.25 265 78.25 265c13.07 5.82 27.35 5.75 39.78-1.54l-2-19-.76-13.2.62-17.19a13.54 13.54 0 00-13.76-14.57 9.35 9.35 0 00-2.39.35l-17.22 2.31s-18 9.53-21.9 22.86c-1.4 4.82-2.3 12.31-2.95 19.68 3.4 7.3 8.83 13.15 16.38 18.02z" transform="translate(-27.53 -73.81)"/><path class="cls-1" d="M91.35 136.71l9.16 18.93-12.04 11.45-.83-18.6 1.03-11.55 2.68-.23z"/><path class="cls-17" d="M60 228.06s15.58-1.54 19.78-8.77c4.54-7.81 2.71-17.17 2.71-17.17s-9.92 3.26-14.24 8-7.84 12.25-8.25 18m41.26-28.6c-.4.07 3.61 19.91 18.53 16.67 0 0-6.45-18.89-18.53-16.67z" transform="translate(-27.53 -73.81)"/><path class="cls-4" d="M122.79 222.26l-.67-.07a13.49 13.49 0 00-1.92-.09 20.94 20.94 0 00-6.9 1.46c-2.82 1-6 2.76-9.61 4.31a26.28 26.28 0 01-6 1.79 28.6 28.6 0 01-6.68.09c-4.56-.41-8.91-1.2-12.84-.6a25.55 25.55 0 00-5.4 1.47c-1.65.62-3.16 1.26-4.57 1.79a23 23 0 01-6.84 1.85 9.25 9.25 0 01-2.6-.12l.67.06a14 14 0 001.92 0 23.86 23.86 0 006.8-1.9c1.4-.55 2.91-1.2 4.56-1.82a25.09 25.09 0 015.43-1.5c4-.61 8.35.17 12.88.58a28.25 28.25 0 006.64-.08 25.73 25.73 0 005.93-1.77c3.65-1.53 6.79-3.27 9.63-4.27a20.62 20.62 0 017-1.4 11.21 11.21 0 012.57.22zM76.42 246a.55.55 0 01-.2 0l-.57.05c-.5 0-1.22.07-2.11.1a34 34 0 01-7-.35 26.78 26.78 0 01-3.75-.9 10.74 10.74 0 01-2.79-1.31 8.62 8.62 0 01-1.6-1.4 5.69 5.69 0 01-.48-.6 13.39 13.39 0 002.16 1.88 11.33 11.33 0 002.81 1.32 26 26 0 003.71.87 37.46 37.46 0 006.93.41h2.89zm45.19-8.4l-.41.1a8 8 0 00-1.15.37 26.82 26.82 0 00-3.88 2.18 18 18 0 01-6.22 2.28 38.47 38.47 0 01-8.1.43c-2.88-.1-5.62-.28-8.1-.21a27.4 27.4 0 00-6.53.89 17 17 0 00-4.09 1.71 10.34 10.34 0 00-1 .66 4.2 4.2 0 01-.36.23 11.74 11.74 0 011.33-1 16.28 16.28 0 014.1-1.78 26.51 26.51 0 016.56-.94c2.5-.08 5.24.09 8.12.19a39.48 39.48 0 008.06-.41 17.94 17.94 0 006.17-2.22A25.26 25.26 0 01120 238a5.6 5.6 0 011.61-.4zm-4.77 16.82h-.38a9.3 9.3 0 00-1.1-.06 11.41 11.41 0 00-3.91.85 59.23 59.23 0 00-5.36 2.68 13.5 13.5 0 01-5.16 1.67 13.93 13.93 0 01-1.94.05 30 30 0 01-7.21-1.44 54.41 54.41 0 00-5.78-1.52 17 17 0 00-4-.2c-.47 0-.83.12-1.08.14l-.39.05s.52-.13 1.47-.28a16.64 16.64 0 014 .15 50.47 50.47 0 015.84 1.43 31.1 31.1 0 007.16 1.42 11.88 11.88 0 003.73-.39 18.73 18.73 0 003.27-1.3 53.56 53.56 0 015.4-2.64 11 11 0 014-.8 5.61 5.61 0 011.44.19zm-11.69-43.98s-.36-.1-1-.12a5.69 5.69 0 00-2.68.63 12.15 12.15 0 00-3.29 2.49 20.12 20.12 0 01-3.87 3.35 9.71 9.71 0 01-5 1.23 17.27 17.27 0 01-4.14-.58c-1.15-.3-2.07-.6-2.7-.82l-.72-.25-.25-.1a.77.77 0 01.26.06l.74.22c.64.18 1.55.47 2.71.74a17.23 17.23 0 004.1.53 9.59 9.59 0 004.85-1.21 21.28 21.28 0 003.84-3.3 11.69 11.69 0 013.36-2.49 5.68 5.68 0 012.74-.59 3.66 3.66 0 011.05.21z" transform="translate(-27.53 -73.81)"/><path class="cls-2" d="M110.9 209.2a9.58 9.58 0 01.67 1.31c.1.22.22.45.34.71l.33.87a21.4 21.4 0 01.75 2.16c.13.41.26.83.39 1.27s.23.92.34 1.4c.26 1 .42 2 .64 3.11.36 2.21.64 4.65.84 7.22.36 5.15.46 9.8.68 13.17.1 1.68.19 3 .28 4a9.36 9.36 0 01.08 1.46 8.78 8.78 0 01-.25-1.44c-.14-.94-.27-2.3-.42-4-.29-3.37-.44-8-.8-13.16-.19-2.56-.46-5-.79-7.19-.21-1.09-.36-2.13-.6-3.09-.11-.48-.22-.95-.32-1.4l-.35-1.26c-.21-.82-.47-1.53-.69-2.16-.11-.32-.21-.61-.3-.89l-.3-.72a9.26 9.26 0 01-.52-1.37z" transform="translate(-27.53 -73.81)"/><path d="M87.18 148.67l5.28 17.41-3.9 3.71-1.38-21.12z"/><path d="M96.51 236.09a10.58 10.58 0 01-15.4-3.2 8.72 8.72 0 006.33 6.83c4.86 1.28 9.07-3.63 9.07-3.63z" transform="translate(-27.53 -73.81)"/><path class="cls-2" d="M79.08 227.8a48.06 48.06 0 01-.65 7 47.84 47.84 0 01-1.16 6.9 47 47 0 01.64-7 46 46 0 011.17-6.9zM81 168.23c-2.58 1.4-16.62 2.54-18.23.09a6.15 6.15 0 011.29-7.93 8.3 8.3 0 01-2.25-5.39 6.15 6.15 0 012.58-5.15 4.92 4.92 0 015.61.08c-1.14-.82-.75-2.64.09-3.77a7.52 7.52 0 0112-.13 6.86 6.86 0 0113.3 1.79c2.33-.94 5.08.77 6 3.09s.5 5-.28 7.36" transform="translate(-27.53 -73.81)"/><path class="cls-13" d="M73.81 177.19a7.25 7.25 0 01-1.61-5.06 13 13 0 011.5-5.13 22.18 22.18 0 0119.45-12 14.26 14.26 0 019 2.84 8.58 8.58 0 013.15 8.57" transform="translate(-27.53 -73.81)"/><path class="cls-17" d="M100.25 201.47c-.13-3.08-.2-5.87-.2-5.87s6.78-1.46 6.47-8.48-2.38-23.12-2.38-23.12L91 159l-10.25 11 3.94 32.62c.7 4.6 3.52 8.33 8.14 7.72a8.55 8.55 0 007.42-8.87z" transform="translate(-27.53 -73.81)"/><path class="cls-2" d="M86.23 162.35c-2 3.29-.59 5.28 2 8.12a5.37 5.37 0 004.44 2c1.67-.2 3.16-1.93 2.67-3.55a3.49 3.49 0 106.67-.45 6.29 6.29 0 001 2.08 2.12 2.12 0 002 .85c1-.23 2.38-.3 2.5-2 .28-3.79-.93-6.82-3.4-8.85a13.59 13.59 0 00-9.84-2.43 14.73 14.73 0 00-8.27 4.49" transform="translate(-27.53 -73.81)"/><path class="cls-2" d="M88.26 162.18a16.27 16.27 0 011.95 6.16 8.45 8.45 0 01-1.76 6.08 5.74 5.74 0 01-5.83 1.94 6.69 6.69 0 01-.39 5.67 4.26 4.26 0 01-5.07 1.8c-1.62-.71-2.45-2.53-2.81-4.26a14.37 14.37 0 0114.2-17.32" transform="translate(-27.53 -73.81)"/><path class="cls-17" d="M82.11 180a2.49 2.49 0 00-2.91.9 4 4 0 004.45 6.35" transform="translate(-27.53 -73.81)"/><path class="cls-12" d="M82.24 185.21s-.31.1-.8 0a2.14 2.14 0 01-1.53-1.2 1.5 1.5 0 010-1.12 1.67 1.67 0 01.53-.73c.42-.31.75-.32.75-.29s-.27.15-.59.47a1.41 1.41 0 00-.35 1.55 2.11 2.11 0 001.26 1.11c.43.13.73.15.73.21z" transform="translate(-27.53 -73.81)"/><path class="cls-2" d="M95.86 184s.08.14 0 .35a1.49 1.49 0 01-.41.75 1.54 1.54 0 01-.75.4c-.22 0-.36 0-.36-.05s.47-.19.87-.59.56-.86.65-.86zm8.78-7.47a1 1 0 01-.9 1.11 1 1 0 01-1.13-.83 1 1 0 01.89-1.11 1 1 0 011.14.83zm.67-1.48c-.11.14-.94-.37-2-.27s-1.86.72-2 .59 0-.3.38-.59a2.85 2.85 0 011.57-.64 2.72 2.72 0 011.63.38c.34.23.48.48.42.53zm-10.93 2.46a1 1 0 01-.89 1.11 1 1 0 01-1.13-.83 1 1 0 01.89-1.11 1 1 0 011.13.83zm.14-1.51c-.11.14-.93-.36-2-.26s-1.85.71-2 .59 0-.31.37-.59a2.71 2.71 0 011.57-.64 2.68 2.68 0 011.64.38c.34.2.48.43.42.52zm4.48 7.9a7.42 7.42 0 011.76-.48c.28 0 .54-.13.57-.32a1.48 1.48 0 00-.26-.82l-1-2.06a36.69 36.69 0 01-2.34-5.42 36.27 36.27 0 012.77 5.22l1 2.08a1.67 1.67 0 01.24 1.08.69.69 0 01-.43.45 2 2 0 01-.47.11 7.13 7.13 0 01-1.84.16z" transform="translate(-27.53 -73.81)"/><path class="cls-12" d="M98.84 187.71a1 1 0 00-.14-1.09 1 1 0 00-1.06-.27.84.84 0 00-.65-.82 1.2 1.2 0 00-1.07.28 1.69 1.69 0 00-.38 2 1.84 1.84 0 001.85.94 2 2 0 001.61-1.34" transform="translate(-27.53 -73.81)"/><path class="cls-2" d="M95.82 184.93c.18 0 .28 1.17 1.37 1.93s2.35.51 2.38.68-.27.26-.8.32a3 3 0 01-2-.51 2.57 2.57 0 01-1.07-1.62c-.07-.49.04-.8.12-.8zm-.5-10.93c-.09.31-1.19.26-2.47.52s-2.28.71-2.48.46.07-.42.47-.75a4.42 4.42 0 013.76-.74c.49.12.75.33.72.51zm9.68-1.06c-.18.27-1 .07-1.86.14s-1.67.31-1.87.06 0-.38.33-.64a2.65 2.65 0 011.48-.54 2.59 2.59 0 011.52.38c.32.22.45.47.4.6z" transform="translate(-27.53 -73.81)"/><path class="cls-12" d="M100.05 195.6a16.8 16.8 0 01-9.34-2.2s2.57 4.92 9.37 3.92z" transform="translate(-27.53 -73.81)"/><path class="cls-4" d="M76.59 168.46s-.22-.13-.49-.43a4.48 4.48 0 01-.82-1.35 3.77 3.77 0 01-.22-1.57 1.77 1.77 0 01.12-.64 7.47 7.47 0 00.29 2.14 10.1 10.1 0 001.12 1.85zm2.46-2.72a1.79 1.79 0 01-.45-.43 6 6 0 01-.83-1.25 7.05 7.05 0 01-.51-1.41 1.7 1.7 0 01-.1-.61c.07 0 .31.89.79 1.93s1.15 1.72 1.1 1.77zm3.77-2.33s-.22-.18-.5-.52a10.56 10.56 0 01-1-1.42 13.15 13.15 0 01-.75-1.56 2.34 2.34 0 01-.22-.68c.06 0 .5 1 1.15 2.14s1.37 2 1.32 2.04zm4.72-2.26c-.08 0-.44-1.09-1.18-2.3s-1.64-2-1.58-2a2.59 2.59 0 01.57.5 9.06 9.06 0 011.18 1.43 8.74 8.74 0 01.8 1.67 2.94 2.94 0 01.21.7zm3.99-2.3a20 20 0 00-.53-1.95 14.41 14.41 0 00-1.23-1.6s.21.11.49.36a4 4 0 01.93 1.15 4.15 4.15 0 01.36 1.43 2 2 0 01-.02.61zm4.67-.91s-.27-.7-.73-1.49-1-1.31-1-1.36a4.27 4.27 0 011.68 2.85zm4.04.67c-.06 0-.15-.65-.47-1.38a4.28 4.28 0 00-.82-1.18 1.76 1.76 0 011 1.09 2.55 2.55 0 01.29 1.47zm2.54-.15s.25.22.29.62-.14.68-.19.66 0-.3 0-.64-.15-.61-.1-.64zm-27.73 13.29a2.76 2.76 0 01-1.56-1.15 2.72 2.72 0 01-.59-1.85 6.39 6.39 0 00.76 1.72 6.17 6.17 0 001.39 1.28zM74 174.78a1.45 1.45 0 01-1.1-.32c-.54-.37-.76-.88-.7-.89s.32.39.82.72.98.43.98.49z" transform="translate(-27.53 -73.81)"/><path class="cls-6" d="M99.48 167.8a5 5 0 00.82-.23 3.29 3.29 0 001.56-1.6 3.47 3.47 0 00-.22-3.23 5.31 5.31 0 00-3.26-2.41 10.73 10.73 0 00-4.15-.22 10.52 10.52 0 00-3.28.94 7.52 7.52 0 00-2.47 1.95 4.19 4.19 0 01.52-.68 7.13 7.13 0 011.89-1.39 10.34 10.34 0 013.31-1 10.8 10.8 0 014.24.21 5.47 5.47 0 013.36 2.51 3.59 3.59 0 01.2 3.35 3.24 3.24 0 01-1.66 1.61 2 2 0 01-.86.19z" transform="translate(-27.53 -73.81)"/><path class="cls-6" d="M91.93 168.66a2.9 2.9 0 00.76-1.15 2.65 2.65 0 000-1.46 2.37 2.37 0 00-1.09-1.39 17.37 17.37 0 00-3.13-1.3c-.83-.27-1.35-.41-1.34-.44s.14 0 .38.05.58.13 1 .25a14.21 14.21 0 013.2 1.26 2.57 2.57 0 011.2 1.52 2.6 2.6 0 01-.09 1.56 2.38 2.38 0 01-.57.88 1 1 0 01-.32.22zm-20.09-18.95a2.32 2.32 0 01.17-.94 3.79 3.79 0 011.7-2 4.34 4.34 0 013.84-.09 5.6 5.6 0 013 3.7h-.17a4.12 4.12 0 01.85-.75 4.35 4.35 0 015 .11 3.84 3.84 0 01-.4 6.23 2.8 2.8 0 01-1 .41 4.81 4.81 0 00.93-.48 3.89 3.89 0 001.6-2.26 3.78 3.78 0 00-1.27-3.75 4.23 4.23 0 00-5.6.62l-.13.14v-.18a5.46 5.46 0 00-2.89-3.58 4.2 4.2 0 00-3.71 0 3.76 3.76 0 00-1.69 1.87 3.94 3.94 0 00-.23.95zm20.66-2.52a1 1 0 01.3.18 4.6 4.6 0 01.68.67 4.71 4.71 0 01.11 5.89 4 4 0 01-.66.69c-.17.14-.28.2-.29.19a11.17 11.17 0 00.83-1 4.81 4.81 0 00-.1-5.71c-.48-.6-.9-.88-.87-.91zm-25.56 5.41a4.35 4.35 0 00-.2 2.64 3.8 3.8 0 001.65 2.31 4 4 0 003.41.41l.43-.15-.33.33-.14.14a2.41 2.41 0 00.23 3.23 3.58 3.58 0 002.72 1 5.63 5.63 0 002-.5c.44-.19.67-.33.68-.31a3.89 3.89 0 01-.65.39 5.36 5.36 0 01-2 .56 3.67 3.67 0 01-2.86-1 2.6 2.6 0 01-.24-3.51l.15-.16.11.18a4.2 4.2 0 01-3.59-.45 3.87 3.87 0 01-1.68-2.43 4.06 4.06 0 01.05-2 2.5 2.5 0 01.26-.68z" transform="translate(-27.53 -73.81)"/><path class="cls-2" d="M97.83 235.31s-.15.25-.52.59a9.22 9.22 0 01-1.74 1.24 10.52 10.52 0 01-13-2.14 8.74 8.74 0 01-1.25-1.73 2 2 0 01-.31-.72c.08-.05.58 1 1.83 2.2a10.76 10.76 0 0012.57 2.06c1.59-.81 2.36-1.57 2.42-1.5z" transform="translate(-27.53 -73.81)"/></g></svg>