<svg xmlns="http://www.w3.org/2000/svg" viewBox="0 0 397.92 346.06"><defs><style>.cls-2{fill:#407bff}.cls-3{fill:#263238}.cls-11,.cls-4,.cls-5,.cls-8{fill:#fff}.cls-4{opacity:.4}.cls-11,.cls-14,.cls-4,.cls-5,.cls-8,.cls-9{isolation:isolate}.cls-5{opacity:.6}.cls-16{fill:none}.cls-8,.cls-9{opacity:.2}.cls-10{fill:#eec1bb}.cls-11{opacity:.1}.cls-13{fill:#b97964}.cls-14,.cls-18{fill:#36a7ff}.cls-16{stroke:#263238;stroke-linecap:round;stroke-linejoin:round;stroke-width:.71px}.cls-23{fill:#e4897b}</style></defs><g id="Shadow"><ellipse id="_Path_" data-name="&lt;Path&gt;" cx="198.7" cy="324.16" rx="193.89" ry="11.32" fill="#f5f5f5"/></g><g id="Box"><path class="cls-2" d="M94.68 364.25l-7.88-2c-2-.49-4.14.34-4.64 2.32l-1.29 5.21c-.5 2 1 3.63 3 4.12l3.11.77v3.54l1.67-3.12 3.1.77c2 .49 4.12-.24 4.61-2.22l1.3-5.21c.52-1.94-1-3.68-2.98-4.18zm8.83-18.93c-4.07-1.73-6.44 3.29-6.44 3.29s-4.93-2.55-7.11 1.3c-3.1 5.49 5.79 10.43 11 10.26 4.29-3.04 8.35-12.37 2.55-14.85z" transform="translate(-51.3 -92.08)"/><path class="cls-2" d="M65.79 282.7l-3.99-5.51-6.47 2.11 4.77-14.69 10.46 3.41-4.77 14.68z"/><path class="cls-3" d="M17.19 290.91h62.98v35.53H17.19z"/><path class="cls-4" d="M17.19 290.91h62.98v35.53H17.19z"/><path class="cls-4" d="M55.09 290.91h25.08v35.53H55.09z"/><path class="cls-5" d="M94.68 364.25l-7.88-2c-2-.49-4.14.34-4.64 2.32l-1.29 5.21c-.5 2 1 3.63 3 4.12l3.11.77v3.54l1.67-3.12 3.1.77c2 .49 4.12-.24 4.61-2.22l1.3-5.21c.52-1.94-1-3.68-2.98-4.18z" transform="translate(-51.3 -92.08)"/><path class="cls-4" d="M65.79 282.7l-3.99-5.51-6.47 2.11 4.77-14.69 10.46 3.41-4.77 14.68z"/></g><g id="Followers"><rect y="64.75" width="178.13" height="139.85" rx="12.72" opacity=".07" fill="#407bff"/><rect y="64.75" width="178.13" height="139.85" rx="12.72" style="isolation:isolate" opacity=".93" fill="none"/><path class="cls-2" d="M91.27 239.79h9.47v1.76h-7.39v5.56h6.26v1.75h-6.26v7.37h-2.08zm10.92 10.38c0-4.09 2.66-6.42 5.64-6.42s5.64 2.33 5.64 6.42-2.66 6.36-5.64 6.36-5.64-2.33-5.64-6.36zm9.15 0c0-2.81-1.41-4.71-3.51-4.71s-3.51 1.9-3.51 4.71 1.43 4.66 3.51 4.66 3.51-1.83 3.51-4.66zm5.33 3.6v-15.38h2v15.54c0 .65.28.9.58.9a1.76 1.76 0 00.45-.05l.28 1.55a2.72 2.72 0 01-1.18.2c-1.5 0-2.13-.98-2.13-2.76zm6.39 0v-15.38h2v15.54c0 .65.28.9.58.9a1.76 1.76 0 00.45-.05l.27 1.55a2.64 2.64 0 01-1.17.2c-1.51 0-2.13-.98-2.13-2.76zm5.48-3.6c0-4.09 2.66-6.42 5.64-6.42s5.64 2.33 5.64 6.42-2.66 6.36-5.64 6.36-5.64-2.33-5.64-6.36zm9.15 0c0-2.81-1.41-4.71-3.51-4.71s-3.51 1.9-3.51 4.71 1.43 4.66 3.51 4.66 3.51-1.83 3.51-4.66zm3.77-6.12h2.11l1.8 7c.28 1.16.5 2.26.73 3.39h.1c.28-1.13.53-2.26.83-3.39l1.88-7h2l1.9 7c.31 1.16.58 2.26.86 3.39h.1c.27-1.13.5-2.23.75-3.39l1.78-7h1.95L155 256.23h-2.5l-1.76-6.54c-.3-1.15-.52-2.28-.82-3.51h-.1c-.28 1.23-.53 2.38-.85 3.54l-1.71 6.51h-2.4zm18.44 6.12c0-4 2.68-6.42 5.46-6.42 3.11 0 4.86 2.23 4.86 5.72a8 8 0 01-.07 1.17h-8.22c.15 2.58 1.73 4.24 4.06 4.24a5.55 5.55 0 003-.95l.73 1.35a7.34 7.34 0 01-4 1.25c-3.24 0-5.82-2.38-5.82-6.36zm8.52-1c0-2.45-1.1-3.78-3-3.78-1.7 0-3.26 1.38-3.51 3.78zm4.8-5.12h1.71l.17 2.21h.08a4.17 4.17 0 013.46-2.51 3.11 3.11 0 011.3.25l-.4 1.81a3.32 3.32 0 00-1.18-.2c-1 0-2.25.75-3.08 2.8v7.82h-2.06zm7.24 10.8l1-1.38a5.44 5.44 0 003.58 1.46c1.61 0 2.41-.85 2.41-1.91 0-1.25-1.46-1.8-2.78-2.3-1.73-.63-3.64-1.45-3.64-3.51s1.56-3.46 4.19-3.46a6.08 6.08 0 013.78 1.38l-1 1.3a4.53 4.53 0 00-2.78-1.07c-1.52 0-2.23.82-2.23 1.75 0 1.15 1.33 1.58 2.71 2.1 1.75.66 3.71 1.38 3.71 3.69 0 2-1.58 3.63-4.46 3.63a7.37 7.37 0 01-4.49-1.68zm-83.95-33.58h6.16v-18.14h-5.08V200a18.56 18.56 0 006.38-2.25h3.73v23.52h5.43v4.08H96.51zm20.95-8.9c0-10.72 5.21-15.14 10.85-15.14a9.87 9.87 0 017.38 3.12l-2.69 3a5.93 5.93 0 00-4.38-2.08c-3.48 0-6.3 2.56-6.51 10.19a8.14 8.14 0 016-3.25c4.77 0 8.07 2.78 8.07 8.55 0 5.51-3.95 9.07-8.68 9.07-5.44.04-10.04-4.17-10.04-13.46zm14.06 4.43c0-3.26-1.6-4.9-4.34-4.9-1.56 0-3.38.86-4.94 3.16.52 4.91 2.47 7 5.16 7 2.3-.01 4.12-1.88 4.12-5.26zm21.26-14.8h-13.06v-4.21h18.53v3c-6.46 8-7.59 13.8-8.07 24.56h-5.08c.48-9.81 2.35-15.97 7.68-23.35zm10.89-5h5v12.89h.13L179 197h5.6l-8.77 11L186 225.35h-5.55L172.79 212l-4.08 5.08v8.29h-5z" transform="translate(-51.3 -92.08)"/></g><g id="Character_2" data-name="Character 2"><g id="_Group_" data-name="&lt;Group&gt;"><path class="cls-3" d="M298.23 132.78a1 1 0 00-.86-.83l-23.52-2.58c-.29 0-1.43.7-1.38 1.1l2.74 22.17a1 1 0 00.89.85l23.8 1.86c.29 0 1.42-.71 1.37-1.11z" transform="translate(-51.3 -92.08)"/><path class="cls-8" d="M273.85 129.37l23.52 2.63a1 1 0 01.86.83l3 21.46a.62.62 0 01-.67.71l-23.81-1.85a1 1 0 01-.89-.85l-2.74-22.18a.63.63 0 01.73-.75z" transform="translate(-51.3 -92.08)"/><path class="cls-2" d="M225.56 60.02l-2.65-21.68 23.05 2.53 2.95 20.97-23.35-1.82z"/><path class="cls-5" d="M225.56 60.02l-2.65-21.68 23.05 2.53 2.95 20.97-23.35-1.82z"/><path class="cls-9" d="M280.79 134.54a2.27 2.27 0 11-2.71-2.28 2.52 2.52 0 012.71 2.28z" transform="translate(-51.3 -92.08)"/><path class="cls-9" d="M233.69 53.72l6.29.62-.71-6.01-6.37-.68.79 6.07zm6.39 1.51l-6.28-.64.63 4.86 6.21.49-.56-4.71zm.8.08l.61 4.7 5.95.46-.71-4.56-5.85-.6zm-.12-.89l5.83.58-.93-6-5.68-.6.78 6.02zm-7.75.08l-6.26-.64.56 5.03 6.27.49-.57-4.88zm-.1-.85l-.72-6.07-6.22-.66.68 6.11 6.26.62zm8.02-8.49l3.23.41-.35-1.5-3.17-.38.29 1.47zM234.96 43l-3.58-.43.2 1.4 3.6.45-.22-1.42zm1.24 1.56l3.51.44-.26-1.45-3.41-.42.16 1.43z"/><path class="cls-10" d="M310 146s-8.33-4.68-9.58-5.62-12.31-1.07-12.11 0 4.35 7.75 5.34 8.37 7.63 0 7.63 0l7.6 3.05z" transform="translate(-51.3 -92.08)"/><path class="cls-3" d="M352.19 145.23c7.09 3.4 3.36 32.55-13.26 39.21s-33.29-19.6-33.29-19.6l5.21-13.56S326.08 163.86 332 161s14.85-18.33 20.19-15.77z" transform="translate(-51.3 -92.08)"/><path class="cls-11" d="M352.19 145.23c7.09 3.4 3.36 32.55-13.26 39.21s-33.29-19.6-33.29-19.6l5.21-13.56S326.08 163.86 332 161s14.85-18.33 20.19-15.77z" transform="translate(-51.3 -92.08)"/><path class="cls-10" d="M256.28 310.56l-9.11.95-.46-5.27-1.25-14.37 9.11-.97 1.38 15.87.33 3.79zm45.46-1.16h-8.82l-.08-2-.02-.24-.44-12.81-.02-.25-.17-4.91h8.83l.72 20.21z"/><path class="cls-9" d="M254.57 290.9l1.38 15.87-9.24-.53-1.25-14.37 9.11-.97zm47.12 17.38h-.01l-8.84-1.12h-.02l-.46-12.36h.02l8.85.71.45 12.38.01.39z"/><path class="cls-2" d="M343 401h10.73a.77.77 0 01.75.61l1.74 7.86a1.3 1.3 0 01-1 1.54 1.43 1.43 0 01-.29 0c-3.47-.06-6-.27-10.36-.27-2.68 0-10.78.28-14.48.28s-4.19-3.66-2.68-4c6.81-1.48 11.93-3.54 14.11-5.49A2.12 2.12 0 01343 401zm-45.5-.33h10.73a.77.77 0 01.75.6l1.74 7.87a1.3 1.3 0 01-1 1.54 1.43 1.43 0 01-.29 0c-3.47-.06-6-.27-10.35-.27-2.69 0-10.79.28-14.49.28s-4.19-3.66-2.67-4c6.8-1.48 11.92-3.54 14.1-5.49a2.15 2.15 0 011.48-.53z" transform="translate(-51.3 -92.08)"/><path class="cls-3" d="M295.93 397h12.95s-1.06-96.42 12.95-134.07c1 12.44 2.1 25.36 3.19 36.12.68 6.66 1.36 9.23 2 13.58 4.07 28.08 14.36 85.49 14.36 85.49h12.79s-1.51-54.51-3-82.11c-1.67-29.95-2.39-92.64-2.46-98.26h-46.89c-4.46 23.58-15.89 102.86-5.89 179.25z" transform="translate(-51.3 -92.08)"/><path class="cls-10" d="M318.84 121.91a12.46 12.46 0 004.75 7.07 11.87 11.87 0 001.6 1 11.08 11.08 0 0013.21-2.1c4.43-4.47 4.31-9.63 4.81-18.36a12 12 0 00-16.53-12c-8.56 3.54-9.68 16.53-7.84 24.39z" transform="translate(-51.3 -92.08)"/><path class="cls-9" d="M323.59 129a11.87 11.87 0 001.6 1 11.11 11.11 0 009.56.42 12.7 12.7 0 00-1.56-3 17.18 17.18 0 00-9.6 1.58z" transform="translate(-51.3 -92.08)"/><path class="cls-10" d="M341.16 140.31c-4.3 3.91-14.84 2.46-14.84 2.46s-6.58-1.8-5.2-3.86c3.88-.64 5.75-2.44 6.53-4.76a11.11 11.11 0 00.39-4.42 23.18 23.18 0 00-.32-2.47l13-9.65c-1.72 6.39-3.72 18.08.44 22.7z" transform="translate(-51.3 -92.08)"/><path class="cls-3" d="M323.59 114l-1.89.71.95-3.85s-2.76-4.15 0-7.85c0 0-7-3.11-1.72-10.89 0 0 2 4.56 7.24 2.28 2.84-1.25 11.75-1.34 12.2 2.28 0 0 6.41 0 7.11 10.92a21.87 21.87 0 01-6.8 17.27s-7.75 1.84-11.51-1.27-5.58-9.6-5.58-9.6z" transform="translate(-51.3 -92.08)"/><path class="cls-10" d="M328.55 114.59a5.63 5.63 0 01-2.91 3.87c-1.77.76-2.94-1.75-2.69-4.37.25-2.33 1.45-5.6 3.36-5.17s2.86 3.32 2.24 5.67z" transform="translate(-51.3 -92.08)"/><path class="cls-9" d="M321.83 262.87c1 12.44 2.1 25.38 3.19 36.14 1.59-15.53 3.55-26.61 3.55-26.61s1.83-1.5 6.86-9.53 0-23 0-23c.15 13.9-13.6 23-13.6 23z" transform="translate(-51.3 -92.08)"/><path class="cls-2" d="M243.17 301.26l.64 3.65h15.3v-3.37l-15.94-.28zm45.44 1.4l1.47 3.37h12.83l.84-3.37h-15.14z"/><path class="cls-3" d="M310 139.7a66.85 66.85 0 0124.42-.47c12.77 2.3 17.78 6 17.78 6l6.59 100.31s-34.14 8.28-62.83 0c.04 0 2.72-92.96 14.04-105.84z" transform="translate(-51.3 -92.08)"/><path class="cls-8" d="M358.78 245.54s-34.14 8.28-62.83 0c0 0 0-1.11.11-3.1.27-7.47 1.11-27.34 2.91-47.76l.24-2.67c2.13-23.16 5.54-46.34 10.78-52.31a66.85 66.85 0 0124.42-.47c12.77 2.3 17.78 6 17.78 6l3 46.15.23 3.52 3.1 47.15z" transform="translate(-51.3 -92.08)"/><path class="cls-9" d="M355.45 194.9c-6.27-1.8-22.36-4.5-56.48-.22l.24-2.67c8.05-1.33 36.47-5.43 56-.63zm3.33 50.64s-34.14 8.28-62.83 0c0 0 0-1.11.11-3.1 14.33 2.16 42.31 3.85 62.49-.39z" transform="translate(-51.3 -92.08)"/><path class="cls-2" d="M318 138.32s5.12-7 19.64-7 14.42 11.2 9.86 18.77-29.5-11.77-29.5-11.77z" transform="translate(-51.3 -92.08)"/><path class="cls-10" d="M275.64 161l-1.43-8.06s3.38-5.16 2.61-6.29-3.66-10.65-3.66-10.65-7.15 7.23-6.69 9.19a28.83 28.83 0 002.44 5.44l.2 16.26z" transform="translate(-51.3 -92.08)"/><path class="cls-2" d="M225.52 68.89l-1.58-6.01-9.89 8.48 3.76 8.48 7.71-10.95z"/><path class="cls-3" d="M310 139.7c-3.43 1-21.28 33.34-25.22 33.34-3.08 0-8.84-16.64-8.84-16.64l-9.46 11.15s1.25 27.83 16.78 28.59 30.11-25.6 30.11-25.6 2.43-7.65 1-18.94c-1.22-8.95-4.37-11.9-4.37-11.9z" transform="translate(-51.3 -92.08)"/><path class="cls-11" d="M310 139.7c-3.43 1-21.28 33.34-25.22 33.34-3.08 0-8.84-16.64-8.84-16.64l-9.46 11.15s1.25 27.83 16.78 28.59 30.11-25.6 30.11-25.6 2.43-7.65 1-18.94c-1.22-8.95-4.37-11.9-4.37-11.9z" transform="translate(-51.3 -92.08)"/><path class="cls-2" d="M290.55 101.88H279a3.17 3.17 0 00-3.17 3.17v9a3.17 3.17 0 003.17 3.17h4.26l1.53 3.73 1.54-3.73h4.26a3.16 3.16 0 003.16-3.17v-9a3.16 3.16 0 00-3.2-3.17z" transform="translate(-51.3 -92.08)"/><path class="cls-5" d="M280.38 106.44c1.15-1.81 3.3-1.08 4.39.35 1.13-1.41 3.29-2.08 4.4-.24 1.86 3.11-2.09 5.92-3.95 7l-.54.31-.52-.32c-1.83-1.13-5.71-4.04-3.78-7.1z" transform="translate(-51.3 -92.08)"/><path class="cls-2" d="M266 122.52h-5.79a1.58 1.58 0 00-1.58 1.58v4.53a1.58 1.58 0 001.58 1.58h2.13l.77 1.86.76-1.86H266a1.59 1.59 0 001.59-1.58v-4.53a1.59 1.59 0 00-1.59-1.58z" transform="translate(-51.3 -92.08)"/><path class="cls-5" d="M260.88 124.8c.58-.91 1.65-.55 2.2.17.56-.7 1.64-1 2.19-.12.93 1.55-1 3-2 3.51l-.27.15-.26-.16c-.89-.57-2.83-2.02-1.86-3.55z" transform="translate(-51.3 -92.08)"/><path d="M343 401h10.73a.77.77 0 01.75.61l1.74 7.86a1.3 1.3 0 01-1 1.54 1.43 1.43 0 01-.29 0c-3.47-.06-6-.27-10.36-.27-2.68 0-10.78.28-14.48.28s-4.19-3.66-2.68-4c6.81-1.48 11.93-3.54 14.11-5.49A2.12 2.12 0 01343 401zm-45.5-.33h10.73a.77.77 0 01.75.6l1.74 7.87a1.3 1.3 0 01-1 1.54 1.43 1.43 0 01-.29 0c-3.47-.06-6-.27-10.35-.27-2.69 0-10.79.28-14.49.28s-4.19-3.66-2.67-4c6.8-1.48 11.92-3.54 14.1-5.49a2.15 2.15 0 011.48-.53z" transform="translate(-51.3 -92.08)" style="isolation:isolate" opacity=".3" fill="#fff"/></g></g><g id="Character_3" data-name="Character 3"><path class="cls-13" d="M431.13 325.52c-4.89 12.09-18 30-30.05 45.18l-3.08 3.89c-3.47 4.31-6.78 8.32-9.84 11.83-1.53 1.76-3 3.4-4.4 4.88a92.41 92.41 0 00-7.34 8.7l-4.83-2.84s4.63-7.23 10.83-17.2c1.31-2.1 2.69-4.32 4.11-6.62 3.64-5.85 7.57-12.22 11.35-18.42l2.12-3.52c7-11.61 13.24-22.12 15.48-26.76.17-.35.32-.68.44-1 1.24-2.85-2.11-13.8-5.82-24.12-.28-.78-.56-1.56-.84-2.32-3.52-9.6-7.07-18.06-7.07-18.06l9.87-16.71 3.62-6.14s1.95 5.39 4.55 13.15c1.77 5.26 3.85 11.61 5.82 18.11.2.66.4 1.33.61 2 2.95 9.87 5.47 19.84 6.4 26.6.33 2.42-.41 5.61-1.93 9.37z" transform="translate(-51.3 -92.08)"/><path class="cls-9" d="M401.36 370.7c-6.38 8-12.51 15.3-17.07 20.6a156.4 156.4 0 01-1.83-11.33c5.27-8.46 11.72-18.9 17.58-28.57a110.64 110.64 0 001.32 19.3z" transform="translate(-51.3 -92.08)"/><path class="cls-13" d="M398.19 411.68l-5.75.75s-2.21-10.87-4.31-26c-.57-4.09-1.12-8.49-1.63-13.07a308.47 308.47 0 01-2.06-35s-.63-2.18-1.56-5.87c-1.55-6.15-3.93-16.47-5.6-27.86v-.2c-2-13.67-3-28.85-.31-40.2l20 9 .33 24.14.08 5.86.28 20.34.06 4.66.16 26.75.12 19.66z" transform="translate(-51.3 -92.08)"/><path class="cls-9" d="M396.94 273.18l.33 24.14c-6.1 4.1-14.51 6.12-20 7.06-2-13.67-3-28.85-.31-40.2zm29.72 16.4c-5.15 5.73-13.6 7.26-17.4 7.66-3.52-9.6-7.07-18.06-7.07-18.06l9.87-16.71c2.7 2.12 5.56 4.51 8.17 7 1.77 5.26 3.85 11.61 5.82 18.11.2.67.4 1.34.61 2z" transform="translate(-51.3 -92.08)"/><path class="cls-2" d="M411.05 181.92c3.79.17 19.68 21.51 19.68 21.51l5.9-7.67s9.1 17.67 4.6 26.09S413 207.26 413 207.26z" transform="translate(-51.3 -92.08)"/><path class="cls-14" d="M411.05 181.92l1.56 17 .4 8.32s3.9 3.78 8.83 7.71c7.24 5.78 16.71 11.88 19.39 6.88 4.5-8.41-4.6-26.09-4.6-26.09l-5.9 7.67v-.06c-.94-1.27-16.01-21.27-19.68-21.43z" transform="translate(-51.3 -92.08)"/><path class="cls-9" d="M412.61 198.94l.4 8.32s3.9 3.78 8.83 7.71c.47-10-8.83-24.54-8.83-24.54zm18.12 4.49l-.85 1.62 2.48 9.63s-6.83-6.21-2.48-12.29z" transform="translate(-51.3 -92.08)"/><path class="cls-2" d="M411.73 235.27l-32 2.48s-.43-19.12-3-29.07c-.83-3.22-1.87-6.84-3.19-11-.56-1.78-1.17-3.66-1.84-5.67s-1.28-3.86-2-5.95a95.86 95.86 0 0113.38-3.23 103.35 103.35 0 0114.48-1.53c6.27 0 13.48.66 13.48.66s1 .25 1.67 6.89c.6 6.21.29 23.71-.98 46.42z" transform="translate(-51.3 -92.08)"/><path class="cls-14" d="M411.73 235.27l-32 2.47v-1.1c-.14-4.19-.77-19.44-2.95-28-.59-2.3-1.29-4.81-2.13-7.58-.33-1.11-.68-2.26-1.06-3.46-.56-1.78-1.17-3.66-1.84-5.67s-1.28-3.86-2-5.95c1.74-.56 3.5-1.06 5.27-1.52 2.67-.68 5.38-1.25 8.11-1.71a103.35 103.35 0 0114.48-1.53c4 0 8.47.25 11.11.46 1.46.11 2.37.2 2.37.2s1 .25 1.67 6.89c.55 6.29.24 23.79-1.03 46.5z" transform="translate(-51.3 -92.08)"/><path class="cls-3" d="M372 394c.58-.42 5.56 7 5.56 7s-1.1 7.77 1.14 12.79-2.12 4.58-5.75-.17l-9-11.75c-2.54-3.33 1.95-3.41 8.05-7.87z" transform="translate(-51.3 -92.08)"/><path class="cls-2" d="M379.26 406.68c-1.13-.27-1.86-3.49-2-4.14a.14.14 0 010-.09v-.07a.1.1 0 010-.06h.08c.1 0 2.21-.7 3.34 0a1.35 1.35 0 01.68.94c.1.44 0 .75-.24.92s-1.15 0-1.9-.3a3.66 3.66 0 011 1.73 1 1 0 01-.92 1.17zm.11-.46c.05 0 .19 0 .41-.24a.49.49 0 00.09-.4c-.09-.74-1.21-1.82-2-2.48.36 1.39.97 2.99 1.5 3.12zm-1.3-3.63c1.2.74 2.53 1.34 2.87 1.11.1-.07.07-.3 0-.43a.9.9 0 00-.45-.63 2.18 2.18 0 00-1.08-.23 6 6 0 00-1.34.18z" transform="translate(-51.3 -92.08)"/><path class="cls-3" d="M390.41 408.76c0-.73 9-.16 9-.16s5.51 5.6 10.86 6.86 2.36 4.47-3.62 4.47h-14.83c-4.25 0-1.59-3.62-1.41-11.17z" transform="translate(-51.3 -92.08)"/><path class="cls-2" d="M400.37 409.76a.2.2 0 01-.07-.06.21.21 0 010-.06.24.24 0 010-.08.25.25 0 010-.09c0-.11.79-2.18 2-2.69a1.42 1.42 0 011.16 0c.41.2.6.45.59.76 0 .47-.67.94-1.4 1.33a3.73 3.73 0 012 .22 1 1 0 01.48.6.86.86 0 01-.22 1 1.24 1.24 0 01-.79.21 11.34 11.34 0 01-3.75-1.14zm.82-.15c1.32.56 3 1.05 3.38.7 0 0 .15-.12.06-.47a.47.47 0 00-.25-.31 2.16 2.16 0 00-1.06-.2 10.42 10.42 0 00-2.13.28zm1.24-2.39a3.9 3.9 0 00-1.53 1.92c1.32-.5 2.6-1.2 2.63-1.6 0-.12-.2-.24-.32-.3a1.07 1.07 0 00-.42-.1.94.94 0 00-.36.08z" transform="translate(-51.3 -92.08)"/><path class="cls-13" d="M394.91 188.39c-8-1-10.34-4.42-10.34-4.42 3.25-3.06 2.66-7.58 1.83-10.4a16.16 16.16 0 00-1-2.6l9.57 1.79a27.54 27.54 0 00-.37 4 12.07 12.07 0 00.27 3c.65 2.86 2.28 2.9 2.28 2.9 1.7 3.13-2.24 5.73-2.24 5.73z" transform="translate(-51.3 -92.08)"/><path class="cls-9" d="M394.62 176.79a12.07 12.07 0 00.27 3c-3.8-.5-6.68-3.54-8.49-6.18a16.16 16.16 0 00-1-2.6l9.57 1.79a27.54 27.54 0 00-.35 3.99z" transform="translate(-51.3 -92.08)"/><path class="cls-3" d="M406.31 154.64s4-1.1 3.1-3.87-2.28-2.87-2.28-2.87a7.9 7.9 0 00.79-7.12c-1.58-3.76-5.93-2.67-5.93-2.67s.35-4.06-3.48-5.14a5.18 5.18 0 00-5.81 2.4s-2.35-3.69-6.32-3.1-5.26 5.94-5.26 5.94a4.37 4.37 0 00-5.64 2.11 6.69 6.69 0 000 6.91s-2.37-1.4-3.56 2.5 2.67 7.82 2.67 7.82-2.27.07-1.38 3.12 4.55 3.45 4.55 3.45-1.49.59 1 3.26 11.45 0 11.45 0z" transform="translate(-51.3 -92.08)"/><path class="cls-13" d="M396.29 147.34c8.24 1.19 10.25 6 9.63 14.56-.78 10.73-4.22 17.93-14.2 14.17-13.55-5.07-9.12-30.71 4.57-28.73z" transform="translate(-51.3 -92.08)"/><path d="M400.66 160.67a17.73 17.73 0 001.9 3.77 2.27 2.27 0 01-2.3.62z" transform="translate(-51.3 -92.08)" fill="#a24e3f"/><path class="cls-3" d="M395.71 159.27c-.08.68-.51 1.19-1 1.13s-.75-.65-.67-1.33.52-1.18 1-1.13.75.65.67 1.33z" transform="translate(-51.3 -92.08)"/><path class="cls-3" d="M394.85 158l1.54-.4s-.88 1.1-1.54.4zm9.32 2.15c-.08.68-.51 1.18-1 1.13s-.76-.65-.68-1.33.52-1.19 1-1.13.77.65.68 1.33z" transform="translate(-51.3 -92.08)"/><path class="cls-3" d="M403.31 158.83l1.55-.4s-.86 1.15-1.55.4z" transform="translate(-51.3 -92.08)"/><path class="cls-16" d="M396.45 153.57a4.31 4.31 0 00-3.75.73m9.79-.22a3.89 3.89 0 013.19 1.15" transform="translate(-51.3 -92.08)"/><path class="cls-3" d="M385.27 159.93s4.83-6.22 5-11.53c0 0 17.29-4.32 15.7 12.38 0 0 3.73-14.49-10.4-16.87s-17.05 18.37-10.63 25.6c.06 0-2.66-5.69.33-9.58z" transform="translate(-51.3 -92.08)"/><path class="cls-13" d="M386.37 161.86A3.66 3.66 0 00383 158c-2.59-.09-4.57 5 1.6 7.16.84.3 1.48-.51 1.77-3.3z" transform="translate(-51.3 -92.08)"/><path class="cls-16" d="M398.51 169.36s-3.57.29-4.56-3" transform="translate(-51.3 -92.08)"/><path class="cls-2" d="M382.51 156.62c2.91-10.1 18.9-17.33 23.52-4.86a15.58 15.58 0 00-4.62-8s-15-5.82-19.34 11.5z" transform="translate(-51.3 -92.08)"/><path class="cls-3" d="M416.84 196a.81.81 0 00.82.92h9.14a1.06 1.06 0 001-.92l2-18a.91.91 0 00-.83-1h-9.14a1.19 1.19 0 00-1 1z" transform="translate(-51.3 -92.08)"/><path d="M419.89 177.85l-2.07 18.22a.69.69 0 00.72.86h7.75c.52 0 1.47-.29 1.53-.8l2.07-18.28c.06-.51-.83-.92-1.35-.92h-7.75a.94.94 0 00-.9.92z" transform="translate(-51.3 -92.08)" opacity=".5" fill="#fff"/><path class="cls-5" d="M399.11 239.37a1.62 1.62 0 101.62-1.62 1.62 1.62 0 00-1.62 1.62z" transform="translate(-51.3 -92.08)"/><path class="cls-13" d="M436 197.51l-4.76-8.08s0-4.25-.4-5.25-5.09-3.26-6-2.92-1.25 8.67-.42 9.8 3.75 2.37 3.75 2.37L428 195l2.78 8.42z" transform="translate(-51.3 -92.08)"/><path class="cls-2" d="M386.6 104.52l-1.59-1.58-7.5 8.41 1.07 3.34 8.02-10.17z"/><path class="cls-9" d="M399.9 210s-8.82 20.09-20.2 26.6c-.14-4.19-.77-19.44-2.95-28-.59-2.3-1.29-4.81-2.13-7.58l3.47-4.17s2.4 7.44 1.34 13.9l13.27-8.13z" transform="translate(-51.3 -92.08)"/><path class="cls-13" d="M391.36 205.42l10.83-8.49a37.84 37.84 0 012.3-5.35c.66-.79 10.15-4.3 10.95-4.39s0 7.78-1.19 9.12-8.84 4-8.84 4L394.07 211z" transform="translate(-51.3 -92.08)"/><path class="cls-18" d="M369.71 186c-6.36 3.18-9.19 39.1 1.85 45.3s27.55-21.82 27.55-21.82l-6.41-6.8s-13.45 11.32-15.07 10.24.22-12 .22-12 1.89-3.33-2.08-8.56-6.06-6.36-6.06-6.36z" transform="translate(-51.3 -92.08)"/><path d="M369.71 186c-6.36 3.18-9.19 39.1 1.85 45.3s27.55-21.82 27.55-21.82l-6.41-6.8s-13.45 11.32-15.07 10.24.22-12 .22-12 1.89-3.33-2.08-8.56-6.06-6.36-6.06-6.36z" transform="translate(-51.3 -92.08)" style="isolation:isolate" fill="#36a7ff" opacity=".2"/><path class="cls-2" d="M347.93 119.92l1.92-1.15-7.2-10.56-2.65 1.47 7.93 10.24z"/><path class="cls-2" d="M428.54 285.2v.16c-1.74.28-3.21 3.44-4.86 4.53a16.71 16.71 0 01-6.77 2.46c-4.51.69-9.15.19-13.64 1-5.58 1-10.6 3.89-16 5.66-3.82 1.25-10.09 2.57-13.73.06-2.62-1.81-2.21-5-2.28-7.87a161.54 161.54 0 011.32-27 106 106 0 016.32-24.6c.25-.62.51-1.23.77-1.84l32-2.47.27 1.54 2 11.49 3.82 9.66 9.43 23.85c.51 1.1 1.01 2.23 1.35 3.37z" transform="translate(-51.3 -92.08)"/><path class="cls-5" d="M428.54 285.2v.16c-1.74.28-3.21 3.44-4.86 4.53a16.71 16.71 0 01-6.77 2.46c-4.51.69-9.15.19-13.64 1-5.58 1-10.6 3.89-16 5.66-3.82 1.25-10.09 2.57-13.73.06-2.62-1.81-2.21-5-2.28-7.87a161.54 161.54 0 011.32-27 106 106 0 016.32-24.6c.25-.62.51-1.23.77-1.84l32-2.47.27 1.54 2 11.49 3.82 9.66 9.43 23.85c.51 1.1 1.01 2.23 1.35 3.37z" transform="translate(-51.3 -92.08)"/><path style="isolation:isolate" d="M328.43 145.67l-1.35 3.33 34.07-1.71-.72-4.09-32 2.47z"/><path class="cls-2" d="M338.06 144.88l-.4 4.4h-1.23l.19-4.4h1.44z"/><path class="cls-5" d="M338.06 144.88l-.4 4.4h-1.23l.19-4.4h1.44z"/><path class="cls-2" d="M356.01 143.54l.49 4.61h1.14l-.4-4.8-1.23.19z"/><path class="cls-5" d="M356.01 143.54l.49 4.61h1.14l-.4-4.8-1.23.19z"/><path class="cls-2" d="M397.72 236.51l.39 3.74a.77.77 0 00.82.68l5-.4a.76.76 0 00.7-.83l-.36-3.69a.76.76 0 00-.81-.69l-5 .35a.75.75 0 00-.74.84z" transform="translate(-51.3 -92.08)"/><path class="cls-13" d="M408.68 181.72a6 6 0 01-1.32 3.58 8.63 8.63 0 01-2.13 1.92c-2.05 1.36-5.27 2.55-10.24 3.21a31.12 31.12 0 01-8.22.07 22.5 22.5 0 01-3.53-.77 17.46 17.46 0 01-8.24-5.23q2.64-.67 5.33-1.19l1.38-.27 1.4-.25a103.35 103.35 0 0114.48-1.53c1.75 0 3.56 0 5.28.1.75 0 1.49.07 2.19.12 1.37.07 2.62.16 3.62.24z" transform="translate(-51.3 -92.08)"/><path class="cls-3" d="M386.77 190.5a22.5 22.5 0 01-3.53-.77 11.71 11.71 0 00-2.93-6.42l1.38-.27c2.74 1.96 4.31 5.45 5.08 7.46zm20.59-5.2a8.63 8.63 0 01-2.13 1.92 9.11 9.11 0 00-2.38-5.86c.75 0 1.49.07 2.19.12a12.13 12.13 0 012.32 3.82z" transform="translate(-51.3 -92.08)"/><path class="cls-2" d="M446.05 144.74h-11.59a3.16 3.16 0 00-3.16 3.16v9.1a3.15 3.15 0 003.16 3.16h4.26l1.54 3.73 1.53-3.73h4.26a3.16 3.16 0 003.17-3.16v-9.1a3.17 3.17 0 00-3.17-3.16z" transform="translate(-51.3 -92.08)"/><path class="cls-5" d="M435.89 149.3c1.15-1.82 3.29-1.09 4.38.35 1.13-1.41 3.29-2.09 4.4-.24 1.86 3.1-2.09 5.91-3.95 7l-.53.31c-.15-.08-.32-.19-.53-.32-1.83-1.13-5.66-4.04-3.77-7.1z" transform="translate(-51.3 -92.08)"/><path class="cls-2" d="M419.73 162.15h-5.8a1.58 1.58 0 00-1.58 1.58v4.53a1.58 1.58 0 001.58 1.58h2.13l.77 1.87.77-1.87h2.13a1.58 1.58 0 001.58-1.58v-4.53a1.58 1.58 0 00-1.58-1.58z" transform="translate(-51.3 -92.08)"/><path class="cls-5" d="M414.65 164.43c.57-.91 1.64-.54 2.19.17.56-.7 1.64-1 2.2-.12.93 1.56-1.05 3-2 3.51l-.26.16-.27-.17c-.89-.57-2.83-1.98-1.86-3.55z" transform="translate(-51.3 -92.08)"/></g><g id="Character_1" data-name="Character 1"><g id="_Group_2" data-name="&lt;Group&gt;"><path class="cls-18" d="M286.47 348.16c-6.64 14.25-15.39 15.77-15.39 15.77l-10.46-12.25s7.5-4.52 9.25-10-1.5-41.25 7.82-48.74c0 0 1.07 2.84 2.52 7.28 2.84 8.68 7.14 23.46 7.82 35.18.31 5.07-.03 9.6-1.56 12.76z" transform="translate(-51.3 -92.08)"/><path d="M288 335.39c-9.14-16.3-10.09-28.08-7.82-35.18 2.87 8.68 7.17 23.46 7.82 35.18z" transform="translate(-51.3 -92.08)" style="isolation:isolate" opacity=".1"/><path class="cls-3" d="M287.59 371.42s-67-18.69-75.39 4.81 52.39 42.24 86 43.39 47.38-22.45 37.46-44.88z" transform="translate(-51.3 -92.08)"/><path class="cls-9" d="M287.59 371.42s-67-18.69-75.39 4.81 52.39 42.24 86 43.39 47.38-22.45 37.46-44.88z" transform="translate(-51.3 -92.08)"/><path class="cls-18" d="M342 388.31l-62.24-10.65c10.9-21 7.44-52.94-2-84.74 6.59-5.51 32.93-9.23 53-3.39 0 0 1.19 4.42 2.8 12 1.93 9.1 4.46 22.76 6.26 38.88a343.24 343.24 0 012.18 47.9z" transform="translate(-51.3 -92.08)"/><path class="cls-5" d="M342 388.31l-62.24-10.65c9.25-17.82 8.16-43.51 1.82-70.31 5.24-10.1 12.02-11.35 12.02-11.35 6.85 9.63 21 0 21 0 13.11 7.92 20.91 24.41 23.41 30.43a360 360 0 013.99 61.88z" transform="translate(-51.3 -92.08)"/><path d="M339.79 340.44a33.13 33.13 0 01-11-15.51c-5.06-16.05 2.82-22.16 4.73-23.37 1.94 9.1 4.48 22.76 6.27 38.88z" transform="translate(-51.3 -92.08)" opacity=".1"/><path class="cls-2" d="M219.89 408.09a3 3 0 01-1.06-1.52 1.16 1.16 0 01.4-1.09.7.7 0 01.67-.19c1.13.34 2.25 3.57 2.36 3.95a.17.17 0 01-.06.2.21.21 0 01-.25 0 12.94 12.94 0 01-2.06-1.35zm.18-2.23a.61.61 0 00-.26-.15.24.24 0 00-.26.08.73.73 0 00-.29.74 4.82 4.82 0 002.4 2.31 9.22 9.22 0 00-1.59-2.98z" transform="translate(-51.3 -92.08)"/><path class="cls-2" d="M221.9 409.46v-.1c-.4-1-.49-3.62.32-4.19a.73.73 0 01.9.08 1.25 1.25 0 01.53.81c.26 1.33-1.3 3.29-1.4 3.38a.19.19 0 01-.21.06.21.21 0 01-.14-.04zm1-3.8l-.07-.07c-.25-.16-.34-.09-.39-.06-.48.33-.56 2.17-.31 3.29.42-.6 1.2-1.86 1-2.69a.78.78 0 00-.27-.47zm67.78 18.13a2.93 2.93 0 01-.35 1.81 1.15 1.15 0 01-1.05.48.69.69 0 01-.61-.35c-.55-1 1-4.1 1.17-4.44a.17.17 0 01.19-.1.21.21 0 01.18.17 11.73 11.73 0 01.47 2.43zm-1.68 1.42a.78.78 0 00.07.3.24.24 0 00.24.13.74.74 0 00.73-.31 4.77 4.77 0 000-3.33 9.33 9.33 0 00-1.04 3.21z" transform="translate(-51.3 -92.08)"/><path class="cls-23" d="M222.69 306.65l11.85 8.7 5.69 4.17-3.72 6.48-5.77-3.16-14.11-7.71 6.06-8.48z"/><path class="cls-3" d="M286 417.89l3.57-7.89a.87.87 0 011.16-.42l3.86 1.89s5.36 2.17 6 3.91c2 5.1-5.49 22.76-7.82 22.76-.85 0-1.36-1.32-1.48-2.16-.38-2.68-.44-9.4-.78-11.63-.4-2.6-3-4.6-4.25-5.4a.85.85 0 01-.26-1.06z" transform="translate(-51.3 -92.08)"/><path class="cls-2" d="M290.25 421.39l-.05.09c-.43 1-2.24 2.89-3.22 2.71a.72.72 0 01-.56-.7 1.22 1.22 0 01.2-.95c.77-1.11 3.25-1.38 3.39-1.36a.18.18 0 01.19.1.22.22 0 01.05.11zm-3.41 1.95v.1c0 .29.17.31.23.32.57.11 1.94-1.12 2.56-2.08-.73.12-2.17.44-2.65 1.14a.81.81 0 00-.15.52z" transform="translate(-51.3 -92.08)"/><path class="cls-9" d="M222.69 306.65l11.85 8.7-3.8 7.49-14.11-7.71 6.06-8.48z"/><path class="cls-2" d="M228.03 323.33l-3.9-.87 6.48-12.36 3.61 3.69-6.19 9.54z"/><path class="cls-5" d="M228.03 323.33l-3.9-.87 6.48-12.36 3.61 3.69-6.19 9.54z"/><path class="cls-23" d="M198.16 321.62l-14.5 2.38-6.96 1.15-2.03-7.19 6.3-1.92 15.38-4.68 1.81 10.26z"/><path class="cls-3" d="M227.39 408.86l3.14 8.07a.86.86 0 01-.52 1.12l-4 1.43s-5.31 2.32-7 1.58c-5-2.16-12.41-19.84-10.78-21.51.59-.61 1.89-.05 2.58.46 2.17 1.6 7 6.26 8.85 7.57 2.14 1.54 5.41 1.06 6.83.75a.85.85 0 01.9.53z" transform="translate(-51.3 -92.08)"/><path class="cls-9" d="M198.16 321.62l-14.5 2.38-2.69-7.96 15.38-4.68 1.81 10.26z"/><path class="cls-3" d="M234.77 406.62s60.28-35.56 80.67-34.61 22.19 21.25 13.77 32.51-24 14-24 14 10.58-14.95 9.06-19.16-7.37 9.94-7.37 9.94-37.34 4.9-69.88 7.65z" transform="translate(-51.3 -92.08)"/><path class="cls-2" d="M182.51 313.63l3.35-2.25 4.3 13.2h-5.17l-2.48-10.95z"/><path class="cls-5" d="M182.51 313.63l3.35-2.25 4.3 13.2h-5.17l-2.48-10.95z"/><path class="cls-23" d="M302.89 298.08c8.77 0 14.48-9.2 14.48-9.2-11.5-4-11.54-16.17-11.54-16.17L301.4 277l-6.31 6.18c5.25 3.72 2.77 6.94 1.1 8.37a7.68 7.68 0 01-1.1.82s-.97 5.71 7.8 5.71z" transform="translate(-51.3 -92.08)"/><path class="cls-9" d="M296.19 291.59c10.76 1.21 10-14.9 10-14.9a27.39 27.39 0 00-4.82.35l-6.31 6.18c5.28 3.72 2.8 6.94 1.13 8.37z" transform="translate(-51.3 -92.08)"/><path class="cls-2" d="M318.48 269.05c1.3 1.27-4.08 4.74-12.66 1.79s-10.05-11.63-10.05-11.63 14.23 1.56 22.71 9.84z" transform="translate(-51.3 -92.08)"/><path d="M318.48 269.05c1.3 1.27-4.08 4.74-12.66 1.79s-10.05-11.63-10.05-11.63 14.23 1.56 22.71 9.84z" transform="translate(-51.3 -92.08)" style="isolation:isolate" opacity=".4"/><path class="cls-3" d="M287.78 260.63c4.08 1.69 3.3 6.13-3.46 14.24-4.16-3.59-6.42-11.75-4.24-14.36s4.15-1.34 7.7.12z" transform="translate(-51.3 -92.08)"/><path class="cls-23" d="M281.77 278.66a28.43 28.43 0 001.3 3.18c4 8.19 15.58 9.78 20.7 1.68l.06-.08c3.38-5.45 2.11-10.54.7-19.36a12.2 12.2 0 00-19-8.18c-6.74 4.69-6.34 15.23-3.76 22.76z" transform="translate(-51.3 -92.08)"/><path class="cls-3" d="M292.08 269.41c.16.71-.09 1.37-.55 1.47s-1-.38-1.12-1.09.08-1.36.54-1.47.93.41 1.13 1.09zm-8.08 1.82c.15.71-.1 1.37-.56 1.47s-1-.38-1.13-1.1.09-1.36.56-1.47 1.01.39 1.13 1.1z" transform="translate(-51.3 -92.08)"/><path d="M286.74 271a25.77 25.77 0 01-2 6.82c1.54.88 3.53-.13 3.53-.13z" transform="translate(-51.3 -92.08)" fill="#de5753"/><path class="cls-3" d="M293.71 266.38a.4.4 0 00.21-.72 4.21 4.21 0 00-3.77-1 .42.42 0 00-.3.5.44.44 0 00.53.29 3.36 3.36 0 013 .79.44.44 0 00.33.14zm-13.95 2.96a.45.45 0 00.33-.32 3.39 3.39 0 011.92-2.41.43.43 0 00-.29-.81 4.28 4.28 0 00-2.46 3 .43.43 0 00.31.51.37.37 0 00.19.03zm19.58-12.16c-3.75 2.31-2.27 6.58 5.69 13.5 3.54-4.2 4.47-12.63 1.89-14.85s-4.3-.65-7.58 1.35z" transform="translate(-51.3 -92.08)"/><path class="cls-23" d="M310.24 270.14a8.46 8.46 0 01-2.83 5.84c-2.24 2-4.64.26-5.09-2.52-.4-2.51.29-6.55 3.05-7.43s5.02 1.36 4.87 4.11z" transform="translate(-51.3 -92.08)"/><path d="M243.79 185.67s-.92 3.18-5.18 3.92" stroke-width=".56" stroke="#263238" stroke-linecap="round" stroke-linejoin="round" fill="none"/><path class="cls-3" d="M296 259a8.22 8.22 0 00-3.51 2.44 2.1 2.1 0 010-1.78 12.58 12.58 0 00-3.75 3 6.26 6.26 0 01-.61-2.85 16.64 16.64 0 00-1.67 3.66s-3-1.09-3.28-3.47a12.19 12.19 0 000 3.07 3.7 3.7 0 01-2.42-2.67 10.07 10.07 0 00-.53 3.73s-2.23-1.06-1.58-4.13 9.32-7.8 14.35-6.32 3 5.32 3 5.32z" transform="translate(-51.3 -92.08)"/><path class="cls-2" d="M278.39 261.31s.09-8.88 3.69-12.21 16.45-4.41 22.81-1.09 4.11 15.31 4.11 15.31-13.08-6.63-30.61-2.01z" transform="translate(-51.3 -92.08)"/><path class="cls-3" d="M282.85 258.46a20.17 20.17 0 018-.66s2.25-4-3.37-4.19c-4.05-.17-4.86 1.99-4.63 4.85z" transform="translate(-51.3 -92.08)"/><path class="cls-2" d="M302.15 261l7.09.05a35.53 35.53 0 019.24 8S313 264.3 302.15 261z" transform="translate(-51.3 -92.08)"/><path class="cls-9" d="M302.15 261l7.09.05a35.53 35.53 0 019.24 8S313 264.3 302.15 261zm24.58 98.16l-20.74 23s-22.92-.51-50.76 13.09c0 0-29.87-12.34-32.62-22.59s62.71-3 62.71-3z" transform="translate(-51.3 -92.08)"/><path class="cls-23" d="M320.87 352.41l-33.25 10.88s-11.88-2.63-14-2.63-10.33 6.67-5.69 9 17.31 2.63 18.69 1.88 38.25-9.38 38.25-9.38z" transform="translate(-51.3 -92.08)"/><path class="cls-18" d="M330.73 289.53c-7.53-1.46 5.53 44.38 2.33 51.13s-15.69 11-15.69 11l5.75 12.69s17-3.21 26.25-15-6.37-57.43-18.64-59.82z" transform="translate(-51.3 -92.08)"/><path class="cls-2" d="M266.07 258.58l7 13.72-6 1.28-5.5-12.62 4.5-2.38z"/><path class="cls-8" d="M266.07 258.58l7 13.72-6 1.28-5.5-12.62 4.5-2.38z"/><path class="cls-3" d="M303.62 369.66v2.18a2.84 2.84 0 01-2.71 2.82h-80.39a3 3 0 01-2.9-2.82v-2.18z" transform="translate(-51.3 -92.08)"/><path class="cls-8" d="M303.62 369.66v2.18a2.84 2.84 0 01-2.71 2.82h-80.39a3 3 0 01-2.9-2.82v-2.18z" transform="translate(-51.3 -92.08)"/><path class="cls-8" d="M273.62 369.66v2.18a2.85 2.85 0 01-2.72 2.82h-50.38a3 3 0 01-2.9-2.82v-2.18z" transform="translate(-51.3 -92.08)"/><path class="cls-3" d="M270.9 372.66h-53.11a4.33 4.33 0 01-3.86-2.85l-12.18-38.2a2.12 2.12 0 012-2.95h53.15a4.43 4.43 0 013.86 2.95l12.18 38.15a2.08 2.08 0 01-2.04 2.9z" transform="translate(-51.3 -92.08)"/><path class="cls-8" d="M270.9 372.66h-53.11a4.33 4.33 0 01-3.86-2.85l-12.18-38.2a2.12 2.12 0 012-2.95h53.15a4.43 4.43 0 013.86 2.95l12.18 38.15a2.08 2.08 0 01-2.04 2.9z" transform="translate(-51.3 -92.08)"/><path class="cls-8" d="M268.9 372.66h-51.11a4.33 4.33 0 01-3.86-2.85l-12.18-38.2a2.12 2.12 0 012-2.95h51.15a4.43 4.43 0 013.86 2.95l12.18 38.15a2.08 2.08 0 01-2.04 2.9z" transform="translate(-51.3 -92.08)"/><path class="cls-8" d="M237.83 352.41c.65 2.55-.61 4.61-2.83 4.61s-4.55-2.06-5.2-4.61.61-4.61 2.83-4.61 4.54 2.07 5.2 4.61z" transform="translate(-51.3 -92.08)"/><path class="cls-2" d="M233.18 306.14h-11.59a3.17 3.17 0 00-3.16 3.17v9.05a3.17 3.17 0 003.16 3.17h4.26l1.54 3.73 1.53-3.73h4.26a3.17 3.17 0 003.17-3.17v-9.05a3.17 3.17 0 00-3.17-3.17z" transform="translate(-51.3 -92.08)"/><path class="cls-5" d="M223 310.7c1.15-1.81 3.29-1.08 4.39.35 1.13-1.41 3.29-2.08 4.39-.24 1.86 3.11-2.09 5.92-4 7l-.53.31-.52-.32c-1.73-1.13-5.65-4.04-3.73-7.1z" transform="translate(-51.3 -92.08)"/><path class="cls-2" d="M263.52 314.54h-5.8a1.59 1.59 0 00-1.58 1.59v4.52a1.59 1.59 0 001.58 1.59h2.13l.77 1.86.76-1.86h2.14a1.59 1.59 0 001.58-1.59v-4.52a1.59 1.59 0 00-1.58-1.59z" transform="translate(-51.3 -92.08)"/><path class="cls-5" d="M258.43 316.82c.58-.9 1.65-.54 2.2.18.56-.71 1.64-1 2.19-.12.93 1.55-1 3-2 3.5l-.27.16-.26-.16c-.89-.57-2.83-2.03-1.86-3.56z" transform="translate(-51.3 -92.08)"/><path class="cls-2" d="M249.51 285.34h-7.78a2.12 2.12 0 00-2.13 2.12v6.08a2.12 2.12 0 002.13 2.12h2.86l1 2.51 1-2.51h2.86a2.12 2.12 0 002.12-2.12v-6.08a2.12 2.12 0 00-2.06-2.12z" transform="translate(-51.3 -92.08)"/><path class="cls-5" d="M242.68 288.4c.78-1.22 2.21-.73 2.95.23.76-.94 2.21-1.4 3-.16 1.25 2.09-1.4 4-2.65 4.71l-.36.21-.35-.22c-1.27-.77-3.89-2.72-2.59-4.77z" transform="translate(-51.3 -92.08)"/><path class="cls-8" d="M286 417.89l3.57-7.89a.87.87 0 011.16-.42l3.86 1.89s5.36 2.17 6 3.91c2 5.1-5.49 22.76-7.82 22.76-.85 0-1.36-1.32-1.48-2.16-.38-2.68-.44-9.4-.78-11.63-.4-2.6-3-4.6-4.25-5.4a.85.85 0 01-.26-1.06zm-58.61-9.03l3.14 8.07a.86.86 0 01-.52 1.12l-4 1.43s-5.31 2.32-7 1.58c-5-2.16-12.41-19.84-10.78-21.51.59-.61 1.89-.05 2.58.46 2.17 1.6 7 6.26 8.85 7.57 2.14 1.54 5.41 1.06 6.83.75a.85.85 0 01.9.53z" transform="translate(-51.3 -92.08)"/></g></g></svg>